<?xml version="1.0" standalone="no"?>
<!DOCTYPE svg PUBLIC "-//W3C//DTD SVG 1.1//EN" "http://www.w3.org/Graphics/SVG/1.1/DTD/svg11.dtd" >
<svg xmlns="http://www.w3.org/2000/svg" xmlns:xlink="http://www.w3.org/1999/xlink" version="1.1">
<metadata>
Created by FontForge 20170924 at Fri Mar 15 18:21:09 2013
 By www-data
Copyright (c) 2013 by Peter Wiegel.   Open Font under Terms of following Free Software Licenses:
GPL (General Public License) with font-exception and OFL (Open Font License
</metadata>
<defs>
<font id="SimplePrint-Regular" horiz-adv-x="521" >
  <font-face 
    font-family="Simple Print"
    font-weight="400"
    font-stretch="normal"
    units-per-em="2000"
    panose-1="2 11 6 3 5 3 2 2 2 4"
    ascent="1600"
    descent="-400"
    x-height="490"
    cap-height="1001"
    bbox="-214.44 -499 1073 1349.9"
    underline-thickness="50"
    underline-position="250"
    unicode-range="U+0020-FB06"
  />
<missing-glyph horiz-adv-x="498" 
 />
    <glyph glyph-name=".notdef" horiz-adv-x="498" 
 />
    <glyph glyph-name="nonmarkingreturn" horiz-adv-x="1660" 
 />
    <glyph glyph-name="space" unicode=" " horiz-adv-x="498" 
 />
    <glyph glyph-name="A" unicode="A" horiz-adv-x="790" 
d="M245 450l-149 -456q-6 -21 -28 -14q-18 6 -14 27l318 978v0v1v0q4 10 15 14q20 6 28 -14l318 -979q7 -20 -14 -27t-29 14l-148 456h-297zM393 906l-133 -411h268z" />
    <glyph glyph-name="B" unicode="B" horiz-adv-x="579" 
d="M241 467h-146v-445h146q119 0 181 58q62 55 62 165q0 107 -62 165q-62 57 -181 57zM67 -21q-17 5 -17 23v977q0 22 22 22h0.5h1.5h165h0.5h1.5q136 0 212 -69q76 -72 76 -198q0 -128 -76 -198q-33 -30 -77 -46q45 -19 77 -48q76 -70 76 -197t-76 -199q-77 -68 -212 -68
h-169q-4 0 -5 1zM95 957v-445h146q119 0 181 57t62 165t-62 165t-181 57q-2 0 -2 1h-144z" />
    <glyph glyph-name="C" unicode="C" horiz-adv-x="684" 
d="M625 183q-39 -102 -104 -152q-68 -53 -160 -53q-152 0 -232 137q-42 69 -60.5 166t-18.5 209q0 110 18.5 206.5t60.5 167.5q80 137 232 137q92 0 160 -53q66 -52 104 -152q9 -22 -12 -29q-22 -8 -29 13q-35 89 -90 133q-55 43 -133 43q-127 0 -194 -114
q-38 -65 -55 -156.5t-17 -195.5q0 -107 17 -197.5t55 -154.5q67 -116 194 -116q77 0 133 44q56 43 90 133q7 20 29 13q21 -9 12 -29z" />
    <glyph glyph-name="D" unicode="D" horiz-adv-x="621" 
d="M260 1001q152 0 232 -137q42 -71 60.5 -167.5t18.5 -206.5q0 -112 -18.5 -209t-60.5 -166q-80 -137 -232 -137h-188q-22 0 -22 22v979q0 22 22 22h188zM260 22q126 0 194 116q38 64 55 154.5t17 197.5q0 104 -17 195.5t-55 156.5q-68 114 -194 114h-165v-934h165z" />
    <glyph glyph-name="E" unicode="E" horiz-adv-x="549" 
d="M95 450v-428h382q22 0 22 -22t-22 -22h-405q-22 0 -22 22v472v507q0 22 22 22h405q22 0 22 -22q0 -23 -22 -23h-382v-461h382q22 0 22 -23q0 -22 -22 -22h-382z" />
    <glyph glyph-name="F" unicode="F" horiz-adv-x="549" 
d="M95 450v-450q0 -22 -23 -22q-22 0 -22 22v472v507q0 22 22 22h405q22 0 22 -22q0 -23 -22 -23h-382v-461h382q22 0 22 -23q0 -22 -22 -22h-382z" />
    <glyph glyph-name="G" unicode="G" horiz-adv-x="763" 
d="M692 450h-65v-450q0 -22 -23 -22q-22 0 -22 22v97q-27 -41 -61 -66q-68 -53 -160 -53q-152 0 -232 137q-42 69 -60.5 166t-18.5 209q0 110 18.5 206.5t60.5 167.5q80 137 232 137q92 0 160 -53q66 -52 104 -152q9 -22 -12 -29q-22 -8 -29 13q-35 89 -90 133
q-55 43 -133 43q-127 0 -194 -114q-38 -65 -55 -156.5t-17 -195.5q0 -107 17 -197.5t55 -154.5q67 -116 194 -116q77 0 133 44q55 43 88 129v255h-124q-21 0 -21 22q0 23 21 23h146h88q21 0 21 -23q0 -22 -21 -22z" />
    <glyph glyph-name="H" unicode="H" horiz-adv-x="624" 
d="M574 979v-979q0 -22 -23 -22q-22 0 -22 22v452q-3 -2 -8 -2h-426v-450q0 -22 -23 -22q-22 0 -22 22v472v507q0 22 22 22q23 0 23 -22v-484h426q3 0 8 -2v486q0 22 22 22q23 0 23 -22z" />
    <glyph glyph-name="I" unicode="I" horiz-adv-x="427" 
d="M72 22h119v934h-119q-22 0 -22 23q0 22 22 22h142h141q22 0 22 -22q0 -23 -22 -23h-119v-934h119q22 0 22 -22t-22 -22h-141v0v0h-142q-22 0 -22 22t22 22z" />
    <glyph glyph-name="J" unicode="J" horiz-adv-x="529" 
d="M426 236v720h-119q-22 0 -22 23q0 22 22 22h141h141q23 0 23 -22q0 -23 -23 -23h-118v-720q0 -121 -54 -189q-55 -69 -157 -69q-100 0 -156 69q-54 67 -54 189q0 22 22 22q23 0 23 -22q0 -106 44 -161q41 -53 121 -53t122 53q44 55 44 161z" />
    <glyph glyph-name="K" unicode="K" horiz-adv-x="621" 
d="M556 964l-453 -474l453 -475q14 -15 -1 -30q-16 -16 -31 1l-429 448v-434q0 -22 -23 -22q-22 0 -22 22v490v489q0 22 22 22q23 0 23 -22v-434l429 449q15 15 31 1q16 -16 1 -31z" />
    <glyph glyph-name="L" unicode="L" horiz-adv-x="549" 
d="M95 979v-957h382q22 0 22 -22t-22 -22h-405q-22 0 -22 22v979q0 22 22 22q23 0 23 -22z" />
    <glyph glyph-name="M" unicode="M" horiz-adv-x="801" 
d="M750 982q1 -1 1 -3v-979q0 -22 -23 -22q-22 0 -22 22v842l-285 -848v-0.5v-0.5q0 -1 -1 -1q-4 -9 -13 -12q-22 -7 -28 14l-284 848v-842q0 -22 -23 -22q-22 0 -22 22v979v1v2q1 12 15 18q22 6 28 -14l307 -916l307 916q6 20 28 14q13 -6 15 -18z" />
    <glyph glyph-name="N" unicode="N" horiz-adv-x="643" 
d="M593 979v-979q0 -22 -23 -22q-14 0 -20 14l-455 894v-886q0 -22 -23 -22q-22 0 -22 22v979v0v1q0 13 12 18q20 10 30 -9l456 -896v886q0 22 22 22q23 0 23 -22z" />
    <glyph glyph-name="O" unicode="O" horiz-adv-x="722" 
d="M361 1001q151 0 233 -137q40 -71 59 -167.5t19 -206.5q0 -112 -19 -209t-59 -166q-83 -137 -233 -137q-152 0 -232 137q-42 69 -60.5 166t-18.5 209q0 110 18.5 206.5t60.5 167.5q80 137 232 137zM555 842q-68 114 -194 114q-127 0 -194 -114q-38 -65 -55 -156.5
t-17 -195.5q0 -107 17 -197.5t55 -154.5q67 -116 194 -116q126 0 194 116q37 64 55 154.5t18 197.5q0 104 -18 195.5t-55 156.5z" />
    <glyph glyph-name="P" unicode="P" horiz-adv-x="579" 
d="M241 467h-146v-467q0 -22 -23 -22q-22 0 -22 22v979q0 22 22 22h0.5h1.5h165h0.5h1.5q136 0 212 -69q76 -72 76 -198q0 -128 -76 -198q-76 -69 -212 -69zM95 957v-445h146q119 0 181 57t62 165t-62 165t-181 57q-2 0 -2 1h-144z" />
    <glyph glyph-name="Q" unicode="Q" horiz-adv-x="731" 
d="M633 -15l-78 77q-76 -84 -194 -84q-152 0 -232 137q-42 69 -60.5 166t-18.5 209q0 110 18.5 206.5t60.5 167.5q80 137 232 137q151 0 233 -137q40 -71 59 -167.5t19 -206.5q0 -112 -19 -209t-59 -166q-9 -15 -11 -17l82 -82q16 -15 0 -31t-32 0zM550 130q4 5 5 8
q37 64 55 154.5t18 197.5q0 104 -18 195.5t-55 156.5q-68 114 -194 114q-127 0 -194 -114q-38 -65 -55 -156.5t-17 -195.5q0 -107 17 -197.5t55 -154.5q67 -116 194 -116q98 0 163 73l-178 176q-15 16 0 32q16 16 32 0z" />
    <glyph glyph-name="R" unicode="R" horiz-adv-x="587" 
d="M95 431v-431q0 -22 -23 -22q-22 0 -22 22v490v489v0.5v1.5q2 20 22 20h167h0.5h1.5q136 0 212 -69q76 -72 76 -198q0 -128 -76 -198q-76 -69 -212 -69h-119l401 -452q14 -16 -2 -31t-31 2zM95 957v-445h146q119 0 181 57t62 165t-62 165t-181 57q-2 0 -2 1h-144z" />
    <glyph glyph-name="S" unicode="S" horiz-adv-x="656" 
d="M98 196q33 -88 87 -131q53 -43 131 -43q94 0 158 51q61 47 70 126q15 136 -64.5 195.5t-173.5 101.5q-100 45 -178 103t-63 191q11 95 86 153q74 58 183 58q90 0 157 -51q65 -51 102 -148q6 -22 -13 -28q-21 -10 -29 12q-32 85 -88 129q-54 41 -129 41q-94 0 -155 -49
q-61 -45 -70 -122q-13 -109 56.5 -158.5t158.5 -89.5q106 -47 194 -115t71 -228q-13 -98 -87 -157q-78 -59 -186 -59q-90 1 -158 52q-66 51 -101 151q-7 21 13 28q20 8 28 -13z" />
    <glyph glyph-name="T" unicode="T" horiz-adv-x="695" 
d="M72 1001h276h275q22 0 22 -22q0 -23 -22 -23h-253v-956q0 -22 -22 -22t-22 22v956h-254q-22 0 -22 23q0 22 22 22z" />
    <glyph glyph-name="U" unicode="U" horiz-adv-x="722" 
d="M672 394q0 -90 -19 -169.5t-61 -135.5q-81 -111 -231 -111q-151 0 -231 111q-43 56 -61.5 135.5t-18.5 169.5v585q0 22 22 22q23 0 23 -22v-585q0 -182 70 -279q68 -93 196 -93q126 0 195 93q72 97 72 279v585q0 22 21 22q23 0 23 -22v-585z" />
    <glyph glyph-name="V" unicode="V" horiz-adv-x="789" 
d="M415 -6q0 -5 -6 -8.5t-15 -3.5t-15.5 3.5t-6.5 8.5l-318 978q-4 21 14 28q22 6 28 -14l297 -914l297 914q7 20 29 14q20 -8 14 -28z" />
    <glyph glyph-name="W" unicode="W" horiz-adv-x="1094" 
d="M761 -4l-214 888l-214 -888q-5 -23 -27 -17q-14 3 -16 17l-236 978q-4 21 16 26q20 6 27 -16l214 -889l214 889q3 13 17 16q21 6 26 -16l215 -889l214 889q4 22 26 16q21 -5 17 -26l-236 -978v-0.5v-0.5v0v-1v0q-4 -12 -16 -15q-23 -6 -27 17z" />
    <glyph glyph-name="X" unicode="X" horiz-adv-x="641" 
d="M540 -9l-221 448l-220 -448q-10 -18 -30 -10q-19 10 -10 29l236 480l-236 479q-8 20 10 29q19 10 30 -9l220 -450l221 450q11 19 30 9q20 -9 10 -29l-236 -479l236 -480q11 -19 -10 -29q-20 -8 -30 10z" />
    <glyph glyph-name="Y" unicode="Y" horiz-adv-x="639" 
d="M98 989l220 -450l221 450q11 19 30 9q20 -9 10 -29l-238 -484v-485q0 -22 -23 -22q-22 0 -22 22v485l-238 484q-8 20 10 29q19 10 30 -9z" />
    <glyph glyph-name="Z" unicode="Z" horiz-adv-x="625" 
d="M53 12l464 944h-445q-22 0 -22 23q0 22 22 22h481q22 0 22 -22q0 -8 -3 -12l-464 -945h445q22 0 22 -22t-22 -22h-481q-22 0 -22 22q0 7 3 12z" />
    <glyph glyph-name="a" unicode="a" 
d="M471 472v-236v-236q0 -22 -23 -22q-22 0 -22 22v60q-2 -4 -9 -13q-55 -69 -157 -69q-100 0 -156 69q-54 67 -54 189t54 189q56 70 156 70q101 0 157 -70q7 -8 9 -12v59q0 23 22 23q23 0 23 -23zM382 398q-42 52 -122 52t-121 -52q-44 -57 -44 -162q0 -106 44 -161
q41 -53 121 -53t122 53q44 55 44 161q0 105 -44 162z" />
    <glyph glyph-name="h" unicode="h" 
d="M426 236q0 105 -44 162q-42 52 -122 52t-121 -52q-44 -57 -44 -162v-236q0 -22 -23 -22q-22 0 -22 22v236v743q0 22 22 22q23 0 23 -22v-566q2 4 9 12q56 70 156 70q101 0 157 -70q54 -69 54 -189v-236q0 -22 -23 -22q-22 0 -22 22v236z" />
    <glyph glyph-name="o" unicode="o" horiz-adv-x="522" 
d="M260 450q-80 0 -121 -52q-44 -57 -44 -162q0 -106 44 -161q41 -53 121 -53t122 53q44 55 44 161q0 105 -44 162q-42 52 -122 52zM104 425q56 70 156 70q101 0 157 -70q54 -69 54 -189q0 -121 -54 -189q-55 -69 -157 -69q-100 0 -156 69q-54 67 -54 189t54 189z" />
    <glyph glyph-name="c" unicode="c" horiz-adv-x="508" 
d="M450 106q-26 -64 -73 -96q-49 -32 -117 -32q-100 0 -156 69q-54 67 -54 189t54 189q56 70 156 70q67 0 117 -34q47 -31 73 -95q8 -22 -13 -29t-29 13q-19 49 -56 75q-37 25 -92 25q-80 0 -121 -52q-44 -57 -44 -162q0 -106 44 -161q41 -53 121 -53q55 0 92 25t56 75
q8 21 29 12q20 -7 13 -28z" />
    <glyph glyph-name="d" unicode="d" 
d="M382 76q44 56 44 161q0 106 -44 161q-42 53 -122 53q-79 0 -121 -53q-44 -55 -44 -161q0 -105 44 -161q42 -53 121 -53q80 0 122 53zM471 1q0 -23 -22 -23q-23 0 -23 23v60q-2 -5 -9 -13q-56 -70 -157 -70q-100 0 -156 70q-54 67 -54 189t54 189q56 69 156 69
q102 0 157 -69q7 -9 9 -13v564q0 22 23 22q22 0 22 -22v-740v-236v0z" />
    <glyph glyph-name="e" unicode="e" horiz-adv-x="520" 
d="M138 398q-39 -50 -44 -140h331q-6 90 -44 140q-42 52 -122 52t-121 -52zM449 106q-26 -64 -73 -96q-49 -32 -117 -32q-100 0 -156 69q-32 39 -43 89.5t-11 99.5q0 122 54 189q56 70 156 70q101 0 157 -70q54 -69 54 -189q0 -22 -23 -22h-353q5 -90 44 -139
q41 -53 121 -53q55 0 92 25t56 75q8 21 29 12q20 -7 13 -28z" />
    <glyph glyph-name="f" unicode="f" horiz-adv-x="126" 
d="M296 890q-14 33 -37 50q-25 16 -63 16q-54 0 -81 -35q-31 -38 -31 -111v-210h163q22 0 22 -21q0 -23 -22 -23h-163v-556q0 -22 -21 -22q-24 0 -24 22v556h-68q-22 0 -22 23q0 21 22 21h68v210q0 88 41 140q41 51 116 51q51 0 87 -24q37 -25 54 -71q10 -22 -12 -30t-29 14
z" />
    <glyph glyph-name="g" unicode="g" 
d="M113 -343q18 -49 56 -74q36 -25 91 -25q80 0 122 52q44 56 44 162v288q-2 -4 -9 -13q-55 -69 -157 -69q-100 0 -156 69q-54 67 -54 189t54 189q56 70 156 70q101 0 157 -70q7 -8 9 -12v59q0 23 22 23q23 0 23 -23v-236v-464q0 -121 -54 -189q-56 -70 -157 -70
q-67 0 -116 33q-48 32 -73 95q-9 22 13 29q20 8 29 -13zM382 398q-42 52 -122 52t-121 -52q-44 -57 -44 -162q0 -106 44 -161q41 -53 121 -53t122 53q44 55 44 161q0 105 -44 162z" />
    <glyph glyph-name="i" unicode="i" horiz-adv-x="170" 
d="M107 472v-472q0 -22 -23 -22q-22 0 -22 22v472q0 23 22 23q23 0 23 -23zM36 746q0 25 14.5 42.5t35.5 17.5t36 -17.5t15 -42.5t-15 -42t-36 -17t-35.5 17t-14.5 42z" />
    <glyph glyph-name="l" unicode="l" horiz-adv-x="145" 
d="M95 979v-979q0 -22 -23 -22q-22 0 -22 22v979q0 22 22 22q23 0 23 -22z" />
    <glyph glyph-name="n" unicode="n" 
d="M426 236q0 105 -44 162q-42 52 -122 52t-121 -52q-44 -57 -44 -162v-236q0 -22 -23 -22q-22 0 -22 22v236v236q0 23 22 23q23 0 23 -23v-59q2 4 9 12q56 70 156 70q101 0 157 -70q54 -69 54 -189v-236q0 -22 -23 -22q-22 0 -22 22v236z" />
    <glyph glyph-name="m" unicode="m" horiz-adv-x="710" 
d="M615 236q0 107 -33 164q-32 50 -85 50q-57 0 -86 -50q-34 -59 -34 -164v-236q0 -22 -22 -22t-22 22v236q0 105 -34 164q-32 50 -85 50q-56 0 -85 -50q-34 -56 -34 -164v-236q0 -22 -23 -22q-22 0 -22 22v236v236q0 23 22 23q23 0 23 -23v-42q43 65 119 65q80 0 123 -73
q10 -18 18 -38q5 16 18 38q42 73 124 73q80 0 123 -73q40 -66 40 -186v-236q0 -22 -22 -22q-23 0 -23 22v236z" />
    <glyph glyph-name="p" unicode="p" 
d="M95 472v-59q2 4 9 12q56 70 156 70q101 0 157 -70q54 -69 54 -189q0 -121 -54 -189q-55 -69 -157 -69q-100 0 -156 69q-7 9 -9 13v-525q0 -22 -23 -22q-22 0 -22 22v701v236q0 23 22 23q23 0 23 -23zM260 450q-80 0 -121 -52q-44 -57 -44 -162q0 -106 44 -161
q41 -53 121 -53t122 53q44 55 44 161q0 105 -44 162q-42 52 -122 52z" />
    <glyph glyph-name="q" unicode="q" horiz-adv-x="526" 
d="M612 182l-141 -330v-317q0 -22 -23 -22q-22 0 -22 22v525q-2 -4 -9 -13q-55 -69 -157 -69q-100 0 -156 69q-54 67 -54 189t54 189q56 70 156 70q101 0 157 -70q7 -8 9 -12v59q0 23 22 23q23 0 23 -23v-236v-270l100 233q9 19 29 13q20 -9 12 -30zM382 398q-42 52 -122 52
t-121 -52q-44 -57 -44 -162q0 -106 44 -161q41 -53 121 -53t122 53q44 55 44 161q0 105 -44 162z" />
    <glyph glyph-name="u" unicode="u" 
d="M95 236q0 -106 44 -161q41 -53 121 -53t122 53q44 55 44 161v236q0 23 22 23q23 0 23 -23v-236v-236q0 -22 -23 -22q-22 0 -22 22v60q-2 -4 -9 -13q-55 -69 -157 -69q-100 0 -156 69q-54 67 -54 189v236q0 23 22 23q23 0 23 -23v-236z" />
    <glyph glyph-name="r" unicode="r" horiz-adv-x="508" 
d="M95 472v-59q2 4 9 12q56 70 156 70q67 0 117 -34q47 -31 73 -95q8 -22 -13 -29t-29 13q-19 49 -56 75q-37 25 -92 25q-80 0 -121 -52q-44 -57 -44 -162v-236q0 -22 -23 -22q-22 0 -22 22v236v236q0 23 22 23q23 0 23 -23z" />
    <glyph glyph-name="s" unicode="s" horiz-adv-x="524" 
d="M98 101q22 -39 61 -58q38 -21 96 -21q68 0 116 24q40 22 45 53q10 56 -46 82.5t-123 46.5q-76 23 -135.5 53t-47.5 102q10 52 69 83q57 29 134 29q66 0 116 -25q48 -26 78 -76q12 -20 -8 -30q-20 -11 -30 8q-22 38 -61 58t-95 20q-67 0 -114 -23q-40 -23 -45 -51
q-8 -43 40.5 -65.5t111.5 -39.5q80 -24 147 -59t53 -121q-10 -54 -69 -84q-57 -29 -136 -29q-67 0 -117 25t-79 77q-9 20 10 30t29 -9z" />
    <glyph glyph-name="t" unicode="t" horiz-adv-x="401" 
d="M-18 600h80v379q0 22 23 22q22 0 22 -22v-379h151q22 0 22 -21q0 -23 -22 -23h-151v-388q0 -73 31 -111q26 -35 81 -35q37 0 62 17q23 16 38 51q7 20 29 12q20 -8 12 -28q-17 -47 -54 -72q-38 -24 -87 -24q-75 0 -116 52q-41 50 -41 138v388h-80q-22 0 -22 23q0 21 22 21
z" />
    <glyph glyph-name="j" unicode="j" horiz-adv-x="156" 
d="M-155 -375q13 -33 37 -51q25 -16 62 -16q55 0 82 34q30 39 30 112v768q0 23 22 23t22 -23v-768q0 -87 -39 -139q-40 -52 -117 -52q-49 0 -87 25q-35 24 -54 71q-6 21 13 28q21 10 29 -12zM30 746q0 25 14.5 42.5t35.5 17.5t36 -17.5t15 -42.5t-15 -42t-36 -17t-35.5 17
t-14.5 42z" />
    <glyph glyph-name="v" unicode="v" horiz-adv-x="586" 
d="M527 463l-215 -471v0v-1v0v0v0v-1v0v0v0v-1v0v0l-2 -1v0v-1v0h-1v0v-1v0v0v0l-1 -1v0v0v0l-1 -1v0v0v0v-1v0v0v0h-1v0h-1.5t-0.5 -1v0v0h-1v0v-1v0v0v0v0h-1v0v0v0l-1 -1v0v0h-1v0v0v0q-5 -2 -7 -2v0v0v0q-3 0 -8 2v0h-1v0v0v0h-1v1v0v0v0v0v0h-1v0v0v1h-1v0v0h-1
q0 1 -0.5 1h-0.5v0h-1v0v0v0v1v0h-1v0v1v0v0h-1v1v0v0v0l-1 1v0v0v0v1v0l-2 1v0v0v1v0v0v0v1v0v0h-1v1v0l-214 471q-8 20 11 29t29 -11l195 -427l193 427q8 19 30 11q20 -10 11 -29z" />
    <glyph glyph-name="w" unicode="w" horiz-adv-x="795" 
d="M417 479l140 -409l139 409q8 21 29 14q20 -8 14 -28l-161 -472v0v0v0v0v0v0v-1v0q-2 -4 -5 -7q-2 -2 -7 -5v0v0h-1v0v0v0h-1v0v0l-1 -1v0v0v0v0v0v0h-1.5h-0.5v0l-0.5 -0.5l-0.5 -0.5v0h-0.5h-0.5v0v0h-0.5h-0.5v0v0v0v0v0h-1v0v0v0h-1v0h-1v0v0v0v0h-1.5h-0.5v0v0.5v0.5
v0h-0.5h-0.5v0h-1v0h-1v0v1v0v0h-1v0v0v0v0v0v0l-8 5q-3 3 -4 7v0v1v0h-1v0v0v0v0l-139 410l-140 -410v0v0v0h-1v0v0v-1v0q-1 -4 -5 -7q-1 -2 -6 -5v0v0h-1v0v0h-1v0v0v0l-1 -1v0v0v0h-1v0h-0.5h-0.5v0l-0.5 -0.5l-0.5 -0.5v0h-0.5h-0.5v0v0h-0.5h-0.5v0v0v0h-1v0v0v0v0v0v0
h-1v0h-1v0v0v0v0v0h-1.5h-0.5v0v0.5v0.5v0h-1v0v0h-1v0h-1v0v1v0v0h-1v0h-1v0v0v0v0l-7 5q-3 3 -4 7v0l-1 1v0v0v0v0v0v0l-161 472q-4 21 14 28q22 7 28 -14l140 -409l139 409v0l1 1v0v0v1v0v0v0q1 3 5 7q2 3 6 4v0v1h1v0v0h1v0v0v0l1 1v0h1v0v0v0v0h0.5h0.5v0h0.5h0.5v0
h0.5h0.5v0v0h0.5h0.5v0l1 1v0v0v0h1v0v0v0v0v0l1 -1v0v0v0v0h0.5h1.5v0v0v0h1h0.5h0.5v0v0v0h1v0v-1v0v0h1v0h1v0v0l1 -1v0q3 -1 6 -4q4 -6 5 -7v0v0v0v-1v0v0v-1z" />
    <glyph glyph-name="x" unicode="x" horiz-adv-x="525" 
d="M97 486l164 -214l165 214q14 17 32 4q17 -15 3 -32l-172 -222l172 -223q14 -15 -3 -30q-18 -13 -32 5l-165 211l-164 -211q-14 -18 -32 -5q-15 15 -3 30l172 223l-172 222q-12 17 3 32q18 13 32 -4z" />
    <glyph glyph-name="y" unicode="y" horiz-adv-x="586" 
d="M527 463l-425 -937q-9 -19 -30 -11q-20 10 -11 29l207 456l-210 463q-8 20 11 29t29 -11l195 -427l193 427q8 19 30 11q20 -10 11 -29z" />
    <glyph glyph-name="z" unicode="z" horiz-adv-x="509" 
d="M56 15l336 435h-320q-22 0 -22 22q0 23 22 23h365q22 0 22 -23q0 -11 -6 -15l-335 -435h319q22 0 22 -22t-22 -22h-365q-22 0 -22 22q0 7 6 15z" />
    <glyph glyph-name="question" unicode="?" horiz-adv-x="483" 
d="M-102 802q35 97 101 148q65 51 158 51q106 0 182 -58q84 -63 89 -173t-36 -168t-93 -102q-51 -43 -92.5 -102.5t-32.5 -199.5q1 -23 -21 -23q-23 -2 -24 21q-10 156 37 223t104 115q45 39 81.5 89t30.5 162q-10 77 -70 122q-63 49 -155 49q-77 0 -131 -41
q-54 -43 -87 -129q-8 -22 -29 -12q-20 6 -12 28zM108 41q0 -25 14.5 -42t35.5 -17t36 17t15 42t-15 42.5t-36 17.5t-35.5 -17.5t-14.5 -42.5z" />
    <glyph glyph-name="b" unicode="b" 
d="M50 1v236v740q0 22 22 22q23 0 23 -22v-564q2 4 9 13q55 69 157 69q100 0 156 -69q54 -67 54 -189t-54 -189q-56 -70 -156 -70q-101 0 -157 70q-7 8 -9 13v-60q0 -23 -23 -23q-22 0 -22 23zM139 76q42 -53 122 -53q79 0 121 53q44 56 44 161q0 106 -44 161
q-42 53 -121 53q-80 0 -122 -53q-44 -55 -44 -161q0 -105 44 -161z" />
    <glyph glyph-name="k" unicode="k" horiz-adv-x="489" 
d="M422 454l-311 -218l311 -218q16 -13 6 -30q-14 -18 -32 -5l-301 210v-193q0 -22 -23 -22q-22 0 -22 22v489v490q0 22 22 22q23 0 23 -22v-700l301 212q18 11 32 -6q11 -19 -6 -31z" />
    <glyph glyph-name="greater" unicode="&#x3e;" horiz-adv-x="323" 
d="M97 486l192 -250l-192 -248q-14 -18 -32 -5q-15 15 -3 30l172 223l-172 222q-12 17 3 32q18 13 32 -4z" />
    <glyph glyph-name="less" unicode="&#x3c;" horiz-adv-x="323" 
d="M242 -13l-192 250l192 248q14 18 32 5q15 -15 3 -30l-172 -223l172 -222q12 -17 -3 -32q-18 -13 -32 4z" />
    <glyph glyph-name="exclam" unicode="!" horiz-adv-x="202" 
d="M52 41q0 -25 14.5 -42t35.5 -17t36 17t15 42t-15 42.5t-36 17.5t-35.5 -17.5t-14.5 -42.5zM120 978v-777q0 -22 -23 -22q-22 0 -22 22v777q0 23 22 23q23 0 23 -23z" />
    <glyph glyph-name="period" unicode="." horiz-adv-x="202" 
d="M52 41q0 25 14.5 42.5t35.5 17.5t36 -17.5t15 -42.5t-15 -42t-36 -17t-35.5 17t-14.5 42z" />
    <glyph glyph-name="oe" unicode="&#x153;" horiz-adv-x="897" 
d="M260 450q-80 0 -121 -52q-44 -57 -44 -162q0 -106 44 -161q41 -53 121 -53t122 53q44 55 44 161q0 105 -44 162q-42 52 -122 52zM104 425q56 70 156 70q101 0 157 -70q54 -69 54 -189q0 -121 -54 -189q-55 -69 -157 -69q-100 0 -156 69q-54 67 -54 189t54 189zM515 398
q-39 -50 -44 -140h331q-6 90 -44 140q-42 52 -122 52t-121 -52zM826 106q-26 -64 -73 -96q-49 -32 -117 -32q-100 0 -156 69q-32 39 -43 89.5t-11 99.5q0 122 54 189q56 70 156 70q101 0 157 -70q54 -69 54 -189q0 -22 -23 -22h-353q5 -90 44 -139q41 -53 121 -53
q55 0 92 25t56 75q8 21 29 12q20 -7 13 -28z" />
    <glyph glyph-name="ae" unicode="&#xe6;" horiz-adv-x="888" 
d="M71 366q26 64 73 96q49 32 117 32q100 0 156 -69q20 -25 31 -54q13 30 32 54q56 70 156 70q101 0 157 -70q54 -69 54 -189q0 -22 -23 -22h-353q5 -90 44 -139q41 -53 121 -53q55 0 92 25t56 75q8 21 29 12q20 -7 13 -28q-26 -64 -73 -96q-49 -32 -117 -32q-100 0 -156 69
q-20 24 -32 53q-13 -30 -31 -53q-56 -70 -168 -70q-180 7 -211.5 143t148.5 139l240 -1q-5 90 -44 139q-41 53 -121 53q-55 0 -92 -25t-56 -75q-8 -21 -29 -12q-20 7 -13 28zM382 74q39 50 42 142l-238 2q-122 3 -107 -91.5t170 -104.5q92 0 133 52zM515 398
q-39 -50 -44 -140h331q-6 90 -44 140q-42 52 -122 52t-121 -52z" />
    <glyph glyph-name="asciicircum" unicode="^" horiz-adv-x="586" 
d="M59 16l215 471q1 5 6.5 9t13.5 4t13.5 -4t6.5 -9l214 -471q8 -20 -11 -29t-29 11l-195 427l-193 -427q-8 -19 -30 -11q-20 10 -11 29z" />
    <glyph glyph-name="dieresis" unicode="&#xa8;" horiz-adv-x="300" 
d="M179 746q0 25 14.5 42.5t35.5 17.5t36 -17.5t15 -42.5t-15 -42t-36 -17t-35.5 17t-14.5 42zM24 746q0 25 14.5 42.5t35.5 17.5t36 -17.5t15 -42.5t-15 -42t-36 -17t-35.5 17t-14.5 42z" />
    <glyph glyph-name="ydieresis" unicode="&#xff;" horiz-adv-x="586" 
d="M527 463l-425 -937q-9 -19 -30 -11q-20 10 -11 29l207 456l-210 463q-8 20 11 29t29 -11l195 -427l193 427q8 19 30 11q20 -10 11 -29zM320 746q0 25 14.5 42.5t35.5 17.5t36 -17.5t15 -42.5t-15 -42t-36 -17t-35.5 17t-14.5 42zM165 746q0 25 14.5 42.5t35.5 17.5
t36 -17.5t15 -42.5t-15 -42t-36 -17t-35.5 17t-14.5 42z" />
    <glyph glyph-name="udieresis" unicode="&#xfc;" 
d="M95 236q0 -106 44 -161q41 -53 121 -53t122 53q44 55 44 161v236q0 23 22 23q23 0 23 -23v-236v-236q0 -22 -23 -22q-22 0 -22 22v60q-2 -4 -9 -13q-55 -69 -157 -69q-100 0 -156 69q-54 67 -54 189v236q0 23 22 23q23 0 23 -23v-236zM287 746q0 25 14.5 42.5t35.5 17.5
t36 -17.5t15 -42.5t-15 -42t-36 -17t-35.5 17t-14.5 42zM132 746q0 25 14.5 42.5t35.5 17.5t36 -17.5t15 -42.5t-15 -42t-36 -17t-35.5 17t-14.5 42z" />
    <glyph glyph-name="grave" unicode="`" horiz-adv-x="300" 
d="M56 777q-19 11 -8 31q12 19 32 7l165 -99q19 -12 8 -30q-12 -20 -31 -9l-166 100v0z" />
    <glyph glyph-name="acute" unicode="&#xb4;" horiz-adv-x="300" 
d="M245 777l-166 -100q-19 -11 -31 9q-11 18 8 30l165 99q20 12 32 -7q11 -20 -8 -31z" />
    <glyph glyph-name="ugrave" unicode="&#xf9;" 
d="M95 236q0 -106 44 -161q41 -53 121 -53t122 53q44 55 44 161v236q0 23 22 23q23 0 23 -23v-236v-236q0 -22 -23 -22q-22 0 -22 22v60q-2 -4 -9 -13q-55 -69 -157 -69q-100 0 -156 69q-54 67 -54 189v236q0 23 22 23q23 0 23 -23v-236zM166 777q-19 11 -8 31q12 19 32 7
l165 -99q19 -12 8 -30q-12 -20 -31 -9l-166 100v0z" />
    <glyph glyph-name="uacute" unicode="&#xfa;" 
d="M95 236q0 -106 44 -161q41 -53 121 -53t122 53q44 55 44 161v236q0 23 22 23q23 0 23 -23v-236v-236q0 -22 -23 -22q-22 0 -22 22v60q-2 -4 -9 -13q-55 -69 -157 -69q-100 0 -156 69q-54 67 -54 189v236q0 23 22 23q23 0 23 -23v-236zM355 777l-166 -100q-19 -11 -31 9
q-11 18 8 30l165 99q20 12 32 -7q11 -20 -8 -31z" />
    <glyph glyph-name="ellipsis" unicode="&#x2026;" horiz-adv-x="606" 
d="M52 41q0 25 14.5 42.5t35.5 17.5t36 -17.5t15 -42.5t-15 -42t-36 -17t-35.5 17t-14.5 42zM254 41q0 25 14.5 42.5t35.5 17.5t36 -17.5t15 -42.5t-15 -42t-36 -17t-35.5 17t-14.5 42zM456 41q0 25 14.5 42.5t35.5 17.5t36 -17.5t15 -42.5t-15 -42t-36 -17t-35.5 17
t-14.5 42z" />
    <glyph glyph-name="circumflex" unicode="&#x2c6;" horiz-adv-x="323" 
d="M56 705l114 88l112 -87q18 -14 5 -32q-15 -15 -30 -3l-87 67l-86 -68q-17 -12 -32 3q-13 18 4 32z" />
    <glyph glyph-name="ucircumflex" unicode="&#xfb;" 
d="M95 236q0 -106 44 -161q41 -53 121 -53t122 53q44 55 44 161v236q0 23 22 23q23 0 23 -23v-236v-236q0 -22 -23 -22q-22 0 -22 22v60q-2 -4 -9 -13q-55 -69 -157 -69q-100 0 -156 69q-54 67 -54 189v236q0 23 22 23q23 0 23 -23v-236zM147 705l114 88l112 -87
q18 -14 5 -32q-15 -15 -30 -3l-87 67l-86 -68q-17 -12 -32 3q-13 18 4 32z" />
    <glyph glyph-name="yacute" unicode="&#xfd;" horiz-adv-x="586" 
d="M527 463l-425 -937q-9 -19 -30 -11q-20 10 -11 29l207 456l-210 463q-8 20 11 29t29 -11l195 -427l193 427q8 19 30 11q20 -10 11 -29zM387 777l-166 -100q-19 -11 -31 9q-11 18 8 30l165 99q20 12 32 -7q11 -20 -8 -31z" />
    <glyph glyph-name="slash" unicode="/" horiz-adv-x="540" 
d="M520 968l-462 -954q-9 -20 -30 -10q-20 9 -10 29l461 955q10 20 30 10t11 -30z" />
    <glyph glyph-name="oslash" unicode="&#xf8;" horiz-adv-x="522" 
d="M104 425q56 70 156 70q96 0 152 -64l56 58q16 15 32 0q15 -16 0 -32l-63 -64q34 -63 34 -157q0 -121 -54 -189q-55 -69 -157 -69q-100 0 -156 69l-2 2l-49 -50q-15 -16 -32 0q-16 15 0 31l57 58q-28 60 -28 148q0 122 54 189zM139 75q41 -53 121 -53t122 53q44 55 44 161
q0 73 -22 123l-271 -277q3 -4 6 -7zM260 450q-80 0 -121 -52q-44 -57 -44 -162q0 -67 17 -113l269 276q-42 51 -121 51z" />
    <glyph glyph-name="odieresis" unicode="&#xf6;" horiz-adv-x="522" 
d="M260 450q-80 0 -121 -52q-44 -57 -44 -162q0 -106 44 -161q41 -53 121 -53t122 53q44 55 44 161q0 105 -44 162q-42 52 -122 52zM104 425q56 70 156 70q101 0 157 -70q54 -69 54 -189q0 -121 -54 -189q-55 -69 -157 -69q-100 0 -156 69q-54 67 -54 189t54 189zM288 746
q0 25 14.5 42.5t35.5 17.5t36 -17.5t15 -42.5t-15 -42t-36 -17t-35.5 17t-14.5 42zM133 746q0 25 14.5 42.5t35.5 17.5t36 -17.5t15 -42.5t-15 -42t-36 -17t-35.5 17t-14.5 42z" />
    <glyph glyph-name="ocircumflex" unicode="&#xf4;" horiz-adv-x="522" 
d="M260 450q-80 0 -121 -52q-44 -57 -44 -162q0 -106 44 -161q41 -53 121 -53t122 53q44 55 44 161q0 105 -44 162q-42 52 -122 52zM104 425q56 70 156 70q101 0 157 -70q54 -69 54 -189q0 -121 -54 -189q-55 -69 -157 -69q-100 0 -156 69q-54 67 -54 189t54 189zM147 705
l114 88l112 -87q18 -14 5 -32q-15 -15 -30 -3l-87 67l-86 -68q-17 -12 -32 3q-13 18 4 32z" />
    <glyph glyph-name="oacute" unicode="&#xf3;" horiz-adv-x="522" 
d="M260 450q-80 0 -121 -52q-44 -57 -44 -162q0 -106 44 -161q41 -53 121 -53t122 53q44 55 44 161q0 105 -44 162q-42 52 -122 52zM104 425q56 70 156 70q101 0 157 -70q54 -69 54 -189q0 -121 -54 -189q-55 -69 -157 -69q-100 0 -156 69q-54 67 -54 189t54 189zM355 777
l-166 -100q-19 -11 -31 9q-11 18 8 30l165 99q20 12 32 -7q11 -20 -8 -31z" />
    <glyph glyph-name="ograve" unicode="&#xf2;" horiz-adv-x="522" 
d="M260 450q-80 0 -121 -52q-44 -57 -44 -162q0 -106 44 -161q41 -53 121 -53t122 53q44 55 44 161q0 105 -44 162q-42 52 -122 52zM104 425q56 70 156 70q101 0 157 -70q54 -69 54 -189q0 -121 -54 -189q-55 -69 -157 -69q-100 0 -156 69q-54 67 -54 189t54 189zM166 777
q-19 11 -8 31q12 19 32 7l165 -99q19 -12 8 -30q-12 -20 -31 -9l-166 100v0z" />
    <glyph glyph-name="idieresis" unicode="&#xef;" horiz-adv-x="145" 
d="M95 472v-472q0 -22 -23 -22q-22 0 -22 22v472q0 23 22 23q23 0 23 -23zM100 746q0 25 14.5 42.5t35.5 17.5t36 -17.5t15 -42.5t-15 -42t-36 -17t-35.5 17t-14.5 42zM-55 746q0 25 14.5 42.5t35.5 17.5t36 -17.5t15 -42.5t-15 -42t-36 -17t-35.5 17t-14.5 42z" />
    <glyph glyph-name="icircumflex" unicode="&#xee;" horiz-adv-x="145" 
d="M95 472v-472q0 -22 -23 -22q-22 0 -22 22v472q0 23 22 23q23 0 23 -23zM-41 705l114 88l112 -87q18 -14 5 -32q-15 -15 -30 -3l-87 67l-86 -68q-17 -12 -32 3q-13 18 4 32z" />
    <glyph glyph-name="iacute" unicode="&#xed;" horiz-adv-x="145" 
d="M95 472v-472q0 -22 -23 -22q-22 0 -22 22v472q0 23 22 23q23 0 23 -23zM167 777l-166 -100q-19 -11 -31 9q-11 18 8 30l165 99q20 12 32 -7q11 -20 -8 -31z" />
    <glyph glyph-name="igrave" unicode="&#xec;" horiz-adv-x="145" 
d="M95 472v-472q0 -22 -23 -22q-22 0 -22 22v472q0 23 22 23q23 0 23 -23zM-22 777q-19 11 -8 31q12 19 32 7l165 -99q19 -12 8 -30q-12 -20 -31 -9l-166 100v0z" />
    <glyph glyph-name="edieresis" unicode="&#xeb;" horiz-adv-x="472" 
d="M91 398q-39 -50 -44 -140h331q-6 90 -44 140q-42 52 -122 52t-121 -52zM402 106q-26 -64 -73 -96q-49 -32 -117 -32q-100 0 -156 69q-32 39 -43 89.5t-11 99.5q0 122 54 189q56 70 156 70q101 0 157 -70q54 -69 54 -189q0 -22 -23 -22h-353q5 -90 44 -139q41 -53 121 -53
q55 0 92 25t56 75q8 21 29 12q20 -7 13 -28zM263 746q0 25 14.5 42.5t35.5 17.5t36 -17.5t15 -42.5t-15 -42t-36 -17t-35.5 17t-14.5 42zM108 746q0 25 14.5 42.5t35.5 17.5t36 -17.5t15 -42.5t-15 -42t-36 -17t-35.5 17t-14.5 42z" />
    <glyph glyph-name="ecircumflex" unicode="&#xea;" horiz-adv-x="472" 
d="M91 398q-39 -50 -44 -140h331q-6 90 -44 140q-42 52 -122 52t-121 -52zM402 106q-26 -64 -73 -96q-49 -32 -117 -32q-100 0 -156 69q-32 39 -43 89.5t-11 99.5q0 122 54 189q56 70 156 70q101 0 157 -70q54 -69 54 -189q0 -22 -23 -22h-353q5 -90 44 -139q41 -53 121 -53
q55 0 92 25t56 75q8 21 29 12q20 -7 13 -28zM122 705l114 88l112 -87q18 -14 5 -32q-15 -15 -30 -3l-87 67l-86 -68q-17 -12 -32 3q-13 18 4 32z" />
    <glyph glyph-name="eacute" unicode="&#xe9;" horiz-adv-x="472" 
d="M91 398q-39 -50 -44 -140h331q-6 90 -44 140q-42 52 -122 52t-121 -52zM402 106q-26 -64 -73 -96q-49 -32 -117 -32q-100 0 -156 69q-32 39 -43 89.5t-11 99.5q0 122 54 189q56 70 156 70q101 0 157 -70q54 -69 54 -189q0 -22 -23 -22h-353q5 -90 44 -139q41 -53 121 -53
q55 0 92 25t56 75q8 21 29 12q20 -7 13 -28zM330 777l-166 -100q-19 -11 -31 9q-11 18 8 30l165 99q20 12 32 -7q11 -20 -8 -31z" />
    <glyph glyph-name="egrave" unicode="&#xe8;" horiz-adv-x="472" 
d="M91 398q-39 -50 -44 -140h331q-6 90 -44 140q-42 52 -122 52t-121 -52zM402 106q-26 -64 -73 -96q-49 -32 -117 -32q-100 0 -156 69q-32 39 -43 89.5t-11 99.5q0 122 54 189q56 70 156 70q101 0 157 -70q54 -69 54 -189q0 -22 -23 -22h-353q5 -90 44 -139q41 -53 121 -53
q55 0 92 25t56 75q8 21 29 12q20 -7 13 -28zM141 777q-19 11 -8 31q12 19 32 7l165 -99q19 -12 8 -30q-12 -20 -31 -9l-166 100v0z" />
    <glyph glyph-name="adieresis" unicode="&#xe4;" 
d="M471 472v-236v-236q0 -22 -23 -22q-22 0 -22 22v60q-2 -4 -9 -13q-55 -69 -157 -69q-100 0 -156 69q-54 67 -54 189t54 189q56 70 156 70q101 0 157 -70q7 -8 9 -12v59q0 23 22 23q23 0 23 -23zM382 398q-42 52 -122 52t-121 -52q-44 -57 -44 -162q0 -106 44 -161
q41 -53 121 -53t122 53q44 55 44 161q0 105 -44 162zM287 746q0 25 14.5 42.5t35.5 17.5t36 -17.5t15 -42.5t-15 -42t-36 -17t-35.5 17t-14.5 42zM132 746q0 25 14.5 42.5t35.5 17.5t36 -17.5t15 -42.5t-15 -42t-36 -17t-35.5 17t-14.5 42z" />
    <glyph glyph-name="acircumflex" unicode="&#xe2;" 
d="M471 472v-236v-236q0 -22 -23 -22q-22 0 -22 22v60q-2 -4 -9 -13q-55 -69 -157 -69q-100 0 -156 69q-54 67 -54 189t54 189q56 70 156 70q101 0 157 -70q7 -8 9 -12v59q0 23 22 23q23 0 23 -23zM382 398q-42 52 -122 52t-121 -52q-44 -57 -44 -162q0 -106 44 -161
q41 -53 121 -53t122 53q44 55 44 161q0 105 -44 162zM147 705l114 88l112 -87q18 -14 5 -32q-15 -15 -30 -3l-87 67l-86 -68q-17 -12 -32 3q-13 18 4 32z" />
    <glyph glyph-name="aacute" unicode="&#xe1;" 
d="M471 472v-236v-236q0 -22 -23 -22q-22 0 -22 22v60q-2 -4 -9 -13q-55 -69 -157 -69q-100 0 -156 69q-54 67 -54 189t54 189q56 70 156 70q101 0 157 -70q7 -8 9 -12v59q0 23 22 23q23 0 23 -23zM382 398q-42 52 -122 52t-121 -52q-44 -57 -44 -162q0 -106 44 -161
q41 -53 121 -53t122 53q44 55 44 161q0 105 -44 162zM355 777l-166 -100q-19 -11 -31 9q-11 18 8 30l165 99q20 12 32 -7q11 -20 -8 -31z" />
    <glyph glyph-name="agrave" unicode="&#xe0;" 
d="M471 472v-236v-236q0 -22 -23 -22q-22 0 -22 22v60q-2 -4 -9 -13q-55 -69 -157 -69q-100 0 -156 69q-54 67 -54 189t54 189q56 70 156 70q101 0 157 -70q7 -8 9 -12v59q0 23 22 23q23 0 23 -23zM382 398q-42 52 -122 52t-121 -52q-44 -57 -44 -162q0 -106 44 -161
q41 -53 121 -53t122 53q44 55 44 161q0 105 -44 162zM166 777q-19 11 -8 31q12 19 32 7l165 -99q19 -12 8 -30q-12 -20 -31 -9l-166 100v0z" />
    <glyph glyph-name="Udieresis" unicode="&#xdc;" horiz-adv-x="722" 
d="M672 394q0 -90 -19 -169.5t-61 -135.5q-81 -111 -231 -111q-151 0 -231 111q-43 56 -61.5 135.5t-18.5 169.5v585q0 22 22 22q23 0 23 -22v-585q0 -182 70 -279q68 -93 196 -93q126 0 195 93q72 97 72 279v585q0 22 21 22q23 0 23 -22v-585zM388 1246q0 25 14.5 42.5
t35.5 17.5t36 -17.5t15 -42.5t-15 -42t-36 -17t-35.5 17t-14.5 42zM233 1246q0 25 14.5 42.5t35.5 17.5t36 -17.5t15 -42.5t-15 -42t-36 -17t-35.5 17t-14.5 42z" />
    <glyph glyph-name="Yacute" unicode="&#xdd;" horiz-adv-x="639" 
d="M98 989l220 -450l221 450q11 19 30 9q20 -9 10 -29l-238 -484v-485q0 -22 -23 -22q-22 0 -22 22v485l-238 484q-8 20 10 29q19 10 30 -9zM414 1277l-166 -100q-19 -11 -31 9q-11 18 8 30l165 99q20 12 32 -7q11 -20 -8 -31z" />
    <glyph glyph-name="Ucircumflex" unicode="&#xdb;" horiz-adv-x="722" 
d="M672 394q0 -90 -19 -169.5t-61 -135.5q-81 -111 -231 -111q-151 0 -231 111q-43 56 -61.5 135.5t-18.5 169.5v585q0 22 22 22q23 0 23 -22v-585q0 -182 70 -279q68 -93 196 -93q126 0 195 93q72 97 72 279v585q0 22 21 22q23 0 23 -22v-585zM247 1205l114 88l112 -87
q18 -14 5 -32q-15 -15 -30 -3l-87 67l-86 -68q-17 -12 -32 3q-13 18 4 32z" />
    <glyph glyph-name="Uacute" unicode="&#xda;" horiz-adv-x="722" 
d="M672 394q0 -90 -19 -169.5t-61 -135.5q-81 -111 -231 -111q-151 0 -231 111q-43 56 -61.5 135.5t-18.5 169.5v585q0 22 22 22q23 0 23 -22v-585q0 -182 70 -279q68 -93 196 -93q126 0 195 93q72 97 72 279v585q0 22 21 22q23 0 23 -22v-585zM455 1277l-166 -100
q-19 -11 -31 9q-11 18 8 30l165 99q20 12 32 -7q11 -20 -8 -31z" />
    <glyph glyph-name="Ugrave" unicode="&#xd9;" horiz-adv-x="722" 
d="M672 394q0 -90 -19 -169.5t-61 -135.5q-81 -111 -231 -111q-151 0 -231 111q-43 56 -61.5 135.5t-18.5 169.5v585q0 22 22 22q23 0 23 -22v-585q0 -182 70 -279q68 -93 196 -93q126 0 195 93q72 97 72 279v585q0 22 21 22q23 0 23 -22v-585zM266 1277q-19 11 -8 31
q12 19 32 7l165 -99q19 -12 8 -30q-12 -20 -31 -9l-166 100v0z" />
    <glyph glyph-name="Oslash" unicode="&#xd8;" horiz-adv-x="722" 
d="M361 1001q151 0 233 -137q40 -71 59 -167.5t19 -206.5q0 -112 -19 -209t-59 -166q-83 -137 -233 -137q-152 0 -232 137q-42 69 -60.5 166t-18.5 209q0 110 18.5 206.5t60.5 167.5q80 137 232 137zM555 842q-68 114 -194 114q-127 0 -194 -114q-38 -65 -55 -156.5
t-17 -195.5q0 -107 17 -197.5t55 -154.5q67 -116 194 -116q126 0 194 116q37 64 55 154.5t18 197.5q0 104 -18 195.5t-55 156.5zM612 968l-462 -954q-9 -20 -30 -10q-20 9 -10 29l461 955q10 20 30 10t11 -30z" />
    <glyph glyph-name="Odieresis" unicode="&#xd6;" horiz-adv-x="722" 
d="M361 1001q151 0 233 -137q40 -71 59 -167.5t19 -206.5q0 -112 -19 -209t-59 -166q-83 -137 -233 -137q-152 0 -232 137q-42 69 -60.5 166t-18.5 209q0 110 18.5 206.5t60.5 167.5q80 137 232 137zM555 842q-68 114 -194 114q-127 0 -194 -114q-38 -65 -55 -156.5
t-17 -195.5q0 -107 17 -197.5t55 -154.5q67 -116 194 -116q126 0 194 116q37 64 55 154.5t18 197.5q0 104 -18 195.5t-55 156.5zM388 1246q0 25 14.5 42.5t35.5 17.5t36 -17.5t15 -42.5t-15 -42t-36 -17t-35.5 17t-14.5 42zM233 1246q0 25 14.5 42.5t35.5 17.5t36 -17.5
t15 -42.5t-15 -42t-36 -17t-35.5 17t-14.5 42z" />
    <glyph glyph-name="Ocircumflex" unicode="&#xd4;" horiz-adv-x="722" 
d="M361 1001q151 0 233 -137q40 -71 59 -167.5t19 -206.5q0 -112 -19 -209t-59 -166q-83 -137 -233 -137q-152 0 -232 137q-42 69 -60.5 166t-18.5 209q0 110 18.5 206.5t60.5 167.5q80 137 232 137zM555 842q-68 114 -194 114q-127 0 -194 -114q-38 -65 -55 -156.5
t-17 -195.5q0 -107 17 -197.5t55 -154.5q67 -116 194 -116q126 0 194 116q37 64 55 154.5t18 197.5q0 104 -18 195.5t-55 156.5zM247 1205l114 88l112 -87q18 -14 5 -32q-15 -15 -30 -3l-87 67l-86 -68q-17 -12 -32 3q-13 18 4 32z" />
    <glyph glyph-name="Oacute" unicode="&#xd3;" horiz-adv-x="722" 
d="M361 1001q151 0 233 -137q40 -71 59 -167.5t19 -206.5q0 -112 -19 -209t-59 -166q-83 -137 -233 -137q-152 0 -232 137q-42 69 -60.5 166t-18.5 209q0 110 18.5 206.5t60.5 167.5q80 137 232 137zM555 842q-68 114 -194 114q-127 0 -194 -114q-38 -65 -55 -156.5
t-17 -195.5q0 -107 17 -197.5t55 -154.5q67 -116 194 -116q126 0 194 116q37 64 55 154.5t18 197.5q0 104 -18 195.5t-55 156.5zM455 1277l-166 -100q-19 -11 -31 9q-11 18 8 30l165 99q20 12 32 -7q11 -20 -8 -31z" />
    <glyph glyph-name="Ograve" unicode="&#xd2;" horiz-adv-x="722" 
d="M361 1001q151 0 233 -137q40 -71 59 -167.5t19 -206.5q0 -112 -19 -209t-59 -166q-83 -137 -233 -137q-152 0 -232 137q-42 69 -60.5 166t-18.5 209q0 110 18.5 206.5t60.5 167.5q80 137 232 137zM555 842q-68 114 -194 114q-127 0 -194 -114q-38 -65 -55 -156.5
t-17 -195.5q0 -107 17 -197.5t55 -154.5q67 -116 194 -116q126 0 194 116q37 64 55 154.5t18 197.5q0 104 -18 195.5t-55 156.5zM266 1277q-19 11 -8 31q12 19 32 7l165 -99q19 -12 8 -30q-12 -20 -31 -9l-166 100v0z" />
    <glyph glyph-name="Idieresis" unicode="&#xcf;" horiz-adv-x="427" 
d="M72 22h119v934h-119q-22 0 -22 23q0 22 22 22h142h141q22 0 22 -22q0 -23 -22 -23h-119v-934h119q22 0 22 -22t-22 -22h-141v0v0h-142q-22 0 -22 22t22 22zM240 1246q0 25 14.5 42.5t35.5 17.5t36 -17.5t15 -42.5t-15 -42t-36 -17t-35.5 17t-14.5 42zM85 1246
q0 25 14.5 42.5t35.5 17.5t36 -17.5t15 -42.5t-15 -42t-36 -17t-35.5 17t-14.5 42z" />
    <glyph glyph-name="Icircumflex" unicode="&#xce;" horiz-adv-x="427" 
d="M72 22h119v934h-119q-22 0 -22 23q0 22 22 22h142h141q22 0 22 -22q0 -23 -22 -23h-119v-934h119q22 0 22 -22t-22 -22h-141v0v0h-142q-22 0 -22 22t22 22zM100 1205l114 88l112 -87q18 -14 5 -32q-15 -15 -30 -3l-87 67l-86 -68q-17 -12 -32 3q-13 18 4 32z" />
    <glyph glyph-name="Iacute" unicode="&#xcd;" horiz-adv-x="427" 
d="M72 22h119v934h-119q-22 0 -22 23q0 22 22 22h142h141q22 0 22 -22q0 -23 -22 -23h-119v-934h119q22 0 22 -22t-22 -22h-141v0v0h-142q-22 0 -22 22t22 22zM308 1277l-166 -100q-19 -11 -31 9q-11 18 8 30l165 99q20 12 32 -7q11 -20 -8 -31z" />
    <glyph glyph-name="Igrave" unicode="&#xcc;" horiz-adv-x="427" 
d="M72 22h119v934h-119q-22 0 -22 23q0 22 22 22h142h141q22 0 22 -22q0 -23 -22 -23h-119v-934h119q22 0 22 -22t-22 -22h-141v0v0h-142q-22 0 -22 22t22 22zM119 1277q-19 11 -8 31q12 19 32 7l165 -99q19 -12 8 -30q-12 -20 -31 -9l-166 100v0z" />
    <glyph glyph-name="Edieresis" unicode="&#xcb;" horiz-adv-x="549" 
d="M95 450v-428h382q22 0 22 -22t-22 -22h-405q-22 0 -22 22v472v507q0 22 22 22h405q22 0 22 -22q0 -23 -22 -23h-382v-461h382q22 0 22 -23q0 -22 -22 -22h-382zM301 1246q0 25 14.5 42.5t35.5 17.5t36 -17.5t15 -42.5t-15 -42t-36 -17t-35.5 17t-14.5 42zM146 1246
q0 25 14.5 42.5t35.5 17.5t36 -17.5t15 -42.5t-15 -42t-36 -17t-35.5 17t-14.5 42z" />
    <glyph glyph-name="Ecircumflex" unicode="&#xca;" horiz-adv-x="549" 
d="M95 450v-428h382q22 0 22 -22t-22 -22h-405q-22 0 -22 22v472v507q0 22 22 22h405q22 0 22 -22q0 -23 -22 -23h-382v-461h382q22 0 22 -23q0 -22 -22 -22h-382zM161 1205l114 88l112 -87q18 -14 5 -32q-15 -15 -30 -3l-87 67l-86 -68q-17 -12 -32 3q-13 18 4 32z" />
    <glyph glyph-name="Eacute" unicode="&#xc9;" horiz-adv-x="549" 
d="M95 450v-428h382q22 0 22 -22t-22 -22h-405q-22 0 -22 22v472v507q0 22 22 22h405q22 0 22 -22q0 -23 -22 -23h-382v-461h382q22 0 22 -23q0 -22 -22 -22h-382zM369 1277l-166 -100q-19 -11 -31 9q-11 18 8 30l165 99q20 12 32 -7q11 -20 -8 -31z" />
    <glyph glyph-name="Egrave" unicode="&#xc8;" horiz-adv-x="549" 
d="M95 450v-428h382q22 0 22 -22t-22 -22h-405q-22 0 -22 22v472v507q0 22 22 22h405q22 0 22 -22q0 -23 -22 -23h-382v-461h382q22 0 22 -23q0 -22 -22 -22h-382zM180 1277q-19 11 -8 31q12 19 32 7l165 -99q19 -12 8 -30q-12 -20 -31 -9l-166 100v0z" />
    <glyph glyph-name="AE" unicode="&#xc6;" horiz-adv-x="912" 
d="M21 -15q-20 9 -10 29l468 974q7 15 21 13h2h355q22 0 22 -22q0 -23 -22 -23h-332v-461h332q22 0 22 -23q0 -22 -22 -22h-332v-428h332q22 0 22 -22t-22 -22h-355q-22 0 -22 22v450h-211l-218 -455q-9 -20 -30 -10zM480 495v390l-189 -390h189z" />
    <glyph glyph-name="Adieresis" unicode="&#xc4;" horiz-adv-x="790" 
d="M245 450l-149 -456q-6 -21 -28 -14q-18 6 -14 27l318 978v0v1v0q4 10 15 14q20 6 28 -14l318 -979q7 -20 -14 -27t-29 14l-148 456h-297zM393 906l-133 -411h268zM422 1246q0 25 14.5 42.5t35.5 17.5t36 -17.5t15 -42.5t-15 -42t-36 -17t-35.5 17t-14.5 42zM267 1246
q0 25 14.5 42.5t35.5 17.5t36 -17.5t15 -42.5t-15 -42t-36 -17t-35.5 17t-14.5 42z" />
    <glyph glyph-name="Acircumflex" unicode="&#xc2;" horiz-adv-x="790" 
d="M245 450l-149 -456q-6 -21 -28 -14q-18 6 -14 27l318 978v0v1v0q4 10 15 14q20 6 28 -14l318 -979q7 -20 -14 -27t-29 14l-148 456h-297zM393 906l-133 -411h268zM281 1205l114 88l112 -87q18 -14 5 -32q-15 -15 -30 -3l-87 67l-86 -68q-17 -12 -32 3q-13 18 4 32z" />
    <glyph glyph-name="Aacute" unicode="&#xc1;" horiz-adv-x="790" 
d="M245 450l-149 -456q-6 -21 -28 -14q-18 6 -14 27l318 978v0v1v0q4 10 15 14q20 6 28 -14l318 -979q7 -20 -14 -27t-29 14l-148 456h-297zM393 906l-133 -411h268zM489 1277l-166 -100q-19 -11 -31 9q-11 18 8 30l165 99q20 12 32 -7q11 -20 -8 -31z" />
    <glyph glyph-name="Agrave" unicode="&#xc0;" horiz-adv-x="790" 
d="M245 450l-149 -456q-6 -21 -28 -14q-18 6 -14 27l318 978v0v1v0q4 10 15 14q20 6 28 -14l318 -979q7 -20 -14 -27t-29 14l-148 456h-297zM393 906l-133 -411h268zM300 1277q-19 11 -8 31q12 19 32 7l165 -99q19 -12 8 -30q-12 -20 -31 -9l-166 100v0z" />
    <glyph glyph-name="zero" unicode="0" horiz-adv-x="673" 
d="M336 -22q-123 0 -205 155q-81 147 -81 357q0 208 81 356q82 155 205 155t206 -155q81 -148 81 -356q0 -210 -81 -357q-83 -155 -206 -155zM170 154q70 -132 166 -132t167 132q75 136 75 336q0 197 -75 335q-71 131 -167 131t-166 -131q-75 -140 -75 -335q0 -198 75 -336z
" />
    <glyph glyph-name="one" unicode="1" horiz-adv-x="145" 
d="M95 979v-979q0 -22 -23 -22q-22 0 -22 22v979q0 22 22 22q23 0 23 -22z" />
    <glyph glyph-name="two" unicode="2" horiz-adv-x="637" 
d="M50 662q0 139 77 238q78 101 191 101t192 -101q77 -101 77 -238q0 -78 -25 -146q-28 -70 -73 -117v-0.5v-0.5l-365 -376h441q22 0 22 -22t-22 -22h-493q-22 0 -22 22q0 9 7 17l399 412v0v0q42 44 64 103q23 61 23 130q0 122 -68 210q-65 84 -157 84t-156 -84
q-68 -88 -68 -210q0 -23 -22 -23t-22 23z" />
    <glyph glyph-name="three" unicode="3" horiz-adv-x="637" 
d="M50 734q0 111 78 189q79 78 190 78t191 -78q78 -78 78 -189q0 -112 -78 -189q-36 -35 -83 -55q49 -24 83 -57q78 -78 78 -188q0 -111 -78 -189q-79 -78 -191 -78t-190 78t-78 189q0 22 22 22t22 -22q0 -92 66 -158q66 -65 158 -65q93 0 159 65q66 66 66 158t-66 157
t-159 65q-22 0 -22 23q0 22 22 22q93 0 159 65t66 157t-66 157t-159 65q-92 0 -158 -65t-66 -157q0 -22 -22 -22t-22 22z" />
    <glyph glyph-name="four" unicode="4" horiz-adv-x="634" 
d="M358 979v-484h204q22 0 22 -23q0 -22 -22 -22h-204v-450q0 -22 -21 -22q-23 0 -23 22v450h-239v0v0h-0.5h-0.5q-24 1 -20 24l21 -2l-21 2l35 506q2 22 24 21q21 -2 20 -24l-34 -482h215v484q0 22 23 22q21 0 21 -22z" />
    <glyph glyph-name="five" unicode="5" horiz-adv-x="637" 
d="M94 317q0 -124 68 -211q65 -84 156 -84t157 84q68 87 68 211q0 125 -71 214q-62 82 -154 82q-59 0 -110 -39q-52 -40 -81 -105q-1 -1 -1.5 -2l-0.5 -1q-1 0 -1.5 -1.5l-0.5 -1.5q-9 -21 -29 -11q-15 6 -13 23v0l40 505q0 22 22 22h379q22 0 22 -23q0 -22 -22 -22h-359
l-30 -393q20 24 48 45q63 48 137 48q113 0 190 -98q39 -51 59 -116t20 -126q0 -139 -77 -237q-78 -102 -192 -102t-191 102q-77 97 -77 237q0 22 22 22t22 -22z" />
    <glyph glyph-name="six" unicode="6" horiz-adv-x="637" 
d="M318 613q-91 0 -156 -85q-68 -88 -68 -211q0 -124 68 -211q65 -84 156 -84t157 84q68 87 68 211q0 123 -68 211q-66 85 -157 85zM371 969l-170 -346q55 34 117 34q114 0 192 -102q77 -100 77 -238q0 -139 -77 -237q-78 -102 -192 -102t-191 102q-77 97 -77 237
q0 101 43 185l238 487q9 19 30 9q18 -9 10 -29z" />
    <glyph glyph-name="seven" unicode="7" horiz-adv-x="577" 
d="M73 1001h431q23 0 23 -22q0 -5 -1 -7l-257 -977q-7 -22 -28 -16q-22 7 -16 27l251 950h-403q-23 0 -23 23q0 22 23 22z" />
    <glyph glyph-name="eight" unicode="8" horiz-adv-x="637" 
d="M160 402q-66 -65 -66 -157t66 -158q66 -65 158 -65q93 0 159 65q66 66 66 158t-66 157q-75 69 -161 66.5t-156 -66.5zM211 490q-48 20 -83 55q-78 77 -78 189q0 111 78 189q79 78 190 78t191 -78q78 -78 78 -189q0 -112 -78 -189q-36 -35 -83 -55q49 -24 83 -57
q78 -78 78 -188q0 -111 -78 -189q-79 -78 -191 -78t-190 78t-78 189q0 110 78 188q33 33 83 57zM160 577q65 -65 158 -65t159 65t66 157t-66 157t-159 65q-92 0 -158 -65t-66 -157t66 -157z" />
    <glyph glyph-name="nine" unicode="9" horiz-adv-x="637" 
d="M318 367q92 0 157 84q68 87 68 211q0 122 -68 210q-65 84 -157 84t-156 -84q-68 -88 -68 -210q0 -124 68 -211q64 -84 156 -84zM266 10l170 345q-56 -33 -118 -33q-113 0 -191 101q-77 98 -77 239q0 139 77 238q78 101 191 101t192 -101q77 -101 77 -238q0 -103 -43 -186
l-238 -485q-9 -19 -29 -10q-22 9 -11 29z" />
    <glyph glyph-name="at" unicode="@" horiz-adv-x="561" 
d="M385 -90q-39 -25 -80 -37q-44 -12 -88 -12q-135 0 -224 93q-94 91 -94 224q0 132 94 225q91 93 224 93h3.5h7.5v0h0.5h1.5q124 -5 214 -93q91 -90 91 -215v-4.5v-5.5q-1 -28 -8 -69t-25 -74q-31 -58 -85 -58q-82 0 -101 60q-48 -60 -127 -60q-80 0 -124 54
q-42 54 -42 147q0 83 37.5 143t128.5 60q76 0 121 -52v43q0 21 22 21q23 0 23 -21v-194v-67q-1 -54 14 -72t47 -18q27 0 46 35q15 27 21 62.5t7 60.5q1 2 1 9q0 104 -78 184q-79 75 -185 80h-1v0v0h-5.5h-4.5q-115 0 -194 -80q-79 -82 -79 -194t79 -192q79 -81 194 -81
q35 0 75 11q38 12 70 31q18 13 31 -7q11 -18 -8 -30zM189 336q-67 0 -94.5 -46.5t-27.5 -111.5q0 -78 33 -119q30 -38 89 -38t88 38q33 40 33 119q0 78 -33 120q-31 38 -88 38z" />
    <glyph glyph-name="equal" unicode="=" horiz-adv-x="540" 
d="M409 261l-282 1q-24 0 -23 24q-1 22 23 22h283q22 0 23 -24q0 -23 -24 -23zM409 426l-284 2q-23 0 -22 23q0 23 22 23h285q22 -1 23 -24q0 -24 -24 -24z" />
    <glyph glyph-name="tilde" unicode="&#x2dc;" horiz-adv-x="446" 
d="M5 654q24 32 47 56t50 33q59 19 122 -65q22 -32 47 -38q13 -4 26 -1q12 4 27 14q37 27 52 74q6 22 28 17q22 -8 16 -29q-19 -63 -68 -99q-22 -17 -44 -21q-27 -7 -51 1q-39 12 -70 55q-43 58 -71 48q-17 -5 -35.5 -25.5t-39.5 -47.5q-14 -20 -32 -5t-4 33z" />
    <glyph glyph-name="Atilde" unicode="&#xc3;" horiz-adv-x="790" 
d="M245 450l-149 -456q-6 -21 -28 -14q-18 6 -14 27l318 978v0v1v0q4 10 15 14q20 6 28 -14l318 -979q7 -20 -14 -27t-29 14l-148 456h-297zM393 906l-133 -411h268zM191 1154q24 32 47 56t50 33q59 19 122 -65q22 -32 47 -38q13 -4 26 -1q12 4 27 14q37 27 52 74
q6 22 28 17q22 -8 16 -29q-19 -63 -68 -99q-22 -17 -44 -21q-27 -7 -51 1q-39 12 -70 55q-43 58 -71 48q-17 -5 -35.5 -25.5t-39.5 -47.5q-14 -20 -32 -5t-4 33z" />
    <glyph glyph-name="ring" unicode="&#x2da;" horiz-adv-x="195" 
d="M155 716q0 24 -17 40.5t-41 16.5q-23 0 -40 -16.5t-17 -40.5q0 -23 17 -39.5t40 -16.5q24 0 41 16.5t17 39.5zM1 716q0 20 7.5 38t20.5 31.5t30.5 21t37.5 7.5t37.5 -7.5t30.5 -21t20.5 -31.5t7.5 -38q0 -41 -28 -69t-68 -28t-68 28t-28 69z" />
    <glyph glyph-name="caron" unicode="&#x2c7;" horiz-adv-x="323" 
d="M283 746l-114 -88l-112 87q-18 14 -5 32q15 15 30 3l87 -67l86 68q17 12 32 -3q13 -18 -4 -32z" />
    <glyph glyph-name="aring" unicode="&#xe5;" 
d="M321 716q0 24 -17 40.5t-41 16.5q-23 0 -40 -16.5t-17 -40.5q0 -23 17 -39.5t40 -16.5q24 0 41 16.5t17 39.5zM167 716q0 20 7.5 38t20.5 31.5t30.5 21t37.5 7.5t37.5 -7.5t30.5 -21t20.5 -31.5t7.5 -38q0 -41 -28 -69t-68 -28t-68 28t-28 69zM471 472v-236v-236
q0 -22 -23 -22q-22 0 -22 22v60q-2 -4 -9 -13q-55 -69 -157 -69q-100 0 -156 69q-54 67 -54 189t54 189q56 70 156 70q101 0 157 -70q7 -8 9 -12v59q0 23 22 23q23 0 23 -23zM382 398q-42 52 -122 52t-121 -52q-44 -57 -44 -162q0 -106 44 -161q41 -53 121 -53t122 53
q44 55 44 161q0 105 -44 162z" />
    <glyph glyph-name="atilde" unicode="&#xe3;" 
d="M471 472v-236v-236q0 -22 -23 -22q-22 0 -22 22v60q-2 -4 -9 -13q-55 -69 -157 -69q-100 0 -156 69q-54 67 -54 189t54 189q56 70 156 70q101 0 157 -70q7 -8 9 -12v59q0 23 22 23q23 0 23 -23zM382 398q-42 52 -122 52t-121 -52q-44 -57 -44 -162q0 -106 44 -161
q41 -53 121 -53t122 53q44 55 44 161q0 105 -44 162zM57 654q24 32 47 56t50 33q59 19 122 -65q22 -32 47 -38q13 -4 26 -1q12 4 27 14q37 27 52 74q6 22 28 17q22 -8 16 -29q-19 -63 -68 -99q-22 -17 -44 -21q-27 -7 -51 1q-39 12 -70 55q-43 58 -71 48q-17 -5 -35.5 -25.5
t-39.5 -47.5q-14 -20 -32 -5t-4 33z" />
    <glyph glyph-name="otilde" unicode="&#xf5;" horiz-adv-x="522" 
d="M260 450q-80 0 -121 -52q-44 -57 -44 -162q0 -106 44 -161q41 -53 121 -53t122 53q44 55 44 161q0 105 -44 162q-42 52 -122 52zM104 425q56 70 156 70q101 0 157 -70q54 -69 54 -189q0 -121 -54 -189q-55 -69 -157 -69q-100 0 -156 69q-54 67 -54 189t54 189zM57 654
q24 32 47 56t50 33q59 19 122 -65q22 -32 47 -38q13 -4 26 -1q12 4 27 14q37 27 52 74q6 22 28 17q22 -8 16 -29q-19 -63 -68 -99q-22 -17 -44 -21q-27 -7 -51 1q-39 12 -70 55q-43 58 -71 48q-17 -5 -35.5 -25.5t-39.5 -47.5q-14 -20 -32 -5t-4 33z" />
    <glyph glyph-name="ntilde" unicode="&#xf1;" 
d="M426 236q0 105 -44 162q-42 52 -122 52t-121 -52q-44 -57 -44 -162v-236q0 -22 -23 -22q-22 0 -22 22v236v236q0 23 22 23q23 0 23 -23v-59q2 4 9 12q56 70 156 70q101 0 157 -70q54 -69 54 -189v-236q0 -22 -23 -22q-22 0 -22 22v236zM57 654q24 32 47 56t50 33
q59 19 122 -65q22 -32 47 -38q13 -4 26 -1q12 4 27 14q37 27 52 74q6 22 28 17q22 -8 16 -29q-19 -63 -68 -99q-22 -17 -44 -21q-27 -7 -51 1q-39 12 -70 55q-43 58 -71 48q-17 -5 -35.5 -25.5t-39.5 -47.5q-14 -20 -32 -5t-4 33z" />
    <glyph glyph-name="Aring" unicode="&#xc5;" horiz-adv-x="790" 
d="M245 450l-149 -456q-6 -21 -28 -14q-18 6 -14 27l318 978v0v1v0q4 10 15 14q20 6 28 -14l318 -979q7 -20 -14 -27t-29 14l-148 456h-297zM393 906l-133 -411h268zM453 1216q0 24 -17 40.5t-41 16.5q-23 0 -40 -16.5t-17 -40.5q0 -23 17 -39.5t40 -16.5q24 0 41 16.5
t17 39.5zM299 1216q0 20 7.5 38t20.5 31.5t30.5 21t37.5 7.5t37.5 -7.5t30.5 -21t20.5 -31.5t7.5 -38q0 -41 -28 -69t-68 -28t-68 28t-28 69z" />
    <glyph glyph-name="Ntilde" unicode="&#xd1;" horiz-adv-x="643" 
d="M593 979v-979q0 -22 -23 -22q-14 0 -20 14l-455 894v-886q0 -22 -23 -22q-22 0 -22 22v979v0v1q0 13 12 18q20 10 30 -9l456 -896v886q0 22 22 22q23 0 23 -22zM118 1154q24 32 47 56t50 33q59 19 122 -65q22 -32 47 -38q13 -4 26 -1q12 4 27 14q37 27 52 74q6 22 28 17
q22 -8 16 -29q-19 -63 -68 -99q-22 -17 -44 -21q-27 -7 -51 1q-39 12 -70 55q-43 58 -71 48q-17 -5 -35.5 -25.5t-39.5 -47.5q-14 -20 -32 -5t-4 33z" />
    <glyph glyph-name="colon" unicode=":" horiz-adv-x="202" 
d="M52 447q0 25 14.5 42.5t35.5 17.5t36 -17.5t15 -42.5t-15 -42t-36 -17t-35.5 17t-14.5 42zM52 41q0 25 14.5 42.5t35.5 17.5t36 -17.5t15 -42.5t-15 -42t-36 -17t-35.5 17t-14.5 42z" />
    <glyph glyph-name="quoteleft" unicode="&#x2018;" horiz-adv-x="379" 
d="M221 766q11 -22 -25.5 -43.5t-53.5 3.5q-32 43 -3 119q21 60 85 155q13 19 32 6q18 -14 7 -32q-62 -90 -81 -144q-18 -50 7 -48t32 -16z" />
    <glyph glyph-name="quoteright" unicode="&#x2019;" horiz-adv-x="348" 
d="M237 954q-11 22 25.5 43.5t53.5 -3.5q33 -43 4 -119q-21 -60 -86 -154q-13 -20 -32 -7q-18 14 -6 32q61 90 80 144q19 50 -6.5 48t-32.5 16z" />
    <glyph glyph-name="quotedblleft" unicode="&#x201c;" horiz-adv-x="509" 
d="M221 766q11 -22 -25.5 -43.5t-52.5 3.5q-33 43 -4 119q21 60 85 155q14 19 32 6q18 -14 7 -32q-62 -90 -81 -144q-18 -50 7 -48t32 -16zM369 766q11 -22 -25.5 -43.5t-53.5 3.5q-32 43 -4 119q22 60 86 155q13 19 32 6q17 -14 6 -32q-61 -90 -80 -144q-19 -50 6.5 -48
t32.5 -16z" />
    <glyph glyph-name="quotedblright" unicode="&#x201d;" horiz-adv-x="479" 
d="M374 954q-10 22 26 43.5t53 -3.5q33 -43 4 -119q-21 -60 -86 -154q-13 -20 -32 -7q-18 14 -6 32q61 90 81 144q17 50 -8 48t-32 16zM226 954q-10 22 26.5 43.5t53.5 -3.5q32 -43 3 -119q-21 -60 -85 -154q-13 -20 -33 -7q-17 14 -6 32q61 90 81 144q18 50 -7 48t-33 16z
" />
    <glyph glyph-name="bullet" unicode="&#x2022;" horiz-adv-x="330" 
d="M251 466q33 -5 44 -35t9 -57q-3 -33 -23.5 -66.5t-59.5 -28.5q-35 7 -45 39.5t-4 64.5q4 28 24 58.5t55 24.5z" />
    <glyph glyph-name="endash" unicode="&#x2013;" horiz-adv-x="542" 
d="M474 334l-414 1q-24 0 -23 24q-1 22 23 22h415q21 -1 22 -25q0 -23 -23 -22z" />
    <glyph glyph-name="emdash" unicode="&#x2014;" horiz-adv-x="654" 
d="M599 334l-539 1q-24 0 -23 24q-1 22 23 22h539q22 -1 22 -25q0 -23 -22 -22z" />
    <glyph glyph-name="hyphen" unicode="-" horiz-adv-x="634" 
d="M509 334l-380 1q-24 0 -23 24q0 22 23 22h380q22 -1 22 -25q0 -23 -22 -22z" />
    <glyph glyph-name="comma" unicode="," horiz-adv-x="177" 
d="M58 83q-10 23 26 44t53 -4q33 -43 4 -119q-21 -60 -86 -155q-13 -18 -32 -5q-18 13 -6 32q61 89 81 143q18 50 -7.5 48.5t-32.5 15.5z" />
    <glyph glyph-name="semicolon" unicode=";" horiz-adv-x="177" 
d="M58 83q-10 23 26 44t53 -4q33 -43 4 -119q-21 -60 -86 -155q-13 -18 -32 -5q-18 13 -6 32q61 89 81 143q18 50 -7.5 48.5t-32.5 15.5zM52 447q0 25 14.5 42.5t35.5 17.5t36 -17.5t15 -42.5t-15 -42t-36 -17t-35.5 17t-14.5 42z" />
    <glyph glyph-name="numbersign" unicode="#" horiz-adv-x="541" 
d="M326 605l-57 -131h72l65 149q9 21 30 12q22 -9 13 -30l-57 -131h29q23 -1 23 -24q0 -24 -23 -24h-50l-51 -118h76q23 0 23 -24q0 -23 -23 -23h-95l-50 -117q-10 -22 -31 -11q-21 8 -12 29l43 100h-73l-50 -118q-9 -22 -31 -11q-21 8 -12 29l44 100h-16q-24 0 -24 24
q0 22 24 22h35l51 119l-61 1q-24 0 -23 23q-1 23 23 23h81l65 149q8 21 30 12q21 -9 12 -30zM198 308h73l50 118l-71 1z" />
    <glyph glyph-name="plus" unicode="+" horiz-adv-x="634" 
d="M509 334h-169v-166q0 -24 -24 -23q-22 0 -22 23v166l-165 1q-24 0 -23 24q0 22 23 22h165v167q1 22 25 22q23 0 22 -22l-1 -167h169q22 -1 22 -25q0 -23 -22 -22z" />
    <glyph glyph-name="asterisk" unicode="*" horiz-adv-x="369" 
d="M304 837h-81l41 -70q11 -19 -10 -31q-20 -12 -30 8l-41 71l-41 -69q-12 -21 -32 -8q-19 11 -8 31l40 68l-78 1q-24 0 -23 24q0 22 23 22h79l-39 68q-12 21 10 32q19 11 30 -9l39 -67l40 69q12 18 33 6q20 -11 8 -30l-41 -69h81q22 -1 22 -25q0 -23 -22 -22z" />
    <glyph glyph-name="backslash" unicode="\" horiz-adv-x="540" 
d="M17 968q-9 20 11 30t30 -10l461 -955q10 -20 -10 -29q-21 -10 -30 10l-462 954v0z" />
    <glyph glyph-name="underscore" unicode="_" horiz-adv-x="504" 
d="M502 -170l-501 1q-24 0 -22 24q-1 22 22 22h502q21 -1 22 -24q0 -24 -23 -23z" />
    <glyph glyph-name="OE" unicode="&#x152;" horiz-adv-x="917" 
d="M533 450v-428h301q22 0 22 -22t-22 -22h-324q-22 0 -22 22v8q-56 -30 -127 -30q-152 0 -232 137q-42 69 -60.5 166t-18.5 209q0 110 18.5 206.5t60.5 167.5q80 137 232 137q71 0 127 -31v9q0 22 22 22h324q22 0 22 -22q0 -23 -22 -23h-301v-461h301q22 0 22 -23
q0 -22 -22 -22h-301zM361 956q-127 0 -194 -114q-38 -65 -55 -156.5t-17 -195.5q0 -107 17 -197.5t55 -154.5q67 -116 194 -116q73 0 127 39v858l-1 -1q-54 38 -126 38z" />
    <glyph glyph-name="cedilla" unicode="&#xb8;" horiz-adv-x="164" 
d="M90 31q-4 -15 -6 -27q-8 -25 -13 -48q5 5 13 9q36 21 53 -4q32 -42 4 -119q-21 -59 -85 -153q-14 -19 -33 -7q-17 14 -7 32q62 90 82 145q18 49 -5 57q-27 -11 -42.5 -12t-31.5 17q-8 15 1 40t19 55q2 7 3 15h48z" />
    <glyph glyph-name="Ccedilla" unicode="&#xc7;" horiz-adv-x="684" 
d="M625 183q-39 -102 -104 -152q-68 -53 -160 -53q-152 0 -232 137q-42 69 -60.5 166t-18.5 209q0 110 18.5 206.5t60.5 167.5q80 137 232 137q92 0 160 -53q66 -52 104 -152q9 -22 -12 -29q-22 -8 -29 13q-35 89 -90 133q-55 43 -133 43q-127 0 -194 -114
q-38 -65 -55 -156.5t-17 -195.5q0 -107 17 -197.5t55 -154.5q67 -116 194 -116q77 0 133 44q56 43 90 133q7 20 29 13q21 -9 12 -29zM390 10q-4 -15 -6 -27q-8 -25 -13 -48q5 5 13 9q36 21 53 -4q32 -42 4 -119q-21 -59 -85 -153q-14 -19 -33 -7q-17 14 -7 32q62 90 82 145
q18 49 -5 57q-27 -11 -42.5 -12t-31.5 17q-8 15 1 40t19 55q2 7 3 15h48z" />
    <glyph glyph-name="Otilde" unicode="&#xd5;" horiz-adv-x="722" 
d="M361 1001q151 0 233 -137q40 -71 59 -167.5t19 -206.5q0 -112 -19 -209t-59 -166q-83 -137 -233 -137q-152 0 -232 137q-42 69 -60.5 166t-18.5 209q0 110 18.5 206.5t60.5 167.5q80 137 232 137zM555 842q-68 114 -194 114q-127 0 -194 -114q-38 -65 -55 -156.5
t-17 -195.5q0 -107 17 -197.5t55 -154.5q67 -116 194 -116q126 0 194 116q37 64 55 154.5t18 197.5q0 104 -18 195.5t-55 156.5zM157 1154q24 32 47 56t50 33q59 19 122 -65q22 -32 47 -38q13 -4 26 -1q12 4 27 14q37 27 52 74q6 22 28 17q22 -8 16 -29q-19 -63 -68 -99
q-22 -17 -44 -21q-27 -7 -51 1q-39 12 -70 55q-43 58 -71 48q-17 -5 -35.5 -25.5t-39.5 -47.5q-14 -20 -32 -5t-4 33z" />
    <glyph glyph-name="ccedilla" unicode="&#xe7;" horiz-adv-x="508" 
d="M450 106q-26 -64 -73 -96q-49 -32 -117 -32q-100 0 -156 69q-54 67 -54 189t54 189q56 70 156 70q67 0 117 -34q47 -31 73 -95q8 -22 -13 -29t-29 13q-19 49 -56 75q-37 25 -92 25q-80 0 -121 -52q-44 -57 -44 -162q0 -106 44 -161q41 -53 121 -53q55 0 92 25t56 75
q8 21 29 12q20 -7 13 -28zM294 7q-4 -15 -6 -27q-8 -25 -13 -48q5 5 13 9q36 21 53 -4q32 -42 4 -119q-21 -59 -85 -153q-14 -19 -33 -7q-17 14 -7 32q62 90 82 145q18 49 -5 57q-27 -11 -42.5 -12t-31.5 17q-8 15 1 40t19 55q2 7 3 15h48z" />
    <glyph glyph-name="multiply" unicode="&#xd7;" horiz-adv-x="417" 
d="M359 476l-119 -120l117 -117q17 -17 -1 -33q-15 -16 -31 0l-118 118l-117 -116q-17 -17 -33 1q-16 15 0 31l117 117l-118 118q-15 16 2 33q16 17 31 0l118 -118l119 119q16 15 33 -2q17 -16 0 -31z" />
    <glyph glyph-name="scaron" unicode="&#x161;" horiz-adv-x="524" 
d="M98 101q22 -39 61 -58q38 -21 96 -21q68 0 116 24q40 22 45 53q10 56 -46 82.5t-123 46.5q-76 23 -135.5 53t-47.5 102q10 52 69 83q57 29 134 29q66 0 116 -25q48 -26 78 -76q12 -20 -8 -30q-20 -11 -30 8q-22 38 -61 58t-95 20q-67 0 -114 -23q-40 -23 -45 -51
q-8 -43 40.5 -65.5t111.5 -39.5q80 -24 147 -59t53 -121q-10 -54 -69 -84q-57 -29 -136 -29q-67 0 -117 25t-79 77q-9 20 10 30t29 -9zM375 746l-114 -88l-112 87q-18 14 -5 32q15 15 30 3l87 -67l86 68q17 12 32 -3q13 -18 -4 -32z" />
    <glyph glyph-name="zcaron" unicode="&#x17e;" horiz-adv-x="509" 
d="M56 15l336 435h-320q-22 0 -22 22q0 23 22 23h365q22 0 22 -23q0 -11 -6 -15l-335 -435h319q22 0 22 -22t-22 -22h-365q-22 0 -22 22q0 7 6 15zM368 746l-114 -88l-112 87q-18 14 -5 32q15 15 30 3l87 -67l86 68q17 12 32 -3q13 -18 -4 -32z" />
    <glyph glyph-name="Ydieresis" unicode="&#x178;" horiz-adv-x="639" 
d="M98 989l220 -450l221 450q11 19 30 9q20 -9 10 -29l-238 -484v-485q0 -22 -23 -22q-22 0 -22 22v485l-238 484q-8 20 10 29q19 10 30 -9zM346 1246q0 25 14.5 42.5t35.5 17.5t36 -17.5t15 -42.5t-15 -42t-36 -17t-35.5 17t-14.5 42zM191 1246q0 25 14.5 42.5t35.5 17.5
t36 -17.5t15 -42.5t-15 -42t-36 -17t-35.5 17t-14.5 42z" />
    <glyph glyph-name="Scaron" unicode="&#x160;" horiz-adv-x="656" 
d="M98 196q33 -88 87 -131q53 -43 131 -43q94 0 158 51q61 47 70 126q15 136 -64.5 195.5t-173.5 101.5q-100 45 -178 103t-63 191q11 95 86 153q74 58 183 58q90 0 157 -51q65 -51 102 -148q6 -22 -13 -28q-21 -10 -29 12q-32 85 -88 129q-54 41 -129 41q-94 0 -155 -49
q-61 -45 -70 -122q-13 -109 56.5 -158.5t158.5 -89.5q106 -47 194 -115t71 -228q-13 -98 -87 -157q-78 -59 -186 -59q-90 1 -158 52q-66 51 -101 151q-7 21 13 28q20 8 28 -13zM441 1246l-114 -88l-112 87q-18 14 -5 32q15 15 30 3l87 -67l86 68q17 12 32 -3q13 -18 -4 -32z
" />
    <glyph glyph-name="Zcaron" unicode="&#x17d;" horiz-adv-x="625" 
d="M53 12l464 944h-445q-22 0 -22 23q0 22 22 22h481q22 0 22 -22q0 -8 -3 -12l-464 -945h445q22 0 22 -22t-22 -22h-481q-22 0 -22 22q0 7 3 12zM426 1246l-114 -88l-112 87q-18 14 -5 32q15 15 30 3l87 -67l86 68q17 12 32 -3q13 -18 -4 -32z" />
    <glyph glyph-name="divide" unicode="&#xf7;" horiz-adv-x="634" 
d="M509 334l-380 1q-24 0 -23 24q0 22 23 22h380q22 -1 22 -25q0 -23 -22 -22zM267 555q0 25 14.5 42.5t35.5 17.5t36 -17.5t15 -42.5t-15 -42t-36 -17t-35.5 17t-14.5 42zM267 149q0 25 14.5 42.5t35.5 17.5t36 -17.5t15 -42.5t-15 -42t-36 -17t-35.5 17t-14.5 42z" />
    <glyph glyph-name="Thorn" unicode="&#xde;" horiz-adv-x="577" 
d="M93 230v-230q0 -22 -23 -22q-22 0 -22 22l-1 982q0 22 23 22q22 0 22 -22v-218h147q136 0 212 -69q76 -72 76 -198q0 -128 -76 -198q-76 -69 -212 -69h-146zM93 720v-445h146q119 0 181 57t62 165t-62 165t-181 57q-2 0 -2 1h-144z" />
    <glyph glyph-name="Eth" unicode="&#xd0;" horiz-adv-x="621" 
d="M260 1001q152 0 232 -137q42 -71 60.5 -167.5t18.5 -206.5q0 -112 -18.5 -209t-60.5 -166q-80 -137 -232 -137h-188q-22 0 -22 22v455h-17q-24 0 -23 24q0 22 23 22h17v478q0 22 22 22h188zM413 454l-318 1v-433h165q126 0 194 116q38 64 55 154.5t17 197.5
q0 104 -17 195.5t-55 156.5q-68 114 -194 114h-165v-455h318q22 -1 22 -25q0 -23 -22 -22z" />
    <glyph glyph-name="eth" unicode="&#xf0;" horiz-adv-x="522" 
d="M173 544q-16 -16 -32 0q-15 17 2 33l52 50l-62 78q-16 16 1 32q17 15 32 -2l62 -77l54 52q16 15 31 0q16 -17 0 -33l-57 -54l161 -198q54 -69 54 -189q0 -121 -54 -189q-55 -69 -157 -69q-100 0 -156 69q-54 67 -54 189t54 189q56 70 156 70q24 0 45 -4l-81 101zM260 450
q-80 0 -121 -52q-44 -57 -44 -162q0 -106 44 -161q41 -53 121 -53t122 53q44 55 44 161q0 105 -44 162l-12 13q-41 39 -110 39z" />
    <glyph glyph-name="thorn" unicode="&#xfe;" 
d="M95 965v-552q2 4 9 12q56 70 156 70q101 0 157 -70q54 -69 54 -189q0 -121 -54 -189q-55 -69 -157 -69q-100 0 -156 69q-7 9 -9 13v-525q0 -22 -23 -22q-22 0 -22 22v701v729q0 23 22 23q23 0 23 -23zM260 450q-80 0 -121 -52q-44 -57 -44 -162q0 -106 44 -161
q41 -53 121 -53t122 53q44 55 44 161q0 105 -44 162q-42 52 -122 52z" />
    <glyph glyph-name="bar" unicode="|" horiz-adv-x="145" 
d="M95 1055v-1529q0 -22 -23 -22q-22 0 -22 22v1529q0 22 22 22q23 0 23 -22z" />
    <glyph glyph-name="asciitilde" unicode="~" horiz-adv-x="446" 
d="M19 389q24 32 47 56t50 33q59 19 122 -65q22 -32 47 -38q13 -4 26 -1q12 4 27 14q37 27 52 74q6 22 28 17q22 -8 16 -29q-19 -63 -68 -99q-22 -17 -44 -21q-27 -7 -51 1q-39 12 -70 55q-43 58 -71 48q-17 -5 -35.5 -25.5t-39.5 -47.5q-14 -20 -32 -5t-4 33z" />
    <glyph glyph-name="dollar" unicode="$" horiz-adv-x="524" 
d="M278 770v-151q59 -2 105 -25q48 -26 78 -76q12 -20 -8 -30q-20 -11 -30 8q-22 38 -61 58q-35 18 -84 20v-185q69 -22 129 -53q67 -35 53 -121q-10 -54 -69 -84q-49 -25 -113 -29v-102q0 -22 -23 -22q-22 0 -22 22v102q-54 4 -95 25q-50 25 -79 77q-9 20 10 30t29 -9
q22 -39 61 -58q30 -17 74 -21v210q-68 22 -122 49q-59 30 -47 102q10 52 69 83q44 22 100 27v153q0 22 22 22q23 0 23 -22zM371 170q40 22 45 53q10 56 -46 82q-43 21 -92 37v-196q53 4 93 24zM153 551q-40 -23 -45 -51q-8 -43 40 -66q38 -17 85 -32v170q-46 -4 -80 -21z
" />
    <glyph glyph-name="guilsinglleft" unicode="&#x2039;" horiz-adv-x="323" 
d="M242 -13l-192 250l192 248q14 18 32 5q15 -15 3 -30l-172 -223l172 -222q12 -17 -3 -32q-18 -13 -32 4z" />
    <glyph glyph-name="guillemotleft" unicode="&#xab;" horiz-adv-x="508" 
d="M420 -13l-192 250l192 248q14 18 32 5q15 -15 3 -30l-172 -223l172 -222q12 -17 -3 -32q-18 -13 -32 4zM242 -13l-192 250l192 248q14 18 32 5q15 -15 3 -30l-172 -223l172 -222q12 -17 -3 -32q-18 -13 -32 4z" />
    <glyph glyph-name="guillemotright" unicode="&#xbb;" horiz-adv-x="508" 
d="M97 486l192 -250l-192 -248q-14 -18 -32 -5q-15 15 -3 30l172 223l-172 222q-12 17 3 32q18 13 32 -4zM275 486l192 -250l-192 -248q-14 -18 -32 -5q-15 15 -3 30l172 223l-172 222q-12 17 3 32q18 13 32 -4z" />
    <glyph glyph-name="guilsinglright" unicode="&#x203a;" horiz-adv-x="323" 
d="M97 486l192 -250l-192 -248q-14 -18 -32 -5q-15 15 -3 30l172 223l-172 222q-12 17 3 32q18 13 32 -4z" />
    <glyph glyph-name="percent" unicode="%" horiz-adv-x="540" 
d="M520 968l-462 -954q-9 -20 -30 -10q-20 9 -10 29l461 955q10 20 30 10t11 -30zM529 166q0 -34 -9.5 -64t-26.5 -52.5t-39.5 -35.5t-48.5 -13t-48.5 13t-39.5 35.5t-27 52.5t-10 64t10 64t27 52.5t39.5 35.5t48.5 13t48.5 -13t39.5 -35.5t26.5 -52.5t9.5 -64zM322 165
q0 -25 6.5 -47.5t17.5 -39t26 -26t33 -9.5t33 9.5t26.5 26t18 39t6.5 47.5t-6.5 47.5t-18 39.5t-26.5 26.5t-33 9.5t-33 -9.5t-26 -26.5t-17.5 -39.5t-6.5 -47.5zM273 825q0 -34 -9.5 -64t-26.5 -52.5t-39.5 -35.5t-48.5 -13t-48.5 13t-39.5 35.5t-27 52.5t-10 64t10 64
t27 52.5t39.5 35.5t48.5 13t48.5 -13t39.5 -35.5t26.5 -52.5t9.5 -64zM66 824q0 -25 6.5 -47.5t17.5 -39t26 -26t33 -9.5t33 9.5t26.5 26t18 39t6.5 47.5t-6.5 47.5t-18 39.5t-26.5 26.5t-33 9.5t-33 -9.5t-26 -26.5t-17.5 -39.5t-6.5 -47.5z" />
    <glyph glyph-name="yen" unicode="&#xa5;" horiz-adv-x="639" 
d="M461 404h-120v-118h121q22 0 23 -24q0 -23 -24 -23h-120v-239q0 -22 -23 -22q-22 0 -22 22v239l-117 1q-24 0 -23 24q-1 22 23 22h117v119l-119 1q-23 0 -22 23q0 23 22 23h119v33l-238 484q-8 20 10 29q19 10 30 -9l220 -450l221 450q11 19 30 9q20 -9 10 -29l-238 -484
v-33h121q22 -1 23 -24q0 -24 -24 -24z" />
    <glyph glyph-name="germandbls" unicode="&#xdf;" horiz-adv-x="508" 
d="M95 716v-716q0 -22 -23 -22q-22 0 -22 22v716q2 145 56 212.5t154 67.5q101 0 150 -69.5t49 -170.5q0 -83 -34.5 -144.5t-72.5 -78.5q40 -17 63 -44q66 -67 66 -227q0 -147 -46 -214.5t-125 -69.5q-51 0 -91 32.5t-59 96.5q-8 22 13 29t29 -13q12 -49 40.5 -74.5
t67.5 -25.5q45 0 85.5 54.5t40.5 184.5q0 144 -56 199q-52 53 -132 53q-25 0 -27 21.5t27 22.5q92 1 129 65.5t37 132.5q0 86 -37 140.5t-117 54.5t-122 -54t-43 -181z" />
    <glyph glyph-name="Euro" unicode="&#x20ac;" horiz-adv-x="684" 
d="M462 544l-366 2q-1 -28 -1 -56q0 -33 1 -64h229q22 0 23 -24q0 -23 -24 -23l-225 1q5 -46 13 -88q17 -90 55 -154q67 -116 194 -116q77 0 133 44q56 43 90 133q7 20 29 13q21 -9 12 -29q-39 -102 -104 -152q-68 -53 -160 -53q-152 0 -232 137q-42 69 -61 166
q-9 48 -14 99h-12q-24 0 -23 24q-1 22 23 22h9q-1 31 -1 64q0 28 1 56h-11q-23 0 -22 23q0 23 22 23h14q5 54 14 104q19 97 61 168q80 137 232 137q92 0 160 -53q66 -52 104 -152q9 -22 -12 -29q-22 -8 -29 13q-35 89 -90 133q-55 43 -133 43q-127 0 -194 -114
q-38 -65 -55 -157q-9 -45 -13 -93h364q22 -1 23 -24q0 -24 -24 -24z" />
    <glyph glyph-name="periodcentered" unicode="&#xb7;" horiz-adv-x="202" 
d="M52 447q0 25 14.5 42.5t35.5 17.5t36 -17.5t15 -42.5t-15 -42t-36 -17t-35.5 17t-14.5 42z" />
    <glyph glyph-name="quotedblbase" unicode="&#x201e;" horiz-adv-x="421" 
d="M250 83q-11 23 25.5 44t53.5 -4q32 -43 4 -119q-22 -60 -86 -155q-13 -18 -32 -5q-18 13 -6 32q61 89 80 143q19 50 -6.5 48.5t-32.5 15.5zM99 83q-11 23 25.5 44t52.5 -4q33 -43 5 -119q-21 -60 -86 -155q-13 -18 -32 -5q-18 13 -6 32q61 89 81 143q17 50 -8 48.5
t-32 15.5z" />
    <glyph glyph-name="quotesinglbase" unicode="&#x201a;" horiz-adv-x="307" 
d="M138 83q-11 23 25.5 44t52.5 -4q33 -43 5 -119q-22 -60 -86 -155q-14 -18 -32 -5t-7 32q62 89 81 143q19 50 -6.5 48.5t-32.5 15.5z" />
    <glyph glyph-name="ampersand" unicode="&#x26;" horiz-adv-x="628" 
d="M394 116l-72 -61q-51 -40 -98 -49t-82 6q-31 11 -50.5 37.5t-25 65t13.5 86.5t70 95q90 71 94 75q-58 93 -40 179t113.5 81.5t94 -93t-52.5 -133t-56 -49.5l101 -171q80 75 87 81q18 16 30 -2q15 -18 -2 -33q-5 -4 -92 -85l42 -62q20 -28 26 -31t16.5 9.5t32.5 54.5
q10 20 30 9q19 -12 9 -31q-34 -66 -59.5 -81t-49.5 -1q-16 8 -40 43zM370 155q-6 10 -104 176l-88 -71q-41 -36 -56.5 -73.5t-12.5 -64.5t15 -43.5t33 -24.5q61 -24 139 38zM281 397q3 2 48.5 40.5t42 94t-62 54.5t-68 -56t39.5 -133z" />
    <glyph glyph-name="parenleft" unicode="(" horiz-adv-x="184" 
d="M166 1033q-137 -277 -136 -562q1 -278 136 -561q10 -19 -10 -30q-20 -8 -30 11q-136 288 -140 580q-1 297 141 582q9 20 29 10q20 -9 10 -30z" />
    <glyph glyph-name="parenright" unicode=")" horiz-adv-x="184" 
d="M-5 -88q137 277 136 562q-1 278 -136 561q-10 19 10 30q20 8 30 -11q136 -288 140 -580q1 -297 -141 -582q-9 -20 -29 -10q-20 9 -10 30z" />
    <glyph glyph-name="quotesingle" unicode="'" horiz-adv-x="196" 
d="M113 979v-127q0 -22 -23 -22q-22 0 -22 22v127q0 22 22 22q23 0 23 -22z" />
    <glyph glyph-name="quotedbl" unicode="&#x22;" horiz-adv-x="268" 
d="M208 979v-127q0 -22 -23 -22q-22 0 -22 22v127q0 22 22 22q23 0 23 -22zM113 979v-127q0 -22 -23 -22q-22 0 -22 22v127q0 22 22 22q23 0 23 -22z" />
    <glyph glyph-name="bracketleft" unicode="[" horiz-adv-x="196" 
d="M90 1066h120q22 0 22 -23q0 -22 -22 -22h-97v-1066h97q22 0 22 -23q0 -22 -22 -22h-117h-3q-4 0 -7 1q-4 1 -7 2q-6 4 -8 12v7v4v1107q0 23 22 23z" />
    <glyph glyph-name="bracketright" unicode="]" horiz-adv-x="196" 
d="M210 1066q22 0 22 -23v-1110v-4v-7q-2 -8 -8 -12q-3 -1 -7 -2q-3 -1 -7 -1h-3h-117q-22 0 -22 22q0 23 22 23h97v1069h-97q-22 0 -22 22q0 23 22 23h120v0z" />
    <glyph glyph-name="paragraph" unicode="&#xb6;" horiz-adv-x="544" 
d="M514 1001q22 0 22 -23q0 -22 -22 -22h-103v-956q0 -22 -23 -22q-22 0 -22 22v956h-167v-956q0 -22 -23 -22q-22 0 -22 22v596q-56 6 -91 53q-38 53 -38 148q0 96 38 148t103 55z" />
    <glyph glyph-name="mu" unicode="&#xb5;" 
d="M95 236q0 -106 44 -161q41 -53 121 -53t122 53q44 55 44 161v236q0 23 22 23q23 0 23 -23v-472q0 -22 -23 -22q-22 0 -22 22v60q-2 -4 -9 -13q-55 -69 -157 -69q-100 0 -156 69q-5 5 -9 12v-536q0 -22 -23 -22q-22 0 -22 22v949q0 23 22 23q23 0 23 -23v-236z" />
    <glyph glyph-name="ordfeminine" unicode="&#xaa;" 
d="M471 970v-236v-236q0 -22 -23 -22q-22 0 -22 22v60q-2 -4 -9 -13q-55 -69 -157 -69q-100 0 -156 69q-54 67 -54 189t54 189q56 70 156 70q101 0 157 -70q7 -8 9 -12v59q0 23 22 23q23 0 23 -23zM382 896q-42 52 -122 52t-121 -52q-44 -57 -44 -162q0 -106 44 -161
q41 -53 121 -53t122 53q44 55 44 161q0 105 -44 162z" />
    <glyph glyph-name="ordmasculine" unicode="&#xba;" horiz-adv-x="522" 
d="M260 962q-80 0 -121 -52q-44 -57 -44 -162q0 -106 44 -161q41 -53 121 -53t122 53q44 55 44 161q0 105 -44 162q-42 52 -122 52zM104 937q56 70 156 70q101 0 157 -70q54 -69 54 -189q0 -121 -54 -189q-55 -69 -157 -69q-100 0 -156 69q-54 67 -54 189t54 189z" />
    <glyph glyph-name="section" unicode="&#xa7;" horiz-adv-x="524" 
d="M63 841q9 70 71 116q57 41 140 41q74 0 119 -35q27 -20 47 -47t35 -62q7 -19 -8 -32q-11 -8 -19 -5t-13 13q-12 29 -28.5 52t-34.5 37q-44 33 -98 33q-67 0 -119 -37q-19 -16 -31.5 -37.5t-14.5 -44.5q-11 -72 41 -106q55 -36 116 -61q88 -37 153 -85q57 -45 57 -132
q0 -9 -0.5 -18.5t-1.5 -20.5q-3 -28 -15 -52t-32 -44l-5 -6q25 -23 39.5 -57.5t14.5 -74.5v-20t-2 -20q-6 -35 -23.5 -65t-48.5 -53q-55 -40 -141 -40q-73 0 -122 34q-55 41 -81 109q-7 21 10 34q10 6 17.5 2.5t12.5 -11.5q13 -30 28.5 -53.5t35.5 -36.5q40 -34 99 -34
q34 0 64 10.5t56 27.5q20 17 32.5 38.5t14.5 47.5q12 93 -48 132q-32 20 -64 37.5t-64 31.5q-41 17 -76 37t-64 40q-51 37 -51 110q0 7 0.5 15t1.5 17q4 32 18 59.5t40 49.5l10 10l-19 14q-24 18 -37.5 45.5t-13.5 63.5q0 8 0.5 16t1.5 17zM381 334q42 32 47 86
q12 91 -48 131q-32 21 -64 38.5t-64 31.5q-19 9 -40 20.5t-38 20.5l-19 -20q-20 -18 -32 -39t-14 -45q-5 -35 6 -62t35 -44q55 -35 116 -59q33 -16 61 -31t52 -29v-1z" />
    <glyph glyph-name="brokenbar" unicode="&#xa6;" horiz-adv-x="149" 
d="M76 -496q-22 0 -22 22v710h45v-710q0 -22 -23 -22zM99 1055v-617h-45v617q0 22 22 22q23 0 23 -22z" />
    <glyph glyph-name="NULL" horiz-adv-x="0" 
 />
    <glyph glyph-name="twosuperior" unicode="&#xb2;" horiz-adv-x="382" 
d="M20 787q0 87 48 147h-1q49 64 122 64t122 -64q47 -62 47 -147q0 -47 -16 -88q-18 -46 -45 -74l-194 -201h230q25 0 25 -24q0 -25 -25 -25h-289q-24 0 -24 25q0 9 8 17h-1q59 60 117 120.5t117 121.5q12 11 20.5 26.5t14.5 29.5q13 37 13 72q0 65 -38 117q-35 45 -82 45
q-49 0 -82 -45q-38 -50 -38 -117q0 -25 -25 -25q-24 0 -24 25z" />
    <glyph glyph-name="threesuperior" unicode="&#xb3;" horiz-adv-x="382" 
d="M20 830q0 70 50 120q49 49 119 49q67 0 119 -49q50 -52 50 -120t-50 -118q-10 -9 -14.5 -13.5t-15.5 -10.5q15 -11 30 -26q50 -50 50 -118t-50 -118t-119 -50t-119 50q-50 49 -50 118q0 25 24 25q25 0 25 -25q0 -50 35 -85v1q37 -35 85 -35q49 0 85 34q35 37 35 85
q0 50 -35 83q-35 35 -85 35q-25 0 -25 26q0 24 25 24q49 0 85 34q35 35 35 84q0 51 -35 84q-36 36 -85 36t-85 -36q-35 -32 -35 -84q0 -24 -25 -24q-24 0 -24 24z" />
    <glyph glyph-name="onesuperior" unicode="&#xb9;" horiz-adv-x="127" 
d="M88 402q0 -24 -26 -24q-24 0 -24 24v574q0 25 24 25q26 0 26 -25v-574z" />
    <glyph glyph-name="threequarters" unicode="&#xbe;" horiz-adv-x="973" 
d="M50 832q0 68 50 120q49 49 119 49q67 0 119 -49q50 -52 50 -120t-50 -118q-10 -9 -14.5 -13.5t-15.5 -10.5q15 -11 30 -26q50 -50 50 -118t-50 -118t-119 -50t-119 50t-50 118q0 25 24 25q25 0 25 -25q0 -50 35 -85v1q37 -35 85 -35q49 0 85 34q35 37 35 85q0 50 -35 83
q-35 35 -85 35q-25 0 -25 26q0 24 25 24q49 0 85 34q35 35 35 84q0 51 -35 84q-36 36 -85 36t-85 -36q-35 -32 -35 -84q0 -24 -25 -24q-24 0 -24 24zM790 313h108q25 0 25 -25q0 -24 -25 -24h-108v-252q0 -25 -24 -25t-24 25v252h-130q-18 2 -22 13h-2l22 310q3 23 26 23
q26 -3 23 -27q-5 -71 -10 -135t-10 -135h103v272q0 25 24 25t24 -25v-272zM731 968l-462 -954q-9 -20 -30 -10q-20 9 -10 29l461 955q10 20 30 10t11 -30z" />
    <glyph glyph-name="onequarter" unicode="&#xbc;" horiz-adv-x="804" 
d="M621 313h108q25 0 25 -25q0 -24 -25 -24h-108v-252q0 -25 -24 -25t-24 25v252h-130q-18 2 -22 13h-2l22 310q3 23 26 23q26 -3 23 -27q-5 -71 -10 -135t-10 -135h103v272q0 25 24 25t24 -25v-272zM562 968l-462 -954q-9 -20 -30 -10q-20 9 -10 29l461 955q10 20 30 10
t11 -30zM113 402q0 -24 -26 -24q-24 0 -24 24v574q0 25 24 25q26 0 26 -25v-574z" />
    <glyph glyph-name="onehalf" unicode="&#xbd;" horiz-adv-x="774" 
d="M562 968l-462 -954q-9 -20 -30 -10q-20 9 -10 29l461 955q10 20 30 10t11 -30zM121 402q0 -24 -26 -24q-24 0 -24 24v574q0 25 24 25q26 0 26 -25v-574zM386 399q0 87 48 147h-1q49 64 122 64t122 -64q47 -62 47 -147q0 -47 -16 -88q-18 -46 -45 -74l-194 -201h230
q25 0 25 -24q0 -25 -25 -25h-289q-24 0 -24 25q0 9 8 17h-1q59 60 117 120.5t117 121.5q12 11 20.5 26.5t14.5 29.5q13 37 13 72q0 65 -38 117q-35 45 -82 45q-49 0 -82 -45q-38 -50 -38 -117q0 -25 -25 -25q-24 0 -24 25z" />
    <glyph glyph-name="exclamdown" unicode="&#xa1;" horiz-adv-x="201" 
d="M151 492q0 -25 -14.5 -42.5t-35.5 -17.5t-36 17.5t-15 42.5t15 42t36 17t35.5 -17t14.5 -42zM83 -445v777q0 22 23 22q22 0 22 -22v-777q0 -23 -22 -23q-23 0 -23 23z" />
    <glyph glyph-name="questiondown" unicode="&#xbf;" horiz-adv-x="643" 
d="M585 -269q-35 -97 -101 -148q-65 -51 -158 -51q-106 0 -182 58q-84 63 -89 173t36 168t93 102q51 43 92.5 102.5t32.5 199.5q-1 23 21 23q23 2 24 -21q10 -156 -37 -223t-104 -115q-45 -39 -81.5 -89t-30.5 -162q10 -77 70 -122q63 -49 155 -49q77 0 131 41q54 43 87 129
q8 22 29 12q20 -6 12 -28zM375 492q0 -25 -14.5 -42.5t-35.5 -17.5t-36 17.5t-15 42.5t15 42t36 17t35.5 -17t14.5 -42z" />
    <glyph glyph-name="cent" unicode="&#xa2;" horiz-adv-x="508" 
d="M276 731v-98q57 -3 101 -33q47 -31 73 -95q8 -22 -13 -29t-29 13q-19 49 -56 75q-32 21 -76 24v-427q44 4 76 25q37 25 56 75q8 21 29 12q20 -7 13 -28q-26 -64 -73 -96q-43 -28 -101 -32v-106q0 -22 -23 -22q-22 0 -22 22v107q-80 9 -127 68q-54 67 -54 189t54 189
q47 59 127 68v99q0 22 22 22q23 0 23 -22zM139 537q-44 -57 -44 -162q0 -106 44 -161q33 -43 92 -51v424q-59 -8 -92 -50z" />
    <glyph glyph-name="uni00A0" unicode="&#xa0;" horiz-adv-x="0" 
 />
    <glyph glyph-name="trademark" unicode="&#x2122;" horiz-adv-x="796" 
d="M324 1004q21 0 21 -23q0 -22 -21 -22h-109v-438q0 -23 -21 -23q-22 0 -22 23v438h-108q-22 0 -22 22q0 23 22 23h260zM723 981v-460q0 -23 -22 -23q-23 0 -23 23v327q-28 -85 -56 -168.5t-56 -166.5q-4 -10 -13 -13h1q-23 -10 -30 15l1 -1q-17 49 -30 88.5t-25.5 76.5
t-26 76.5t-29.5 89.5v-324q0 -23 -23 -23q-22 0 -22 23v464q2 5 6 9.5t15 9.5q17 4 23 -17l-1 1q18 -54 34.5 -102.5t32.5 -96.5t32.5 -96.5t34.5 -102.5q33 100 66.5 199t66.5 199l-1 -1q6 22 29 16q12 -7 15 -18z" />
    <glyph glyph-name="longs" unicode="&#x17f;" horiz-adv-x="126" 
d="M296 890q-14 33 -37 50q-25 16 -63 16q-54 0 -81 -35q-31 -38 -31 -111v-810q0 -22 -21 -22q-24 0 -24 22v810q0 88 41 140q41 51 116 51q51 0 87 -24q37 -25 54 -71q10 -22 -12 -30t-29 14z" />
    <glyph glyph-name="germandblS" unicode="&#x1e9e;" horiz-adv-x="751" 
d="M58 662q-1 1 -1 2q0 150 66 237q69 87 190 87h354q26 0 26 -28q0 -8 -3 -13l-189 -345q93 -13 147 -81q67 -83 67 -231q0 -147 -67 -228q-66 -84 -189 -84q-124 0 -191 84q-65 82 -65 228q0 28 26 28q28 0 28 -28q0 -127 54 -195q51 -64 148 -64q96 0 147 64
q55 66 55 195q0 130 -55 197q-51 64 -147 64q-28 0 -28 27q0 8 5 14l184 342h-307q-97 0 -147 -66q-54 -73 -54 -204v-1v-1v-657q0 -27 -26 -27q-28 0 -28 27v657z" />
    <glyph glyph-name="longs_h" unicode="&#xeba1;" horiz-adv-x="776" 
d="M681 236q0 105 -44 162q-42 52 -122 52t-121 -52q-44 -57 -44 -162v-236q0 -22 -23 -22q-22 0 -22 22v895q-14 29 -35 45q-25 16 -63 16q-54 0 -81 -35q-31 -38 -31 -111v-810q0 -22 -21 -22q-24 0 -24 22v810q0 88 41 140q41 51 116 51q51 0 87 -24l11 -8v10q0 22 22 22
q23 0 23 -22v-566q2 4 9 12q56 70 156 70q101 0 157 -70q54 -69 54 -189v-236q0 -22 -23 -22q-22 0 -22 22v236z" />
    <glyph glyph-name="longs_i" unicode="&#xeba2;" horiz-adv-x="296" 
d="M296 890q-14 33 -37 50q-25 16 -63 16q-54 0 -81 -35q-31 -38 -31 -111v-810q0 -22 -21 -22q-24 0 -24 22v810q0 88 41 140q41 51 116 51q51 0 87 -24q37 -25 54 -71q10 -22 -12 -30t-29 14zM341 472v-472q0 -22 -23 -22q-22 0 -22 22v472q0 23 22 23q23 0 23 -23z
M270 746q0 25 14.5 42.5t35.5 17.5t36 -17.5t15 -42.5t-15 -42t-36 -17t-35.5 17t-14.5 42z" />
    <glyph glyph-name="longs_l" unicode="&#xeba3;" horiz-adv-x="404" 
d="M307 890q-14 33 -37 50q-25 16 -63 16q-54 0 -81 -35q-31 -38 -31 -111v-810q0 -22 -21 -22q-24 0 -24 22v810q0 88 41 140q41 51 116 51q51 0 87 -24q8 -6 15 -12v14q0 22 22 22q23 0 23 -22v-979q0 -22 -23 -22q-22 0 -22 22v884z" />
    <glyph glyph-name="longs_longs_i" unicode="&#xeba7;" horiz-adv-x="586" 
d="M489 890q-14 33 -37 50q-25 16 -63 16q-54 0 -81 -35q-31 -38 -31 -111v-810q0 -22 -21 -22q-24 0 -24 22v810q0 80 34 130q-25 16 -62 16q-54 0 -81 -35q-31 -38 -31 -111v-810q0 -22 -21 -22q-24 0 -24 22v810q0 88 41 140q41 51 116 51q51 0 87 -24q3 -2 5 -4
q37 28 93 28q51 0 87 -24q37 -25 54 -71q10 -22 -12 -30t-29 14zM538 472v-472q0 -22 -23 -22q-22 0 -22 22v472q0 23 22 23q23 0 23 -23zM467 746q0 -25 14.5 -42t35.5 -17t36 17t15 42t-15 42.5t-36 17.5t-35.5 -17.5t-14.5 -42.5z" />
    <glyph glyph-name="longs_longs_l" unicode="&#xeba8;" horiz-adv-x="590" 
d="M484 890q-14 33 -37 50q-25 16 -63 16q-54 0 -81 -35q-31 -38 -31 -111v-810q0 -22 -21 -22q-24 0 -24 22v810q0 80 34 130q-25 16 -62 16q-54 0 -81 -35q-31 -38 -31 -111v-810q0 -22 -21 -22q-24 0 -24 22v810q0 88 41 140q41 51 116 51q51 0 87 -24q3 -2 5 -4
q37 28 93 28q51 0 87 -24q11 -8 21 -18l3 8v12q0 22 22 22q23 0 23 -22v-979q0 -22 -23 -22q-22 0 -22 22v875q-8 3 -11 15z" />
    <glyph glyph-name="c_k" unicode="&#xeec4;" horiz-adv-x="922" 
d="M450 106q-26 -64 -73 -96q-49 -32 -117 -32q-100 0 -156 69q-54 67 -54 189t54 189q56 70 156 70q67 0 117 -34q47 -31 73 -95q8 -22 -13 -29t-29 13q-19 49 -56 75q-37 25 -92 25q-80 0 -121 -52q-44 -57 -44 -162q0 -106 44 -161q41 -53 121 -53q55 0 92 25t56 75
q8 21 29 12q20 -7 13 -28zM855 454l-311 -218l311 -218q16 -13 6 -30q-14 -18 -32 -5l-301 210v-193q0 -22 -23 -22q-22 0 -22 22v489v490q0 22 22 22q23 0 23 -22v-700l301 212q18 11 32 -6q11 -19 -6 -31z" />
    <glyph glyph-name="f_j" unicode="&#xeec9;" horiz-adv-x="399" 
d="M296 890q-14 33 -37 50q-25 16 -63 16q-54 0 -81 -35q-31 -38 -31 -111v-210h163q22 0 22 -21q0 -23 -22 -23h-163v-556q0 -22 -21 -22q-24 0 -24 22v556h-68q-22 0 -22 23q0 21 22 21h68v210q0 88 41 140q41 51 116 51q51 0 87 -24q37 -25 54 -71q10 -22 -12 -30t-29 14
zM88 -375q13 -33 37 -51q25 -16 62 -16q55 0 82 34q30 39 30 112v768q0 23 22 23t22 -23v-768q0 -87 -39 -139q-40 -52 -117 -52q-49 0 -87 25q-35 24 -54 71q-6 21 13 28q21 10 29 -12zM273 746q0 25 14.5 42.5t35.5 17.5t36 -17.5t15 -42.5t-15 -42t-36 -17t-35.5 17
t-14.5 42z" />
    <glyph glyph-name="f_t" unicode="&#xeecb;" horiz-adv-x="630" 
d="M84 556v-556q0 -22 -21 -22q-24 0 -24 22v556h-68q-22 0 -22 23q0 21 22 21h68v210q0 88 41 140q41 51 116 51q51 0 87 -24q7 -5 14 -11v13q0 22 23 22q22 0 22 -22v-379h151q22 0 22 -21q0 -23 -22 -23h-151v-388q0 -73 31 -111q26 -35 81 -35q37 0 62 17q23 16 38 51
q7 20 29 12q20 -8 12 -28q-17 -47 -54 -72q-38 -24 -87 -24q-75 0 -116 52q-41 50 -41 138v388h-213zM296 890q-14 33 -37 50q-25 16 -63 16q-54 0 -81 -35q-31 -38 -31 -111v-210h213v286q-1 2 -1 4z" />
    <glyph glyph-name="f_f_t" unicode="&#xeece;" horiz-adv-x="871" 
d="M84 556v-556q0 -22 -21 -22q-24 0 -24 22v556h-68q-22 0 -22 23q0 21 22 21h68v210q0 88 41 140q41 51 116 51q51 0 87 -24q22 -15 37 -39q4 6 9 12q41 51 116 51q51 0 87 -24q8 -6 15 -12v14q0 22 23 22q22 0 22 -22v-379h151q22 0 22 -21q0 -23 -22 -23h-151v-388
q0 -73 31 -111q26 -35 81 -35q37 0 62 17q23 16 38 51q7 20 29 12q20 -8 12 -28q-17 -47 -54 -72q-38 -24 -87 -24q-75 0 -116 52q-41 50 -41 138v388h-214v-556q0 -22 -21 -22q-24 0 -24 22v556h-204zM545 890q-14 33 -37 50q-25 16 -63 16q-54 0 -81 -35q-31 -38 -31 -111
v-210h214v284zM296 890q-14 33 -37 50q-25 16 -63 16q-54 0 -81 -35q-31 -38 -31 -111v-210h204v210q0 42 9 76z" />
    <glyph glyph-name="t_t" unicode="&#xeed9;" horiz-adv-x="646" 
d="M107 600h206v379q0 22 23 22q22 0 22 -22v-379h151q22 0 22 -21q0 -23 -22 -23h-151v-388q0 -73 31 -111q26 -35 81 -35q37 0 62 17q23 16 38 51q7 20 29 12q20 -8 12 -28q-17 -47 -54 -72q-38 -24 -87 -24q-75 0 -116 52q-5 5 -9 12q-16 -24 -39 -40q-38 -24 -87 -24
q-75 0 -116 52q-41 50 -41 138v388h-80q-22 0 -22 23q0 21 22 21h80v379q0 22 23 22q22 0 22 -22v-379zM107 556v-388q0 -73 31 -111q26 -35 81 -35q37 0 62 17q23 16 38 51q1 3 2 5q-8 33 -8 73v388h-206z" />
    <glyph glyph-name="t_z" unicode="&#xe23a;" horiz-adv-x="676" 
d="M439 177q49 -24 83 -57q78 -78 78 -188q0 -111 -78 -189q-79 -78 -191 -78t-190 78t-78 189q0 22 22 22t22 -22q0 -92 66 -158q66 -65 158 -65q93 0 159 65q66 66 66 158t-66 157t-159 65q-22 0 -22 23q0 14 250 378l-448 1v-388q0 -73 31 -111q26 -35 81 -35q37 0 62 17
q23 16 38 51q7 20 29 12q20 -8 12 -28q-17 -47 -54 -72q-38 -24 -87 -24q-75 0 -116 52q-41 50 -41 138v388h-80q-22 0 -22 23q0 21 22 21h80v379q0 22 23 22q22 0 22 -22v-379h493q22 0 22 -23q0 -11 -6 -15l-248 -366q37 -5 67 -19z" />
    <glyph glyph-name="t_z" unicode="&#xeedc;" horiz-adv-x="676" 
d="M439 177q49 -24 83 -57q78 -78 78 -188q0 -111 -78 -189q-79 -78 -191 -78t-190 78t-78 189q0 22 22 22t22 -22q0 -92 66 -158q66 -65 158 -65q93 0 159 65q66 66 66 158t-66 157t-159 65q-22 0 -22 23q0 14 250 378l-448 1v-388q0 -73 31 -111q26 -35 81 -35q37 0 62 17
q23 16 38 51q7 20 29 12q20 -8 12 -28q-17 -47 -54 -72q-38 -24 -87 -24q-75 0 -116 52q-41 50 -41 138v388h-80q-22 0 -22 23q0 21 22 21h80v379q0 22 23 22q22 0 22 -22v-379h493q22 0 22 -23q0 -11 -6 -15l-248 -366q37 -5 67 -19z" />
    <glyph glyph-name="c_h" unicode="&#xf1bb;" horiz-adv-x="970" 
d="M450 106q-26 -64 -73 -96q-49 -32 -117 -32q-100 0 -156 69q-54 67 -54 189t54 189q56 70 156 70q67 0 117 -34q47 -31 73 -95q8 -22 -13 -29t-29 13q-19 49 -56 75q-37 25 -92 25q-80 0 -121 -52q-44 -57 -44 -162q0 -106 44 -161q41 -53 121 -53q55 0 92 25t56 75
q8 21 29 12q20 -7 13 -28zM878 236q0 105 -44 162q-42 52 -122 52t-121 -52q-44 -57 -44 -162v-236q0 -22 -23 -22q-22 0 -22 22v236v743q0 22 22 22q23 0 23 -22v-566q2 4 9 12q56 70 156 70q101 0 157 -70q54 -69 54 -189v-236q0 -22 -23 -22q-22 0 -22 22v236z" />
    <glyph glyph-name="l_l" unicode="&#xf4f9;" horiz-adv-x="290" 
d="M95 979v-979q0 -22 -23 -22q-22 0 -22 22v979q0 22 22 22q23 0 23 -22zM240 979v-979q0 -22 -23 -22q-22 0 -22 22v979q0 22 22 22q23 0 23 -22z" />
    <glyph glyph-name="l_l" unicode="&#xf6c0;" horiz-adv-x="290" 
d="M95 979v-979q0 -22 -23 -22q-22 0 -22 22v979q0 22 22 22q23 0 23 -22zM240 979v-979q0 -22 -23 -22q-22 0 -22 22v979q0 22 22 22q23 0 23 -22z" />
    <glyph glyph-name="longs_c_h" unicode="&#xf4fa;" horiz-adv-x="1111" 
d="M296 890q-14 33 -37 50q-25 16 -63 16q-54 0 -81 -35q-31 -38 -31 -111v-810q0 -22 -21 -22q-24 0 -24 22v810q0 88 41 140q41 51 116 51q51 0 87 -24q37 -25 54 -71q10 -22 -12 -30t-29 14zM576 106q-26 -64 -73 -96q-49 -32 -117 -32q-100 0 -156 69q-54 67 -54 189
t54 189q56 70 156 70q67 0 117 -34q47 -31 73 -95q8 -22 -13 -29t-29 13q-19 49 -56 75q-37 25 -92 25q-80 0 -121 -52q-44 -57 -44 -162q0 -106 44 -161q41 -53 121 -53q55 0 92 25t56 75q8 21 29 12q20 -7 13 -28zM1012 236q0 105 -44 162q-42 52 -122 52t-121 -52
q-44 -57 -44 -162v-236q0 -22 -23 -22q-22 0 -22 22v236v743q0 22 22 22q23 0 23 -22v-566q2 4 9 12q56 70 156 70q101 0 157 -70q54 -69 54 -189v-236q0 -22 -23 -22q-22 0 -22 22v236z" />
    <glyph glyph-name="longs_j" unicode="&#xf4fb;" horiz-adv-x="393" 
d="M296 890q-14 33 -37 50q-25 16 -63 16q-54 0 -81 -35q-31 -38 -31 -111v-810q0 -22 -21 -22q-24 0 -24 22v810q0 88 41 140q41 51 116 51q51 0 87 -24q37 -25 54 -71q10 -22 -12 -30t-29 14zM85 -375q13 -33 37 -51q25 -16 62 -16q55 0 82 34q30 39 30 112v768
q0 23 22 23t22 -23v-768q0 -87 -39 -139q-40 -52 -117 -52q-49 0 -87 25q-35 24 -54 71q-6 21 13 28q21 10 29 -12zM270 746q0 25 14.5 42.5t35.5 17.5t36 -17.5t15 -42.5t-15 -42t-36 -17t-35.5 17t-14.5 42z" />
    <glyph glyph-name="longs_k" unicode="&#xf4fc;" horiz-adv-x="615" 
d="M660 454l-311 -218l311 -218q16 -13 6 -30q-14 -18 -32 -5l-301 210v-193q0 -22 -23 -22q-22 0 -22 22v906q-12 21 -29 34q-25 16 -63 16q-54 0 -81 -35q-31 -38 -31 -111v-810q0 -22 -21 -22q-24 0 -24 22v810q0 88 41 140q41 51 116 51q51 0 87 -24q2 -2 5 -4v6
q0 22 22 22q23 0 23 -22v-700l301 212q18 11 32 -6q11 -19 -6 -31z" />
    <glyph glyph-name="longs_s" unicode="&#xf4fd;" horiz-adv-x="650" 
d="M296 890q-14 33 -37 50q-25 16 -63 16q-54 0 -81 -35q-31 -38 -31 -111v-810q0 -22 -21 -22q-24 0 -24 22v810q0 88 41 140q41 51 116 51q51 0 87 -24q37 -25 54 -71q10 -22 -12 -30t-29 14zM224 101q22 -39 61 -58q38 -21 96 -21q68 0 116 24q40 22 45 53
q10 56 -46 82.5t-123 46.5q-76 23 -135.5 53t-47.5 102q10 52 69 83q57 29 134 29q66 0 116 -25q48 -26 78 -76q12 -20 -8 -30q-20 -11 -30 8q-22 38 -61 58t-95 20q-67 0 -114 -23q-40 -23 -45 -51q-8 -43 40.5 -65.5t111.5 -39.5q80 -24 147 -59t53 -121q-10 -54 -69 -84
q-57 -29 -136 -29q-67 0 -117 25t-79 77q-9 20 10 30t29 -9z" />
    <glyph glyph-name="longs_longs_k" unicode="&#xf4fe;" horiz-adv-x="890" 
d="M482 890q-14 33 -37 50q-25 16 -63 16q-54 0 -81 -35q-31 -38 -31 -111v-810q0 -22 -21 -22q-24 0 -24 22v810q0 80 34 130q-25 16 -62 16q-54 0 -81 -35q-31 -38 -31 -111v-810q0 -22 -21 -22q-24 0 -24 22v810q0 88 41 140q41 51 116 51q51 0 87 -24q3 -2 5 -4
q37 28 93 28q51 0 87 -24q7 -5 14 -11v13q0 22 22 22q23 0 23 -22v-700l301 212q18 11 32 -6q11 -19 -6 -31l-311 -218l311 -218q16 -13 6 -30q-14 -18 -32 -5l-301 210v-193q0 -22 -23 -22q-22 0 -22 22v886q-1 2 -1 4z" />
    <glyph glyph-name="longs_longs_t" unicode="&#xf4ff;" horiz-adv-x="797" 
d="M479 979q0 22 23 22q22 0 22 -22v-379h151q22 0 22 -21q0 -23 -22 -23h-151v-388q0 -73 31 -111q26 -35 81 -35q37 0 62 17q23 16 38 51q7 20 29 12q20 -8 12 -28q-17 -47 -54 -72q-38 -24 -87 -24q-75 0 -116 52q-41 50 -41 138v388h-80q-22 0 -22 23q0 21 22 21h80v292
q-14 31 -36 48q-25 16 -63 16q-54 0 -81 -35q-31 -38 -31 -111v-810q0 -22 -21 -22q-24 0 -24 22v810q0 80 34 130q-25 16 -62 16q-54 0 -81 -35q-31 -38 -31 -111v-810q0 -22 -21 -22q-24 0 -24 22v810q0 88 41 140q41 51 116 51q51 0 87 -24q3 -2 5 -4q37 28 93 28
q51 0 87 -24q6 -4 12 -9v11z" />
    <glyph glyph-name="ff" unicode="&#xfb00;" horiz-adv-x="375" 
d="M545 890q-14 33 -37 50q-25 16 -63 16q-54 0 -81 -35q-31 -38 -31 -111v-210h163q22 0 22 -21q0 -23 -22 -23h-163v-556q0 -22 -21 -22q-24 0 -24 22v556h-204v-556q0 -22 -21 -22q-24 0 -24 22v556h-68q-22 0 -22 23q0 21 22 21h68v210q0 88 41 140q41 51 116 51
q51 0 87 -24q22 -15 37 -39q4 6 9 12q41 51 116 51q51 0 87 -24q37 -25 54 -71q10 -22 -12 -30t-29 14zM296 890q-14 33 -37 50q-25 16 -63 16q-54 0 -81 -35q-31 -38 -31 -111v-210h204v210q0 42 9 76z" />
    <glyph glyph-name="fi" unicode="&#xfb01;" horiz-adv-x="419" 
d="M296 890q-14 33 -37 50q-25 16 -63 16q-54 0 -81 -35q-31 -38 -31 -111v-210h163q22 0 22 -21q0 -23 -22 -23h-163v-556q0 -22 -21 -22q-24 0 -24 22v556h-68q-22 0 -22 23q0 21 22 21h68v210q0 88 41 140q41 51 116 51q51 0 87 -24q37 -25 54 -71q10 -22 -12 -30t-29 14
zM356 472v-472q0 -22 -23 -22q-22 0 -22 22v472q0 23 22 23q23 0 23 -23zM285 746q0 -25 14.5 -42t35.5 -17t36 17t15 42t-15 42.5t-36 17.5t-35.5 -17.5t-14.5 -42.5z" />
    <glyph glyph-name="fl" unicode="&#xfb02;" horiz-adv-x="400" 
d="M350 979v-979q0 -22 -23 -22q-22 0 -22 22v876q-6 4 -9 14q-14 33 -37 50q-25 16 -63 16q-54 0 -81 -35q-31 -38 -31 -111v-210h163q22 0 22 -21q0 -23 -22 -23h-163v-556q0 -22 -21 -22q-24 0 -24 22v556h-68q-22 0 -22 23q0 21 22 21h68v210q0 88 41 140q41 51 116 51
q51 0 87 -24q12 -8 22 -19v21q0 22 22 22q23 0 23 -22z" />
    <glyph glyph-name="ffi" unicode="&#xfb03;" horiz-adv-x="668" 
d="M545 890q-14 33 -37 50q-25 16 -63 16q-54 0 -81 -35q-31 -38 -31 -111v-210h163q22 0 22 -21q0 -23 -22 -23h-163v-556q0 -22 -21 -22q-24 0 -24 22v556h-204v-556q0 -22 -21 -22q-24 0 -24 22v556h-68q-22 0 -22 23q0 21 22 21h68v210q0 88 41 140q41 51 116 51
q51 0 87 -24q22 -15 37 -39q4 6 9 12q41 51 116 51q51 0 87 -24q37 -25 54 -71q10 -22 -12 -30t-29 14zM296 890q-14 33 -37 50q-25 16 -63 16q-54 0 -81 -35q-31 -38 -31 -111v-210h204v210q0 42 9 76zM605 472v-472q0 -22 -23 -22q-22 0 -22 22v472q0 23 22 23
q23 0 23 -23zM534 746q0 -25 14.5 -42t35.5 -17t36 17t15 42t-15 42.5t-36 17.5t-35.5 -17.5t-14.5 -42.5z" />
    <glyph glyph-name="ffl" unicode="&#xfb04;" horiz-adv-x="649" 
d="M599 979v-979q0 -22 -23 -22q-22 0 -22 22v876q-6 4 -9 14q-14 33 -37 50q-25 16 -63 16q-54 0 -81 -35q-31 -38 -31 -111v-210h163q22 0 22 -21q0 -23 -22 -23h-163v-556q0 -22 -21 -22q-24 0 -24 22v556h-204v-556q0 -22 -21 -22q-24 0 -24 22v556h-68q-22 0 -22 23
q0 21 22 21h68v210q0 88 41 140q41 51 116 51q51 0 87 -24q22 -15 37 -39q4 6 9 12q41 51 116 51q51 0 87 -24q12 -8 22 -19v21q0 22 22 22q23 0 23 -22zM296 890q-14 33 -37 50q-25 16 -63 16q-54 0 -81 -35q-31 -38 -31 -111v-210h204v210q0 42 9 76z" />
    <glyph glyph-name="m_m" unicode="&#xe5d2;" horiz-adv-x="710" 
d="M615 236q0 107 -33 164q-32 50 -85 50q-57 0 -86 -50q-34 -59 -34 -164v-236q0 -22 -22 -22t-22 22v236q0 105 -34 164q-32 50 -85 50q-56 0 -85 -50q-34 -56 -34 -164v-236q0 -22 -23 -22q-22 0 -22 22v236v236q0 23 22 23q23 0 23 -23v-42q43 65 119 65q80 0 123 -73
q10 -18 18 -38q5 16 18 38q42 73 124 73q80 0 123 -73q40 -66 40 -186v-236q0 -22 -22 -22q-23 0 -23 22v236zM637 572l-570 1q-24 0 -23 24q-1 22 23 22h571q21 -1 22 -25q0 -23 -23 -22z" />
    <glyph glyph-name="degree" unicode="&#xb0;" horiz-adv-x="393" 
d="M91 845q0 -23 8.5 -42.5t23.5 -34t34.5 -23t41.5 -8.5t42 8.5t35 23t23.5 34t8.5 42.5q0 22 -8.5 42t-23.5 35t-35 23.5t-42 8.5t-41.5 -8.5t-34.5 -23.5t-23.5 -35t-8.5 -42zM46 845q0 32 12 60t32.5 49t48.5 33t60 12t60 -12t49 -33t33 -49t12 -60t-12 -60t-33 -48.5
t-49 -32.5t-60 -12t-60 12t-48.5 32.5t-32.5 48.5t-12 60z" />
    <glyph glyph-name="uni00AD" unicode="&#xad;" horiz-adv-x="634" 
d="M509 334l-380 1q-24 0 -23 24q0 22 23 22h380q22 -1 22 -25q0 -23 -22 -22z" />
    <glyph glyph-name="logicalnot" unicode="&#xac;" horiz-adv-x="634" 
d="M505 199q-22 0 -22 23v112l-354 1q-24 0 -23 24q0 22 23 22h376q22 -1 25 -24l-1 -135q0 -24 -24 -23z" />
    <glyph glyph-name="n_n" unicode="&#xe5dc;" 
d="M426 236q0 105 -44 162q-42 52 -122 52t-121 -52q-44 -57 -44 -162v-236q0 -22 -23 -22q-22 0 -22 22v236v236q0 23 22 23q23 0 23 -23v-59q2 4 9 12q56 70 156 70q101 0 157 -70q54 -69 54 -189v-236q0 -22 -23 -22q-22 0 -22 22v236zM448 572l-381 1q-24 0 -23 24
q-1 22 23 22h382q21 -1 22 -25q0 -23 -23 -22z" />
    <glyph glyph-name="longs_longs" unicode="&#xeba6;" horiz-adv-x="252" 
d="M422 890q-14 33 -37 50q-25 16 -63 16q-54 0 -81 -35q-31 -38 -31 -111v-810q0 -22 -21 -22q-24 0 -24 22v810q0 80 34 130q-25 16 -62 16q-54 0 -81 -35q-31 -38 -31 -111v-810q0 -22 -21 -22q-24 0 -24 22v810q0 88 41 140q41 51 116 51q51 0 87 -24q3 -2 5 -4
q37 28 93 28q51 0 87 -24q37 -25 54 -71q10 -22 -12 -30t-29 14z" />
    <glyph glyph-name="registered" unicode="&#xae;" horiz-adv-x="626" 
d="M322 705h-11l122 -137q15 -16 -1 -31q-17 -16 -32 1l-115 131v-116q0 -22 -23 -22q-22 0 -22 22v174v175q0 22 22 22h0.5h1.5h57v0h1q53 0 85 -28q32 -31 32 -81q0 -52 -32 -82q-32 -28 -85 -28zM323 1001q115 0 195 -81q81 -80 81 -195t-81 -195q-80 -81 -195 -81
t-195 81q-81 80 -81 195t81 195q80 81 195 81zM487 889q-69 67 -164 67q-96 0 -164 -67q-68 -69 -68 -164t68 -164q68 -67 164 -67q95 0 164 67q67 68 67 164t-67 164zM285 879v-129h37q35 0 55 16q17 15 17 49q0 32 -17 48q-20 16 -55 16h-1v0h-36z" />
    <glyph glyph-name="braceleft" unicode="{" horiz-adv-x="377" 
d="M310 1025q-91 -66 -99.5 -132.5t-0.5 -132.5q9 -72 1.5 -144.5t-94.5 -144.5q87 -72 94.5 -144t-1.5 -144q-8 -67 0.5 -133t99.5 -132q17 -12 5 -30q-14 -19 -31 -5q-108 77 -117.5 152.5t0.5 152.5q7 67 -1.5 133t-97.5 132q-4 1 -5 6q-13 16 4 30l13 -18l-13 18
q90 66 98.5 132.5t1.5 133.5q-10 76 -0.5 152.5t117.5 153.5q17 14 31 -5q12 -19 -5 -31z" />
    <glyph glyph-name="braceright" unicode="}" horiz-adv-x="377" 
d="M67 -81q91 66 99.5 132.5t0.5 132.5q-9 72 -1.5 144.5t94.5 144.5q-87 72 -94.5 144t1.5 144q8 67 -0.5 133t-99.5 132q-17 12 -5 30q14 19 31 5q108 -77 117.5 -152.5t-0.5 -152.5q-7 -67 1.5 -133t97.5 -132q4 -1 5 -6q13 -16 -4 -30l-13 18l13 -18
q-90 -66 -98.5 -132.5t-1.5 -133.5q10 -76 0.5 -152.5t-117.5 -153.5q-17 -14 -31 5q-12 19 5 31z" />
    <glyph glyph-name="copyright" unicode="&#xa9;" horiz-adv-x="1123" 
d="M767 250q-31 -80 -82 -120q-54 -43 -128 -43q-135 0 -191 118t-56 285q0 189 63 293q64 110 184 110q72 0 128 -43q51 -41 82 -121q9 -21 -13 -28q-21 -8 -29 12q-26 67 -68 102q-43 33 -100 33q-96 0 -146 -87q-56 -96 -56 -271q0 -149 46 -253.5t156 -104.5
q59 0 100 33q42 33 68 101q8 21 29 13q21 -9 13 -29zM561 1001q213 0 362 -149q150 -150 150 -362q0 -213 -150 -362q-149 -149 -362 -149q-212 0 -362 149q-149 150 -149 362q0 211 149 362q150 149 362 149zM891 820q-137 136 -330 136t-329 -136q-137 -137 -137 -330
t137 -330q135 -137 329 -137q193 0 330 137t137 330t-137 330z" />
    <glyph glyph-name="florin" unicode="&#x192;" horiz-adv-x="126" 
d="M-171 -375q13 -33 37 -51q25 -16 62 -16q55 0 82 34q30 39 30 112l-1 852h-68q-22 0 -22 23q0 21 22 21h68v210q0 88 41 140q41 51 116 51q51 0 87 -24q37 -25 54 -71q10 -22 -12 -30t-29 14q-14 33 -37 50q-25 16 -63 16q-54 0 -81 -35q-31 -38 -31 -111v-210h163
q22 0 22 -21q0 -23 -22 -23h-163v-852q0 -87 -39 -139q-40 -52 -117 -52q-49 0 -87 25q-35 24 -54 71q-6 21 13 28q21 10 29 -12z" />
    <glyph glyph-name="perthousand" unicode="&#x2030;" horiz-adv-x="750" 
d="M520 968l-462 -954q-9 -20 -30 -10q-20 9 -10 29l461 955q10 20 30 10t11 -30zM724 166q0 -34 -9.5 -64t-26.5 -52.5t-39.5 -35.5t-48.5 -13t-48.5 13t-39.5 35.5t-27 52.5t-10 64t10 64t27 52.5t39.5 35.5t48.5 13t48.5 -13t39.5 -35.5t26.5 -52.5t9.5 -64zM517 165
q0 -25 6.5 -47.5t17.5 -39t26 -26t33 -9.5t33 9.5t26.5 26t18 39t6.5 47.5t-6.5 47.5t-18 39.5t-26.5 26.5t-33 9.5t-33 -9.5t-26 -26.5t-17.5 -39.5t-6.5 -47.5zM273 825q0 -34 -9.5 -64t-26.5 -52.5t-39.5 -35.5t-48.5 -13t-48.5 13t-39.5 35.5t-27 52.5t-10 64t10 64
t27 52.5t39.5 35.5t48.5 13t48.5 -13t39.5 -35.5t26.5 -52.5t9.5 -64zM66 824q0 -25 6.5 -47.5t17.5 -39t26 -26t33 -9.5t33 9.5t26.5 26t18 39t6.5 47.5t-6.5 47.5t-18 39.5t-26.5 26.5t-33 9.5t-33 -9.5t-26 -26.5t-17.5 -39.5t-6.5 -47.5zM447 166q0 -34 -9.5 -64
t-26.5 -52.5t-39.5 -35.5t-48.5 -13t-48.5 13t-39.5 35.5t-27 52.5t-10 64t10 64t27 52.5t39.5 35.5t48.5 13t48.5 -13t39.5 -35.5t26.5 -52.5t9.5 -64zM240 165q0 -25 6.5 -47.5t17.5 -39t26 -26t33 -9.5t33 9.5t26.5 26t18 39t6.5 47.5t-6.5 47.5t-18 39.5t-26.5 26.5
t-33 9.5t-33 -9.5t-26 -26.5t-17.5 -39.5t-6.5 -47.5z" />
    <glyph glyph-name="plusminus" unicode="&#xb1;" horiz-adv-x="634" 
d="M509 129l-380 1q-24 0 -23 24q0 22 23 22h380q22 -1 22 -25q0 -23 -22 -22zM509 420h-169v-166q0 -24 -24 -23q-22 0 -22 23v166l-165 1q-24 0 -23 24q0 22 23 22h165v167q1 22 25 22q23 0 22 -22l-1 -167h169q22 -1 22 -25q0 -23 -22 -22z" />
    <glyph glyph-name="sterling" unicode="&#xa3;" horiz-adv-x="679" 
d="M509 334l-273 1v-312h380q22 0 22 -23q0 -22 -22 -22h-543q-23 0 -23 22q0 23 23 23h118v312h-62q-24 0 -23 24q0 22 23 22h62v362q0 121 54 189q55 69 157 69q100 0 156 -69q54 -67 54 -189q0 -22 -22 -22q-23 0 -23 22q0 106 -44 161q-41 53 -121 53t-122 -53
q-44 -55 -44 -161v-362h273q22 -1 22 -25q0 -23 -22 -22z" />
    <glyph glyph-name="macron" unicode="&#xaf;" horiz-adv-x="522" 
d="M454 723l-380 1q-24 0 -23 24q0 22 23 22h380q22 -1 22 -25q0 -23 -22 -22z" />
    <glyph glyph-name="dagger" unicode="&#x2020;" horiz-adv-x="360" 
d="M319 792h-120v-792q0 -22 -23 -22q-22 0 -22 22v793l-119 1q-23 0 -22 23q0 23 22 23h119v139q0 22 22 22q23 0 23 -22v-139h121q22 -1 23 -24q0 -24 -24 -24z" />
    <glyph glyph-name="daggerdbl" unicode="&#x2021;" horiz-adv-x="360" 
d="M321 792h-120v-589h121q22 0 23 -24q0 -23 -24 -23h-120v-156q0 -22 -23 -22q-22 0 -22 22v156l-117 1q-24 0 -23 24q-1 22 23 22h117v590l-119 1q-23 0 -22 23q0 23 22 23h119v139q0 22 22 22q23 0 23 -22v-139h121q22 -1 23 -24q0 -24 -24 -24z" />
    <glyph glyph-name="currency" unicode="&#xa4;" horiz-adv-x="549" 
d="M371 586q-40 40 -96 40q-57 0 -96 -40v0v0q-40 -41 -40 -96q0 -57 40 -96v0v0q39 -40 96 -40q56 0 96 40v0v0q40 39 40 96q0 55 -40 96v0zM418 600q38 -48 38 -110q0 -64 -38 -111l66 -67q15 -15 0 -31q-17 -15 -32 0l-66 66q-48 -38 -111 -38q-64 0 -111 38l-66 -66
q-16 -16 -31 0q-17 16 0 31l65 67q-38 47 -38 111q0 62 38 110l-65 67q-17 15 0 31q15 16 31 0l66 -65q49 38 111 38q61 0 111 -38l66 65q15 16 32 0q15 -16 0 -31z" />
    <glyph glyph-name="roundr" unicode="&#xa75b;" 
d="M95 471q0 -106 44 -161q41 -53 121 -53t122 53q44 55 44 161v1q0 23 22 23q23 0 23 -23v-1v-472q0 -22 -23 -22q-22 0 -22 22v296q-2 -4 -9 -13q-55 -69 -157 -69q-100 0 -156 69q-54 67 -54 189v1q0 23 22 23q23 0 23 -23v-1z" />
    <glyph glyph-name="Cacute" unicode="&#x106;" horiz-adv-x="684" 
d="M625 183q-39 -102 -104 -152q-68 -53 -160 -53q-152 0 -232 137q-42 69 -60.5 166t-18.5 209q0 110 18.5 206.5t60.5 167.5q80 137 232 137q92 0 160 -53q66 -52 104 -152q9 -22 -12 -29q-22 -8 -29 13q-35 89 -90 133q-55 43 -133 43q-127 0 -194 -114
q-38 -65 -55 -156.5t-17 -195.5q0 -107 17 -197.5t55 -154.5q67 -116 194 -116q77 0 133 44q56 43 90 133q7 20 29 13q21 -9 12 -29zM436 1277l-166 -100q-19 -11 -31 9q-11 18 8 30l165 99q20 12 32 -7q11 -20 -8 -31z" />
    <glyph glyph-name="Ccaron" unicode="&#x10c;" horiz-adv-x="684" 
d="M625 183q-39 -102 -104 -152q-68 -53 -160 -53q-152 0 -232 137q-42 69 -60.5 166t-18.5 209q0 110 18.5 206.5t60.5 167.5q80 137 232 137q92 0 160 -53q66 -52 104 -152q9 -22 -12 -29q-22 -8 -29 13q-35 89 -90 133q-55 43 -133 43q-127 0 -194 -114
q-38 -65 -55 -156.5t-17 -195.5q0 -107 17 -197.5t55 -154.5q67 -116 194 -116q77 0 133 44q56 43 90 133q7 20 29 13q21 -9 12 -29zM455 1246l-114 -88l-112 87q-18 14 -5 32q15 15 30 3l87 -67l86 68q17 12 32 -3q13 -18 -4 -32z" />
    <glyph glyph-name="Ccircumflex" unicode="&#x108;" horiz-adv-x="684" 
d="M625 183q-39 -102 -104 -152q-68 -53 -160 -53q-152 0 -232 137q-42 69 -60.5 166t-18.5 209q0 110 18.5 206.5t60.5 167.5q80 137 232 137q92 0 160 -53q66 -52 104 -152q9 -22 -12 -29q-22 -8 -29 13q-35 89 -90 133q-55 43 -133 43q-127 0 -194 -114
q-38 -65 -55 -156.5t-17 -195.5q0 -107 17 -197.5t55 -154.5q67 -116 194 -116q77 0 133 44q56 43 90 133q7 20 29 13q21 -9 12 -29zM228 1205l114 88l112 -87q18 -14 5 -32q-15 -15 -30 -3l-87 67l-86 -68q-17 -12 -32 3q-13 18 4 32z" />
    <glyph glyph-name="Amacron" unicode="&#x100;" horiz-adv-x="790" 
d="M245 450l-149 -456q-6 -21 -28 -14q-18 6 -14 27l318 978v0v1v0q4 10 15 14q20 6 28 -14l318 -979q7 -20 -14 -27t-29 14l-148 456h-297zM393 906l-133 -411h268zM586 1223l-380 1q-24 0 -23 24q0 22 23 22h380q22 -1 22 -25q0 -23 -22 -22z" />
    <glyph glyph-name="AEacute" unicode="&#x1fc;" horiz-adv-x="912" 
d="M21 -15q-20 9 -10 29l468 974q7 15 21 13h2h355q22 0 22 -22q0 -23 -22 -23h-332v-461h332q22 0 22 -23q0 -22 -22 -22h-332v-428h332q22 0 22 -22t-22 -22h-355q-22 0 -22 22v450h-211l-218 -455q-9 -20 -30 -10zM480 495v390l-189 -390h189zM693 1277l-166 -100
q-19 -11 -31 9q-11 18 8 30l165 99q20 12 32 -7q11 -20 -8 -31z" />
    <glyph glyph-name="Dcaron" unicode="&#x10e;" horiz-adv-x="621" 
d="M260 1001q152 0 232 -137q42 -71 60.5 -167.5t18.5 -206.5q0 -112 -18.5 -209t-60.5 -166q-80 -137 -232 -137h-188q-22 0 -22 22v979q0 22 22 22h188zM260 22q126 0 194 116q38 64 55 154.5t17 197.5q0 104 -17 195.5t-55 156.5q-68 114 -194 114h-165v-934h165z
M347 1246l-114 -88l-112 87q-18 14 -5 32q15 15 30 3l87 -67l86 68q17 12 32 -3q13 -18 -4 -32z" />
    <glyph glyph-name="Dcroat" unicode="&#x110;" horiz-adv-x="621" 
d="M260 1001q152 0 232 -137q42 -71 60.5 -167.5t18.5 -206.5q0 -112 -18.5 -209t-60.5 -166q-80 -137 -232 -137h-188q-22 0 -22 22v979q0 22 22 22h188zM260 22q126 0 194 116q38 64 55 154.5t17 197.5q0 104 -17 195.5t-55 156.5q-68 114 -194 114h-165v-934h165z
M391 474l-380 1q-24 0 -23 24q0 22 23 22h380q22 -1 22 -25q0 -23 -22 -22z" />
    <glyph glyph-name="breve" unicode="&#x2d8;" horiz-adv-x="339" 
d="M98 720q38 -38 72 -38t70 37q16 16 33 1q16 -16 0 -32q-50 -51 -103 -51q-52 1 -104 51q-16 15 0 32q16 15 32 0z" />
    <glyph glyph-name="ogonek" unicode="&#x2db;" horiz-adv-x="236" 
d="M135 -22q-36 -23 -39 -60q0 -14 4.5 -23t16.5 -16t34 0q21 8 28 -13t-13 -28q-45 -15 -71.5 2.5t-35.5 38.5t-7 42q3 59 58 94q19 11 31 -7q13 -18 -6 -30z" />
    <glyph glyph-name="dotaccent" unicode="&#x2d9;" horiz-adv-x="170" 
d="M36 746q0 25 14.5 42.5t35.5 17.5t36 -17.5t15 -42.5t-15 -42t-36 -17t-35.5 17t-14.5 42z" />
    <glyph glyph-name="Aogonek" unicode="&#x104;" horiz-adv-x="800" 
d="M713 -22q-36 -23 -39 -60q0 -14 4.5 -23t16.5 -16t34 0q21 8 28 -13t-13 -28q-45 -15 -71.5 2.5t-35.5 38.5t-7 42q3 57 54 91l-142 438h-297l-149 -456q-6 -21 -28 -14q-18 6 -14 27l318 978v1q4 10 15 14q20 6 28 -14l318 -979q7 -20 -14 -27q-3 -1 -5 -1zM393 906
l-133 -411h268z" />
    <glyph glyph-name="Abreve" unicode="&#x102;" horiz-adv-x="790" 
d="M245 450l-149 -456q-6 -21 -28 -14q-18 6 -14 27l318 978v1q4 10 15 14q20 6 28 -14l318 -979q7 -20 -14 -27t-29 14l-148 456h-297zM393 906l-133 -411h268zM323 1220q38 -38 72 -38t70 37q16 16 33 1q16 -16 0 -32q-50 -51 -103 -51q-52 1 -104 51q-16 15 0 32
q16 15 32 0z" />
    <glyph glyph-name="Cdotaccent" unicode="&#x10a;" horiz-adv-x="684" 
d="M625 183q-39 -102 -104 -152q-68 -53 -160 -53q-152 0 -232 137q-42 69 -60.5 166t-18.5 209q0 110 18.5 206.5t60.5 167.5q80 137 232 137q92 0 160 -53q66 -52 104 -152q9 -22 -12 -29q-22 -8 -29 13q-35 89 -90 133q-55 43 -133 43q-127 0 -194 -114
q-38 -65 -55 -156.5t-17 -195.5q0 -107 17 -197.5t55 -154.5q67 -116 194 -116q77 0 133 44q56 43 90 133q7 20 29 13q21 -9 12 -29zM291 1246q0 25 14.5 42.5t35.5 17.5t36 -17.5t15 -42.5t-15 -42t-36 -17t-35.5 17t-14.5 42z" />
    <glyph glyph-name="Ebreve" unicode="&#x114;" horiz-adv-x="549" 
d="M95 450v-428h382q22 0 22 -22t-22 -22h-405q-22 0 -22 22v979q0 22 22 22h405q22 0 22 -22q0 -23 -22 -23h-382v-461h382q22 0 22 -23q0 -22 -22 -22h-382zM203 1220q38 -38 72 -38t70 37q16 16 33 1q16 -16 0 -32q-50 -51 -103 -51q-52 1 -104 51q-16 15 0 32
q16 15 32 0z" />
    <glyph glyph-name="Ecaron" unicode="&#x11a;" horiz-adv-x="549" 
d="M95 450v-428h382q22 0 22 -22t-22 -22h-405q-22 0 -22 22v979q0 22 22 22h405q22 0 22 -22q0 -23 -22 -23h-382v-461h382q22 0 22 -23q0 -22 -22 -22h-382zM388 1246l-114 -88l-112 87q-18 14 -5 32q15 15 30 3l87 -67l86 68q17 12 32 -3q13 -18 -4 -32z" />
    <glyph glyph-name="Edotaccent" unicode="&#x116;" horiz-adv-x="549" 
d="M95 450v-428h382q22 0 22 -22t-22 -22h-405q-22 0 -22 22v979q0 22 22 22h405q22 0 22 -22q0 -23 -22 -23h-382v-461h382q22 0 22 -23q0 -22 -22 -22h-382zM224 1246q0 25 14.5 42.5t35.5 17.5t36 -17.5t15 -42.5t-15 -42t-36 -17t-35.5 17t-14.5 42z" />
    <glyph glyph-name="Emacron" unicode="&#x112;" horiz-adv-x="549" 
d="M95 450v-428h382q22 0 22 -22t-22 -22h-405q-22 0 -22 22v979q0 22 22 22h405q22 0 22 -22q0 -23 -22 -23h-382v-461h382q22 0 22 -23q0 -22 -22 -22h-382zM465 1223l-380 1q-24 0 -23 24q0 22 23 22h380q22 -1 22 -25q0 -23 -22 -22z" />
    <glyph glyph-name="Eogonek" unicode="&#x118;" horiz-adv-x="549" 
d="M448 -22q-36 -23 -39 -60q0 -14 4.5 -23t16.5 -16t34 0q21 8 28 -13t-13 -28q-45 -15 -71.5 2.5t-35.5 38.5t-7 42q1 32 18 57h-311q-22 0 -22 22v979q0 22 22 22h405q22 0 22 -22q0 -23 -22 -23h-382v-461h382q22 0 22 -23q0 -22 -22 -22h-382v-428h382q22 0 22 -22
t-22 -22h-29z" />
    <glyph glyph-name="Gbreve" unicode="&#x11e;" horiz-adv-x="763" 
d="M692 450h-65v-450q0 -22 -23 -22q-22 0 -22 22v97q-27 -41 -61 -66q-68 -53 -160 -53q-152 0 -232 137q-42 69 -60.5 166t-18.5 209q0 110 18.5 206.5t60.5 167.5q80 137 232 137q92 0 160 -53q66 -52 104 -152q9 -22 -12 -29q-22 -8 -29 13q-35 89 -90 133
q-55 43 -133 43q-127 0 -194 -114q-38 -65 -55 -156.5t-17 -195.5q0 -107 17 -197.5t55 -154.5q67 -116 194 -116q77 0 133 44q55 43 88 129v255h-124q-21 0 -21 22q0 23 21 23h234q21 0 21 -23q0 -22 -21 -22zM310 1220q38 -38 72 -38t70 37q16 16 33 1q16 -16 0 -32
q-50 -51 -103 -51q-52 1 -104 51q-16 15 0 32q16 15 32 0z" />
    <glyph glyph-name="Gcircumflex" unicode="&#x11c;" horiz-adv-x="763" 
d="M692 450h-65v-450q0 -22 -23 -22q-22 0 -22 22v97q-27 -41 -61 -66q-68 -53 -160 -53q-152 0 -232 137q-42 69 -60.5 166t-18.5 209q0 110 18.5 206.5t60.5 167.5q80 137 232 137q92 0 160 -53q66 -52 104 -152q9 -22 -12 -29q-22 -8 -29 13q-35 89 -90 133
q-55 43 -133 43q-127 0 -194 -114q-38 -65 -55 -156.5t-17 -195.5q0 -107 17 -197.5t55 -154.5q67 -116 194 -116q77 0 133 44q55 43 88 129v255h-124q-21 0 -21 22q0 23 21 23h234q21 0 21 -23q0 -22 -21 -22zM268 1205l114 88l112 -87q18 -14 5 -32q-15 -15 -30 -3l-87 67
l-86 -68q-17 -12 -32 3q-13 18 4 32z" />
    <glyph glyph-name="commaaccent" unicode="&#xf6c3;" horiz-adv-x="498" 
d="M219 583q-10 23 26 44t53 -4q33 -43 4 -119q-21 -60 -86 -155q-13 -18 -32 -5q-18 13 -6 32q61 89 81 143q18 50 -7.5 48.5t-32.5 15.5z" />
    <glyph glyph-name="Gcommaaccent" unicode="&#x122;" horiz-adv-x="763" 
d="M692 450h-65v-450q0 -22 -23 -22q-22 0 -22 22v97q-27 -41 -61 -66q-68 -53 -160 -53q-152 0 -232 137q-42 69 -60.5 166t-18.5 209q0 110 18.5 206.5t60.5 167.5q80 137 232 137q92 0 160 -53q66 -52 104 -152q9 -22 -12 -29q-22 -8 -29 13q-35 89 -90 133
q-55 43 -133 43q-127 0 -194 -114q-38 -65 -55 -156.5t-17 -195.5q0 -107 17 -197.5t55 -154.5q67 -116 194 -116q77 0 133 44q55 43 88 129v255h-124q-21 0 -21 22q0 23 21 23h234q21 0 21 -23q0 -22 -21 -22zM352 -127q-10 23 26 44t53 -4q33 -43 4 -119q-21 -60 -86 -155
q-13 -18 -32 -5q-18 13 -6 32q61 89 81 143q18 50 -7.5 48.5t-32.5 15.5z" />
    <glyph glyph-name="Gdotaccent" unicode="&#x120;" horiz-adv-x="763" 
d="M692 450h-65v-450q0 -22 -23 -22q-22 0 -22 22v97q-27 -41 -61 -66q-68 -53 -160 -53q-152 0 -232 137q-42 69 -60.5 166t-18.5 209q0 110 18.5 206.5t60.5 167.5q80 137 232 137q92 0 160 -53q66 -52 104 -152q9 -22 -12 -29q-22 -8 -29 13q-35 89 -90 133
q-55 43 -133 43q-127 0 -194 -114q-38 -65 -55 -156.5t-17 -195.5q0 -107 17 -197.5t55 -154.5q67 -116 194 -116q77 0 133 44q55 43 88 129v255h-124q-21 0 -21 22q0 23 21 23h234q21 0 21 -23q0 -22 -21 -22zM331 1246q0 25 14.5 42.5t35.5 17.5t36 -17.5t15 -42.5
t-15 -42t-36 -17t-35.5 17t-14.5 42z" />
    <glyph glyph-name="Hbar" unicode="&#x126;" horiz-adv-x="624" 
d="M595 738h-21v-738q0 -22 -23 -22q-22 0 -22 22v452q-3 -2 -8 -2h-426v-450q0 -22 -23 -22q-22 0 -22 22v739h-22q-24 0 -23 24q0 22 23 22h22v194q0 22 22 22q23 0 23 -22v-194h434v194q0 22 22 22q23 0 23 -22v-194h21q22 -1 22 -25q0 -23 -22 -22zM521 495q3 0 8 -2
v245l-434 1v-244h426z" />
    <glyph glyph-name="Hcircumflex" unicode="&#x124;" horiz-adv-x="624" 
d="M574 979v-979q0 -22 -23 -22q-22 0 -22 22v452q-3 -2 -8 -2h-426v-450q0 -22 -23 -22q-22 0 -22 22v979q0 22 22 22q23 0 23 -22v-484h426q3 0 8 -2v486q0 22 22 22q23 0 23 -22zM198 1205l114 88l112 -87q18 -14 5 -32q-15 -15 -30 -3l-87 67l-86 -68q-17 -12 -32 3
q-13 18 4 32z" />
    <glyph glyph-name="Ibreve" unicode="&#x12c;" horiz-adv-x="427" 
d="M72 22h119v934h-119q-22 0 -22 23q0 22 22 22h283q22 0 22 -22q0 -23 -22 -23h-119v-934h119q22 0 22 -22t-22 -22h-283q-22 0 -22 22t22 22zM142 1220q38 -38 72 -38t70 37q16 16 33 1q16 -16 0 -32q-50 -51 -103 -51q-52 1 -104 51q-16 15 0 32q16 15 32 0z" />
    <glyph glyph-name="Idotaccent" unicode="&#x130;" horiz-adv-x="427" 
d="M72 22h119v934h-119q-22 0 -22 23q0 22 22 22h283q22 0 22 -22q0 -23 -22 -23h-119v-934h119q22 0 22 -22t-22 -22h-283q-22 0 -22 22t22 22zM163 1246q0 25 14.5 42.5t35.5 17.5t36 -17.5t15 -42.5t-15 -42t-36 -17t-35.5 17t-14.5 42z" />
    <glyph glyph-name="Imacron" unicode="&#x12a;" horiz-adv-x="427" 
d="M72 22h119v934h-119q-22 0 -22 23q0 22 22 22h283q22 0 22 -22q0 -23 -22 -23h-119v-934h119q22 0 22 -22t-22 -22h-283q-22 0 -22 22t22 22zM405 1223l-380 1q-24 0 -23 24q0 22 23 22h380q22 -1 22 -25q0 -23 -22 -22z" />
    <glyph glyph-name="Iogonek" unicode="&#x12e;" horiz-adv-x="427" 
d="M326 -22q-36 -23 -39 -60q0 -14 4.5 -23t16.5 -16t34 0q21 8 28 -13t-13 -28q-45 -15 -71.5 2.5t-35.5 38.5t-7 42q1 32 18 57h-189q-22 0 -22 22t22 22h119v934h-119q-22 0 -22 23q0 22 22 22h283q22 0 22 -22q0 -23 -22 -23h-119v-934h119q22 0 22 -22t-22 -22h-29z
" />
    <glyph glyph-name="Itilde" unicode="&#x128;" horiz-adv-x="427" 
d="M72 22h119v934h-119q-22 0 -22 23q0 22 22 22h283q22 0 22 -22q0 -23 -22 -23h-119v-934h119q22 0 22 -22t-22 -22h-283q-22 0 -22 22t22 22zM10 1154q24 32 47 56t50 33q59 19 122 -65q22 -32 47 -38q13 -4 26 -1q12 4 27 14q37 27 52 74q6 22 28 17q22 -8 16 -29
q-19 -63 -68 -99q-22 -17 -44 -21q-27 -7 -51 1q-39 12 -70 55q-43 58 -71 48q-17 -5 -35.5 -25.5t-39.5 -47.5q-14 -20 -32 -5t-4 33z" />
    <glyph glyph-name="IJ" unicode="&#x132;" horiz-adv-x="669" 
d="M72 22h119v934h-119q-22 0 -22 23q0 22 22 22h283q22 0 22 -22q0 -23 -22 -23h-119v-934h119q22 0 22 -22t-22 -22h-283q-22 0 -22 22t22 22zM557 -139v1095h-119q-22 0 -22 23q0 22 22 22h282q23 0 23 -22q0 -23 -23 -23h-118v-1095q0 -121 -54 -189q-55 -69 -157 -69
q-100 0 -156 69q-54 67 -54 189q0 22 22 22q23 0 23 -22q0 -106 44 -161q41 -53 121 -53t122 53q44 55 44 161z" />
    <glyph glyph-name="Jcircumflex" unicode="&#x134;" horiz-adv-x="529" 
d="M426 236v720h-119q-22 0 -22 23q0 22 22 22h282q23 0 23 -22q0 -23 -23 -23h-118v-720q0 -121 -54 -189q-55 -69 -157 -69q-100 0 -156 69q-54 67 -54 189q0 22 22 22q23 0 23 -22q0 -106 44 -161q41 -53 121 -53t122 53q44 55 44 161zM334 1205l114 88l112 -87
q18 -14 5 -32q-15 -15 -30 -3l-87 67l-86 -68q-17 -12 -32 3q-13 18 4 32z" />
    <glyph glyph-name="Kcommaaccent" unicode="&#x136;" horiz-adv-x="621" 
d="M556 964l-453 -474l453 -475q14 -15 -1 -30q-16 -16 -31 1l-429 448v-434q0 -22 -23 -22q-22 0 -22 22v979q0 22 22 22q23 0 23 -22v-434l429 449q15 15 31 1q16 -16 1 -31zM250 31q-10 23 26 44t53 -4q33 -43 4 -119q-21 -60 -86 -155q-13 -18 -32 -5q-18 13 -6 32
q61 89 81 143q18 50 -7.5 48.5t-32.5 15.5z" />
    <glyph glyph-name="Lacute" unicode="&#x139;" horiz-adv-x="549" 
d="M95 979v-957h382q22 0 22 -22t-22 -22h-405q-22 0 -22 22v979q0 22 22 22q23 0 23 -22zM369 1277l-166 -100q-19 -11 -31 9q-11 18 8 30l165 99q20 12 32 -7q11 -20 -8 -31z" />
    <glyph glyph-name="Lcaron" unicode="&#x13d;" horiz-adv-x="549" 
d="M95 979v-957h382q22 0 22 -22t-22 -22h-405q-22 0 -22 22v979q0 22 22 22q23 0 23 -22zM245 944q-11 22 25.5 43.5t53.5 -3.5q33 -43 4 -119q-21 -60 -86 -154q-13 -20 -32 -7q-18 14 -6 32q61 90 80 144q19 50 -6.5 48t-32.5 16z" />
    <glyph glyph-name="Lcommaaccent" unicode="&#x13b;" horiz-adv-x="549" 
d="M95 979v-957h382q22 0 22 -22t-22 -22h-405q-22 0 -22 22v979q0 22 22 22q23 0 23 -22zM245 -125q-10 23 26 44t53 -4q33 -43 4 -119q-21 -60 -86 -155q-13 -18 -32 -5q-18 13 -6 32q61 89 81 143q18 50 -7.5 48.5t-32.5 15.5z" />
    <glyph glyph-name="Ldot" unicode="&#x13f;" horiz-adv-x="549" 
d="M95 979v-957h382q22 0 22 -22t-22 -22h-405q-22 0 -22 22v979q0 22 22 22q23 0 23 -22zM224 520q0 -25 14.5 -42t35.5 -17t36 17t15 42t-15 42.5t-36 17.5t-35.5 -17.5t-14.5 -42.5z" />
    <glyph glyph-name="Lslash" unicode="&#x141;" horiz-adv-x="663" 
d="M347 579l-138 -153v-404h382q22 0 22 -22t-22 -22h-405q-22 0 -22 22v376l-94 -104q-17 -18 -34 -1q-17 14 -1 32l129 143v533q0 22 22 22q23 0 23 -22v-483l104 115q15 15 33 0q17 -15 1 -32z" />
    <glyph glyph-name="Nacute" unicode="&#x143;" horiz-adv-x="643" 
d="M593 979v-979q0 -22 -23 -22q-14 0 -20 14l-455 894v-886q0 -22 -23 -22q-22 0 -22 22v980q0 13 12 18q20 10 30 -9l456 -896v886q0 22 22 22q23 0 23 -22zM416 1277l-166 -100q-19 -11 -31 9q-11 18 8 30l165 99q20 12 32 -7q11 -20 -8 -31z" />
    <glyph glyph-name="Ncaron" unicode="&#x147;" horiz-adv-x="643" 
d="M593 979v-979q0 -22 -23 -22q-14 0 -20 14l-455 894v-886q0 -22 -23 -22q-22 0 -22 22v980q0 13 12 18q20 10 30 -9l456 -896v886q0 22 22 22q23 0 23 -22zM435 1246l-114 -88l-112 87q-18 14 -5 32q15 15 30 3l87 -67l86 68q17 12 32 -3q13 -18 -4 -32z" />
    <glyph glyph-name="Ncommaaccent" unicode="&#x145;" horiz-adv-x="643" 
d="M593 979v-979q0 -22 -23 -22q-14 0 -20 14l-455 894v-886q0 -22 -23 -22q-22 0 -22 22v980q0 13 12 18q20 10 30 -9l456 -896v886q0 22 22 22q23 0 23 -22zM292 37q-10 23 26 44t53 -4q33 -43 4 -119q-21 -60 -86 -155q-13 -18 -32 -5q-18 13 -6 32q61 89 81 143
q18 50 -7.5 48.5t-32.5 15.5z" />
    <glyph glyph-name="Obreve" unicode="&#x14e;" horiz-adv-x="722" 
d="M361 1001q151 0 233 -137q40 -71 59 -167.5t19 -206.5q0 -112 -19 -209t-59 -166q-83 -137 -233 -137q-152 0 -232 137q-42 69 -60.5 166t-18.5 209q0 110 18.5 206.5t60.5 167.5q80 137 232 137zM555 842q-68 114 -194 114q-127 0 -194 -114q-38 -65 -55 -156.5
t-17 -195.5q0 -107 17 -197.5t55 -154.5q67 -116 194 -116q126 0 194 116q37 64 55 154.5t18 197.5q0 104 -18 195.5t-55 156.5zM289 1220q38 -38 72 -38t70 37q16 16 33 1q16 -16 0 -32q-50 -51 -103 -51q-52 1 -104 51q-16 15 0 32q16 15 32 0z" />
    <glyph glyph-name="hungarumlaut" unicode="&#x2dd;" horiz-adv-x="438" 
d="M370 813l-99 -166q-12 -19 -32 -7q-18 11 -7 30l99 165q12 20 32 9q19 -12 7 -31zM219 818l-99 -166q-12 -19 -32 -7q-18 11 -7 30l99 165q12 20 32 9q19 -12 7 -31z" />
    <glyph glyph-name="Ohungarumlaut" unicode="&#x150;" horiz-adv-x="722" 
d="M361 1001q151 0 233 -137q40 -71 59 -167.5t19 -206.5q0 -112 -19 -209t-59 -166q-83 -137 -233 -137q-152 0 -232 137q-42 69 -60.5 166t-18.5 209q0 110 18.5 206.5t60.5 167.5q80 137 232 137zM555 842q-68 114 -194 114q-127 0 -194 -114q-38 -65 -55 -156.5
t-17 -195.5q0 -107 17 -197.5t55 -154.5q67 -116 194 -116q126 0 194 116q37 64 55 154.5t18 197.5q0 104 -18 195.5t-55 156.5zM533 1309l-99 -166q-12 -19 -32 -7q-18 11 -7 30l99 165q12 20 32 9q19 -12 7 -31zM382 1314l-99 -166q-12 -19 -32 -7q-18 11 -7 30l99 165
q12 20 32 9q19 -12 7 -31z" />
    <glyph glyph-name="Omacron" unicode="&#x14c;" horiz-adv-x="722" 
d="M361 1001q151 0 233 -137q40 -71 59 -167.5t19 -206.5q0 -112 -19 -209t-59 -166q-83 -137 -233 -137q-152 0 -232 137q-42 69 -60.5 166t-18.5 209q0 110 18.5 206.5t60.5 167.5q80 137 232 137zM555 842q-68 114 -194 114q-127 0 -194 -114q-38 -65 -55 -156.5
t-17 -195.5q0 -107 17 -197.5t55 -154.5q67 -116 194 -116q126 0 194 116q37 64 55 154.5t18 197.5q0 104 -18 195.5t-55 156.5zM552 1223l-380 1q-24 0 -23 24q0 22 23 22h380q22 -1 22 -25q0 -23 -22 -22z" />
    <glyph glyph-name="Oslashacute" unicode="&#x1fe;" horiz-adv-x="722" 
d="M612 968l-37 -76q10 -13 19 -28q40 -71 59 -167.5t19 -206.5q0 -112 -19 -209t-59 -166q-83 -137 -233 -137q-116 0 -190 79l-21 -43q-9 -20 -30 -10q-20 9 -10 29l30 63q-6 9 -11 19q-42 69 -60.5 166t-18.5 209q0 110 18.5 206.5t60.5 167.5q80 137 232 137
q109 0 181 -72l29 59q10 20 30 10t11 -30zM555 842q-1 2 -3 3l-360 -744q64 -79 169 -79q126 0 194 116q37 64 55 154.5t18 197.5q0 104 -18 195.5t-55 156.5zM361 956q-127 0 -194 -114q-38 -65 -55 -156.5t-17 -195.5q0 -107 17 -198q16 -86 51 -148l359 743
q-63 69 -161 69zM455 1277l-166 -100q-19 -11 -31 9q-11 18 8 30l165 99q20 12 32 -7q11 -20 -8 -31z" />
    <glyph glyph-name="Racute" unicode="&#x154;" horiz-adv-x="587" 
d="M95 431v-431q0 -22 -23 -22q-22 0 -22 22v981q2 20 22 20h169q136 0 212 -69q76 -72 76 -198q0 -128 -76 -198q-76 -69 -212 -69h-119l401 -452q14 -16 -2 -31t-31 2zM95 957v-445h146q119 0 181 57t62 165t-62 165t-181 57q-2 0 -2 1h-144zM388 1277l-166 -100
q-19 -11 -31 9q-11 18 8 30l165 99q20 12 32 -7q11 -20 -8 -31z" />
    <glyph glyph-name="Rcaron" unicode="&#x158;" horiz-adv-x="587" 
d="M95 431v-431q0 -22 -23 -22q-22 0 -22 22v981q2 20 22 20h169q136 0 212 -69q76 -72 76 -198q0 -128 -76 -198q-76 -69 -212 -69h-119l401 -452q14 -16 -2 -31t-31 2zM95 957v-445h146q119 0 181 57t62 165t-62 165t-181 57q-2 0 -2 1h-144zM407 1246l-114 -88l-112 87
q-18 14 -5 32q15 15 30 3l87 -67l86 68q17 12 32 -3q13 -18 -4 -32z" />
    <glyph glyph-name="Rcommaaccent" unicode="&#x156;" horiz-adv-x="587" 
d="M95 431v-431q0 -22 -23 -22q-22 0 -22 22v981q2 20 22 20h169q136 0 212 -69q76 -72 76 -198q0 -128 -76 -198q-76 -69 -212 -69h-119l401 -452q14 -16 -2 -31t-31 2zM95 957v-445h146q119 0 181 57t62 165t-62 165t-181 57q-2 0 -2 1h-144zM199 41q-10 23 26 44t53 -4
q33 -43 4 -119q-21 -60 -86 -155q-13 -18 -32 -5q-18 13 -6 32q61 89 81 143q18 50 -7.5 48.5t-32.5 15.5z" />
    <glyph glyph-name="Sacute" unicode="&#x15a;" horiz-adv-x="656" 
d="M98 196q33 -88 87 -131q53 -43 131 -43q94 0 158 51q61 47 70 126q15 136 -64.5 195.5t-173.5 101.5q-100 45 -178 103t-63 191q11 95 86 153q74 58 183 58q90 0 157 -51q65 -51 102 -148q6 -22 -13 -28q-21 -10 -29 12q-32 85 -88 129q-54 41 -129 41q-94 0 -155 -49
q-61 -45 -70 -122q-13 -109 56.5 -158.5t158.5 -89.5q106 -47 194 -115t71 -228q-13 -98 -87 -157q-78 -59 -186 -59q-90 1 -158 52q-66 51 -101 151q-7 21 13 28q20 8 28 -13zM422 1277l-166 -100q-19 -11 -31 9q-11 18 8 30l165 99q20 12 32 -7q11 -20 -8 -31z" />
    <glyph glyph-name="Scedilla" unicode="&#x15e;" horiz-adv-x="656" 
d="M330 31q-1 -5 -3 -9q87 3 147 51q61 47 70 126q15 136 -64.5 195.5t-173.5 101.5q-100 45 -178 103t-63 191q11 95 86 153q74 58 183 58q90 0 157 -51q65 -51 102 -148q6 -22 -13 -28q-21 -10 -29 12q-32 85 -88 129q-54 41 -129 41q-94 0 -155 -49q-61 -45 -70 -122
q-13 -109 56.5 -158.5t158.5 -89.5q106 -47 194 -115t71 -228q-13 -98 -87 -157q-78 -59 -186 -59q-3 -11 -5 -22q5 5 13 9q36 21 53 -4q32 -42 4 -119q-21 -59 -85 -153q-14 -19 -33 -7q-17 14 -7 32q62 90 82 145q18 49 -5 57q-27 -11 -42.5 -12t-31.5 17q-8 15 1 40
q3 10 7 22q-60 10 -109 47q-66 51 -101 151q-7 21 13 28q20 8 28 -13q33 -88 87 -131q40 -33 96 -41l1 7h48z" />
    <glyph glyph-name="Scircumflex" unicode="&#x15c;" horiz-adv-x="656" 
d="M98 196q33 -88 87 -131q53 -43 131 -43q94 0 158 51q61 47 70 126q15 136 -64.5 195.5t-173.5 101.5q-100 45 -178 103t-63 191q11 95 86 153q74 58 183 58q90 0 157 -51q65 -51 102 -148q6 -22 -13 -28q-21 -10 -29 12q-32 85 -88 129q-54 41 -129 41q-94 0 -155 -49
q-61 -45 -70 -122q-13 -109 56.5 -158.5t158.5 -89.5q106 -47 194 -115t71 -228q-13 -98 -87 -157q-78 -59 -186 -59q-90 1 -158 52q-66 51 -101 151q-7 21 13 28q20 8 28 -13zM214 1205l114 88l112 -87q18 -14 5 -32q-15 -15 -30 -3l-87 67l-86 -68q-17 -12 -32 3
q-13 18 4 32z" />
    <glyph glyph-name="Scommaaccent" unicode="&#x218;" horiz-adv-x="656" 
d="M98 196q33 -88 87 -131q53 -43 131 -43q94 0 158 51q61 47 70 126q15 136 -64.5 195.5t-173.5 101.5q-100 45 -178 103t-63 191q11 95 86 153q74 58 183 58q90 0 157 -51q65 -51 102 -148q6 -22 -13 -28q-21 -10 -29 12q-32 85 -88 129q-54 41 -129 41q-94 0 -155 -49
q-61 -45 -70 -122q-13 -109 56.5 -158.5t158.5 -89.5q106 -47 194 -115t71 -228q-13 -98 -87 -157q-78 -59 -186 -59q-90 1 -158 52q-66 51 -101 151q-7 21 13 28q20 8 28 -13zM317 -125q-10 23 26 44t53 -4q33 -43 4 -119q-21 -60 -86 -155q-13 -18 -32 -5q-18 13 -6 32
q61 89 81 143q18 50 -7.5 48.5t-32.5 15.5z" />
    <glyph glyph-name="Tbar" unicode="&#x166;" horiz-adv-x="695" 
d="M541 475h-171v-475q0 -22 -22 -22t-22 22v475l-165 1q-24 0 -23 24q0 22 23 22h165v434h-254q-22 0 -22 23q0 22 22 22h551q22 0 22 -22q0 -23 -22 -23h-253v-434h171q22 -1 22 -25q0 -23 -22 -22z" />
    <glyph glyph-name="Tcaron" unicode="&#x164;" horiz-adv-x="695" 
d="M72 1001h551q22 0 22 -22q0 -23 -22 -23h-253v-956q0 -22 -22 -22t-22 22v956h-254q-22 0 -22 23q0 22 22 22zM461 1246l-114 -88l-112 87q-18 14 -5 32q15 15 30 3l87 -67l86 68q17 12 32 -3q13 -18 -4 -32z" />
    <glyph glyph-name="Tcommaaccent" unicode="&#x162;" horiz-adv-x="695" 
d="M72 1001h551q22 0 22 -22q0 -23 -22 -23h-253v-956q0 -22 -22 -22t-22 22v956h-254q-22 0 -22 23q0 22 22 22zM311 -135q-10 23 26 44t53 -4q33 -43 4 -119q-21 -60 -86 -155q-13 -18 -32 -5q-18 13 -6 32q61 89 81 143q18 50 -7.5 48.5t-32.5 15.5z" />
    <glyph glyph-name="Ubreve" unicode="&#x16c;" horiz-adv-x="722" 
d="M672 394q0 -90 -19 -169.5t-61 -135.5q-81 -111 -231 -111q-151 0 -231 111q-43 56 -61.5 135.5t-18.5 169.5v585q0 22 22 22q23 0 23 -22v-585q0 -182 70 -279q68 -93 196 -93q126 0 195 93q72 97 72 279v585q0 22 21 22q23 0 23 -22v-585zM289 1220q38 -38 72 -38
t70 37q16 16 33 1q16 -16 0 -32q-50 -51 -103 -51q-52 1 -104 51q-16 15 0 32q16 15 32 0z" />
    <glyph glyph-name="Uhungarumlaut" unicode="&#x170;" horiz-adv-x="722" 
d="M672 394q0 -90 -19 -169.5t-61 -135.5q-81 -111 -231 -111q-151 0 -231 111q-43 56 -61.5 135.5t-18.5 169.5v585q0 22 22 22q23 0 23 -22v-585q0 -182 70 -279q68 -93 196 -93q126 0 195 93q72 97 72 279v585q0 22 21 22q23 0 23 -22v-585zM561 1310l-99 -166
q-12 -19 -32 -7q-18 11 -7 30l99 165q12 20 32 9q19 -12 7 -31zM410 1315l-99 -166q-12 -19 -32 -7q-18 11 -7 30l99 165q12 20 32 9q19 -12 7 -31z" />
    <glyph glyph-name="Umacron" unicode="&#x16a;" horiz-adv-x="722" 
d="M672 394q0 -90 -19 -169.5t-61 -135.5q-81 -111 -231 -111q-151 0 -231 111q-43 56 -61.5 135.5t-18.5 169.5v585q0 22 22 22q23 0 23 -22v-585q0 -182 70 -279q68 -93 196 -93q126 0 195 93q72 97 72 279v585q0 22 21 22q23 0 23 -22v-585zM552 1223l-380 1
q-24 0 -23 24q0 22 23 22h380q22 -1 22 -25q0 -23 -22 -22z" />
    <glyph glyph-name="Uogonek" unicode="&#x172;" horiz-adv-x="722" 
d="M397 -32q-36 -23 -39 -60q0 -14 4.5 -23t16.5 -16t34 0q21 8 28 -13t-13 -28q-45 -15 -71.5 2.5t-35.5 38.5t-7 42q2 39 26 68q-136 7 -210 110q-43 56 -61.5 135.5t-18.5 169.5v585q0 22 22 22q23 0 23 -22v-585q0 -182 70 -279q68 -93 196 -93q126 0 195 93
q72 97 72 279v585q0 22 21 22q23 0 23 -22v-585q0 -90 -19 -169.5t-61 -135.5q-68 -93 -184 -108q-2 -7 -11 -13z" />
    <glyph glyph-name="Uring" unicode="&#x16e;" horiz-adv-x="722" 
d="M672 394q0 -90 -19 -169.5t-61 -135.5q-81 -111 -231 -111q-151 0 -231 111q-43 56 -61.5 135.5t-18.5 169.5v585q0 22 22 22q23 0 23 -22v-585q0 -182 70 -279q68 -93 196 -93q126 0 195 93q72 97 72 279v585q0 22 21 22q23 0 23 -22v-585zM419 1216q0 24 -17 40.5
t-41 16.5q-23 0 -40 -16.5t-17 -40.5q0 -23 17 -39.5t40 -16.5q24 0 41 16.5t17 39.5zM265 1216q0 20 7.5 38t20.5 31.5t30.5 21t37.5 7.5t37.5 -7.5t30.5 -21t20.5 -31.5t7.5 -38q0 -41 -28 -69t-68 -28t-68 28t-28 69z" />
    <glyph glyph-name="Utilde" unicode="&#x168;" horiz-adv-x="722" 
d="M672 394q0 -90 -19 -169.5t-61 -135.5q-81 -111 -231 -111q-151 0 -231 111q-43 56 -61.5 135.5t-18.5 169.5v585q0 22 22 22q23 0 23 -22v-585q0 -182 70 -279q68 -93 196 -93q126 0 195 93q72 97 72 279v585q0 22 21 22q23 0 23 -22v-585zM157 1154q24 32 47 56t50 33
q59 19 122 -65q22 -32 47 -38q13 -4 26 -1q12 4 27 14q37 27 52 74q6 22 28 17q22 -8 16 -29q-19 -63 -68 -99q-22 -17 -44 -21q-27 -7 -51 1q-39 12 -70 55q-43 58 -71 48q-17 -5 -35.5 -25.5t-39.5 -47.5q-14 -20 -32 -5t-4 33z" />
    <glyph glyph-name="Wacute" unicode="&#x1e82;" horiz-adv-x="1094" 
d="M761 -4l-214 888l-214 -888q-5 -23 -27 -17q-14 3 -16 17l-236 978q-4 21 16 26q20 6 27 -16l214 -889l214 889q3 13 17 16q21 6 26 -16l215 -889l214 889q4 22 26 16q21 -5 17 -26l-236 -978v-2q-4 -12 -16 -15q-23 -6 -27 17zM641 1277l-166 -100q-19 -11 -31 9
q-11 18 8 30l165 99q20 12 32 -7q11 -20 -8 -31z" />
    <glyph glyph-name="Wcircumflex" unicode="&#x174;" horiz-adv-x="1094" 
d="M761 -4l-214 888l-214 -888q-5 -23 -27 -17q-14 3 -16 17l-236 978q-4 21 16 26q20 6 27 -16l214 -889l214 889q3 13 17 16q21 6 26 -16l215 -889l214 889q4 22 26 16q21 -5 17 -26l-236 -978v-2q-4 -12 -16 -15q-23 -6 -27 17zM433 1205l114 88l112 -87q18 -14 5 -32
q-15 -15 -30 -3l-87 67l-86 -68q-17 -12 -32 3q-13 18 4 32z" />
    <glyph glyph-name="Wdieresis" unicode="&#x1e84;" horiz-adv-x="1094" 
d="M761 -4l-214 888l-214 -888q-5 -23 -27 -17q-14 3 -16 17l-236 978q-4 21 16 26q20 6 27 -16l214 -889l214 889q3 13 17 16q21 6 26 -16l215 -889l214 889q4 22 26 16q21 -5 17 -26l-236 -978v-2q-4 -12 -16 -15q-23 -6 -27 17zM419 1246q0 25 14.5 42.5t35.5 17.5
t36 -17.5t15 -42.5t-15 -42t-36 -17t-35.5 17t-14.5 42zM574 1246q0 25 14.5 42.5t35.5 17.5t36 -17.5t15 -42.5t-15 -42t-36 -17t-35.5 17t-14.5 42z" />
    <glyph glyph-name="Wgrave" unicode="&#x1e80;" horiz-adv-x="1094" 
d="M761 -4l-214 888l-214 -888q-5 -23 -27 -17q-14 3 -16 17l-236 978q-4 21 16 26q20 6 27 -16l214 -889l214 889q3 13 17 16q21 6 26 -16l215 -889l214 889q4 22 26 16q21 -5 17 -26l-236 -978v-2q-4 -12 -16 -15q-23 -6 -27 17zM452 1277q-19 11 -8 31q12 19 32 7
l165 -99q19 -12 8 -30q-12 -20 -31 -9z" />
    <glyph glyph-name="Ycircumflex" unicode="&#x176;" horiz-adv-x="639" 
d="M98 989l220 -450l221 450q11 19 30 9q20 -9 10 -29l-238 -484v-485q0 -22 -23 -22q-22 0 -22 22v485l-238 484q-8 20 10 29q19 10 30 -9zM206 1205l114 88l112 -87q18 -14 5 -32q-15 -15 -30 -3l-87 67l-86 -68q-17 -12 -32 3q-13 18 4 32z" />
    <glyph glyph-name="Ygrave" unicode="&#x1ef2;" horiz-adv-x="639" 
d="M98 989l220 -450l221 450q11 19 30 9q20 -9 10 -29l-238 -484v-485q0 -22 -23 -22q-22 0 -22 22v485l-238 484q-8 20 10 29q19 10 30 -9zM225 1277q-19 11 -8 31q12 19 32 7l165 -99q19 -12 8 -30q-12 -20 -31 -9z" />
    <glyph glyph-name="Zacute" unicode="&#x179;" horiz-adv-x="625" 
d="M53 12l464 944h-445q-22 0 -22 23q0 22 22 22h481q22 0 22 -22q0 -8 -3 -12l-464 -945h445q22 0 22 -22t-22 -22h-481q-22 0 -22 22q0 7 3 12zM407 1277l-166 -100q-19 -11 -31 9q-11 18 8 30l165 99q20 12 32 -7q11 -20 -8 -31z" />
    <glyph glyph-name="Zdotaccent" unicode="&#x17b;" horiz-adv-x="625" 
d="M53 12l464 944h-445q-22 0 -22 23q0 22 22 22h481q22 0 22 -22q0 -8 -3 -12l-464 -945h445q22 0 22 -22t-22 -22h-481q-22 0 -22 22q0 7 3 12zM262 1246q0 25 14.5 42.5t35.5 17.5t36 -17.5t15 -42.5t-15 -42t-36 -17t-35.5 17t-14.5 42z" />
    <glyph glyph-name="abreve" unicode="&#x103;" 
d="M471 472v-472q0 -22 -23 -22q-22 0 -22 22v60q-2 -4 -9 -13q-55 -69 -157 -69q-100 0 -156 69q-54 67 -54 189t54 189q56 70 156 70q101 0 157 -70q7 -8 9 -12v59q0 23 22 23q23 0 23 -23zM382 398q-42 52 -122 52t-121 -52q-44 -57 -44 -162q0 -106 44 -161
q41 -53 121 -53t122 53q44 55 44 161q0 105 -44 162zM189 720q38 -38 72 -38t70 37q16 16 33 1q16 -16 0 -32q-50 -51 -103 -51q-52 1 -104 51q-16 15 0 32q16 15 32 0z" />
    <glyph glyph-name="amacron" unicode="&#x101;" 
d="M471 472v-472q0 -22 -23 -22q-22 0 -22 22v60q-2 -4 -9 -13q-55 -69 -157 -69q-100 0 -156 69q-54 67 -54 189t54 189q56 70 156 70q101 0 157 -70q7 -8 9 -12v59q0 23 22 23q23 0 23 -23zM382 398q-42 52 -122 52t-121 -52q-44 -57 -44 -162q0 -106 44 -161
q41 -53 121 -53t122 53q44 55 44 161q0 105 -44 162zM452 723l-380 1q-24 0 -23 24q0 22 23 22h380q22 -1 22 -25q0 -23 -22 -22z" />
    <glyph glyph-name="aogonek" unicode="&#x105;" 
d="M460 -22q-36 -23 -39 -60q0 -14 5 -22q4 -10 16 -17t34 0q21 8 28 -13t-13 -28q-45 -15 -71.5 2.5t-34.5 37.5q-10 22 -8 43q2 54 49 88v51q-2 -4 -9 -13q-55 -69 -157 -69q-100 0 -156 69q-54 67 -54 189t54 189q56 70 156 70q101 0 157 -70q7 -8 9 -12v59q0 23 22 23
q23 0 23 -23v-475q1 -11 -11 -19zM382 398q-42 52 -122 52t-121 -52q-44 -57 -44 -162q0 -106 44 -161q41 -53 121 -53t122 53q44 55 44 161q0 105 -44 162z" />
    <glyph glyph-name="aeacute" unicode="&#x1fd;" horiz-adv-x="888" 
d="M71 366q26 64 73 96q49 32 117 32q100 0 156 -69q20 -25 31 -54q13 30 32 54q56 70 156 70q101 0 157 -70q54 -69 54 -189q0 -22 -23 -22h-353q5 -90 44 -139q41 -53 121 -53q55 0 92 25t56 75q8 21 29 12q20 -7 13 -28q-26 -64 -73 -96q-49 -32 -117 -32q-100 0 -156 69
q-20 24 -32 53q-13 -30 -31 -53q-56 -70 -168 -70q-180 7 -211.5 143t148.5 139l240 -1q-5 90 -44 139q-41 53 -121 53q-55 0 -92 -25t-56 -75q-8 -21 -29 -12q-20 7 -13 28zM382 74q39 50 42 142l-238 2q-122 3 -107 -91.5t170 -104.5q92 0 133 52zM515 398
q-39 -50 -44 -140h331q-6 90 -44 140q-42 52 -122 52t-121 -52zM538 777l-166 -100q-19 -11 -31 9q-11 18 8 30l165 99q20 12 32 -7q11 -20 -8 -31z" />
    <glyph glyph-name="cacute" unicode="&#x107;" horiz-adv-x="508" 
d="M450 106q-26 -64 -73 -96q-49 -32 -117 -32q-100 0 -156 69q-54 67 -54 189t54 189q56 70 156 70q67 0 117 -34q47 -31 73 -95q8 -22 -13 -29t-29 13q-19 49 -56 75q-37 25 -92 25q-80 0 -121 -52q-44 -57 -44 -162q0 -106 44 -161q41 -53 121 -53q55 0 92 25t56 75
q8 21 29 12q20 -7 13 -28zM348 777l-166 -100q-19 -11 -31 9q-11 18 8 30l165 99q20 12 32 -7q11 -20 -8 -31z" />
    <glyph glyph-name="ccaron" unicode="&#x10d;" horiz-adv-x="508" 
d="M450 106q-26 -64 -73 -96q-49 -32 -117 -32q-100 0 -156 69q-54 67 -54 189t54 189q56 70 156 70q67 0 117 -34q47 -31 73 -95q8 -22 -13 -29t-29 13q-19 49 -56 75q-37 25 -92 25q-80 0 -121 -52q-44 -57 -44 -162q0 -106 44 -161q41 -53 121 -53q55 0 92 25t56 75
q8 21 29 12q20 -7 13 -28zM367 746l-114 -88l-112 87q-18 14 -5 32q15 15 30 3l87 -67l86 68q17 12 32 -3q13 -18 -4 -32z" />
    <glyph glyph-name="ccircumflex" unicode="&#x109;" horiz-adv-x="508" 
d="M450 106q-26 -64 -73 -96q-49 -32 -117 -32q-100 0 -156 69q-54 67 -54 189t54 189q56 70 156 70q67 0 117 -34q47 -31 73 -95q8 -22 -13 -29t-29 13q-19 49 -56 75q-37 25 -92 25q-80 0 -121 -52q-44 -57 -44 -162q0 -106 44 -161q41 -53 121 -53q55 0 92 25t56 75
q8 21 29 12q20 -7 13 -28zM140 705l114 88l112 -87q18 -14 5 -32q-15 -15 -30 -3l-87 67l-86 -68q-17 -12 -32 3q-13 18 4 32z" />
    <glyph glyph-name="cdotaccent" unicode="&#x10b;" horiz-adv-x="508" 
d="M450 106q-26 -64 -73 -96q-49 -32 -117 -32q-100 0 -156 69q-54 67 -54 189t54 189q56 70 156 70q67 0 117 -34q47 -31 73 -95q8 -22 -13 -29t-29 13q-19 49 -56 75q-37 25 -92 25q-80 0 -121 -52q-44 -57 -44 -162q0 -106 44 -161q41 -53 121 -53q55 0 92 25t56 75
q8 21 29 12q20 -7 13 -28zM203 746q0 25 14.5 42.5t35.5 17.5t36 -17.5t15 -42.5t-15 -42t-36 -17t-35.5 17t-14.5 42z" />
    <glyph glyph-name="c_t" unicode="&#xe220;" horiz-adv-x="909" 
d="M450 106q-26 -64 -73 -96q-49 -32 -117 -32q-100 0 -156 69q-54 67 -54 189t54 189q56 70 156 70q67 0 117 -34q47 -31 73 -95q8 -22 -13 -29t-29 13q-19 49 -56 75q-37 25 -92 25q-80 0 -121 -52q-44 -57 -44 -162q0 -106 44 -161q41 -53 121 -53q55 0 92 25t56 75
q8 21 29 12q20 -7 13 -28zM490 600h80v379q0 22 23 22q22 0 22 -22v-379h151q22 0 22 -21q0 -23 -22 -23h-151v-388q0 -73 31 -111q26 -35 81 -35q37 0 62 17q23 16 38 51q7 20 29 12q20 -8 12 -28q-17 -47 -54 -72q-38 -24 -87 -24q-75 0 -116 52q-41 50 -41 138v388h-80
q-22 0 -22 23q0 21 22 21z" />
    <glyph glyph-name="dcaron" unicode="&#x10f;" horiz-adv-x="707" 
d="M471 1q0 -23 -22 -23q-23 0 -23 23v60q-2 -5 -9 -13q-56 -70 -157 -70q-100 0 -156 70q-54 67 -54 189t54 189q56 69 156 69q102 0 157 -69q7 -9 9 -13v564q0 22 23 22q22 0 22 -22v-976zM382 76q44 56 44 161q0 106 -44 161q-42 53 -122 53q-79 0 -121 -53
q-44 -55 -44 -161q0 -105 44 -161q42 -53 121 -53q80 0 122 53zM568 954q-11 22 25.5 43.5t53.5 -3.5q33 -43 4 -119q-21 -60 -86 -154q-13 -20 -32 -7q-18 14 -6 32q61 90 80 144q19 50 -6.5 48t-32.5 16z" />
    <glyph glyph-name="dcroat" unicode="&#x111;" 
d="M524 682h-53v-681q0 -23 -22 -23q-23 0 -23 23v60q-2 -5 -9 -13q-56 -70 -157 -70q-100 0 -156 70q-54 67 -54 189t54 189q56 69 156 69q102 0 157 -69q7 -9 9 -13v269l-282 1q-24 0 -23 24q0 22 23 22h282v248q0 22 23 22q22 0 22 -22v-248h53q22 -1 22 -25
q0 -23 -22 -22zM382 76q44 56 44 161q0 106 -44 161q-42 53 -122 53q-79 0 -121 -53q-44 -55 -44 -161q0 -105 44 -161q42 -53 121 -53q80 0 122 53z" />
    <glyph glyph-name="ebreve" unicode="&#x115;" horiz-adv-x="520" 
d="M138 398q-39 -50 -44 -140h331q-6 90 -44 140q-42 52 -122 52t-121 -52zM449 106q-26 -64 -73 -96q-49 -32 -117 -32q-100 0 -156 69q-32 39 -43 89.5t-11 99.5q0 122 54 189q56 70 156 70q101 0 157 -70q54 -69 54 -189q0 -22 -23 -22h-353q5 -90 44 -139
q41 -53 121 -53q55 0 92 25t56 75q8 21 29 12q20 -7 13 -28zM188 720q38 -38 72 -38t70 37q16 16 33 1q16 -16 0 -32q-50 -51 -103 -51q-52 1 -104 51q-16 15 0 32q16 15 32 0z" />
    <glyph glyph-name="ecaron" unicode="&#x11b;" horiz-adv-x="520" 
d="M138 398q-39 -50 -44 -140h331q-6 90 -44 140q-42 52 -122 52t-121 -52zM449 106q-26 -64 -73 -96q-49 -32 -117 -32q-100 0 -156 69q-32 39 -43 89.5t-11 99.5q0 122 54 189q56 70 156 70q101 0 157 -70q54 -69 54 -189q0 -22 -23 -22h-353q5 -90 44 -139
q41 -53 121 -53q55 0 92 25t56 75q8 21 29 12q20 -7 13 -28zM373 746l-114 -88l-112 87q-18 14 -5 32q15 15 30 3l87 -67l86 68q17 12 32 -3q13 -18 -4 -32z" />
    <glyph glyph-name="edotaccent" unicode="&#x117;" horiz-adv-x="520" 
d="M138 398q-39 -50 -44 -140h331q-6 90 -44 140q-42 52 -122 52t-121 -52zM449 106q-26 -64 -73 -96q-49 -32 -117 -32q-100 0 -156 69q-32 39 -43 89.5t-11 99.5q0 122 54 189q56 70 156 70q101 0 157 -70q54 -69 54 -189q0 -22 -23 -22h-353q5 -90 44 -139
q41 -53 121 -53q55 0 92 25t56 75q8 21 29 12q20 -7 13 -28zM209 746q0 25 14.5 42.5t35.5 17.5t36 -17.5t15 -42.5t-15 -42t-36 -17t-35.5 17t-14.5 42z" />
    <glyph glyph-name="emacron" unicode="&#x113;" horiz-adv-x="520" 
d="M138 398q-39 -50 -44 -140h331q-6 90 -44 140q-42 52 -122 52t-121 -52zM449 106q-26 -64 -73 -96q-49 -32 -117 -32q-100 0 -156 69q-32 39 -43 89.5t-11 99.5q0 122 54 189q56 70 156 70q101 0 157 -70q54 -69 54 -189q0 -22 -23 -22h-353q5 -90 44 -139
q41 -53 121 -53q55 0 92 25t56 75q8 21 29 12q20 -7 13 -28zM451 723l-380 1q-24 0 -23 24q0 22 23 22h380q22 -1 22 -25q0 -23 -22 -22z" />
    <glyph glyph-name="eogonek" unicode="&#x119;" horiz-adv-x="520" 
d="M309 -22q-36 -23 -39 -60q0 -14 4.5 -23t16.5 -16t34 0q21 8 28 -13t-13 -28q-45 -15 -71.5 2.5t-35.5 38.5t-7 42q1 32 18 57q-89 5 -141 69q-32 39 -43 89.5t-11 99.5q0 122 54 189q56 70 156 70q101 0 157 -70q54 -69 54 -189q0 -22 -23 -22h-353q5 -90 44 -139
q41 -53 121 -53q55 0 92 25t56 75q8 21 29 12q20 -7 13 -28q-26 -64 -73 -96q-27 -17 -60 -25q-2 -4 -7 -7zM138 398q-39 -50 -44 -140h331q-6 90 -44 140q-42 52 -122 52t-121 -52z" />
    <glyph glyph-name="f_f_j" horiz-adv-x="648" 
d="M545 890q-14 33 -37 50q-25 16 -63 16q-54 0 -81 -35q-31 -38 -31 -111v-210h163q22 0 22 -21q0 -23 -22 -23h-163v-556q0 -22 -21 -22q-24 0 -24 22v556h-38h-3h-27h-4h-132v-556q0 -22 -21 -22q-24 0 -24 22v556h-68q-22 0 -22 23q0 21 22 21h68v210q0 88 41 140
q41 51 116 51q51 0 87 -24q22 -15 37 -39q4 6 9 12q41 51 116 51q51 0 87 -24q37 -25 54 -71q10 -22 -12 -30t-29 14zM296 890q-14 33 -37 50q-25 16 -63 16q-54 0 -81 -35q-31 -38 -31 -111v-210h204v210q0 42 9 76zM337 -375q13 -33 37 -51q25 -16 62 -16q55 0 82 34
q30 39 30 112v768q0 23 22 23t22 -23v-768q0 -87 -39 -139q-40 -52 -117 -52q-49 0 -87 25q-35 24 -54 71q-6 21 13 28q21 10 29 -12zM522 746q0 -25 14.5 -42t35.5 -17t36 17t15 42t-15 42.5t-36 17.5t-35.5 -17.5t-14.5 -42.5z" />
    <glyph glyph-name="gbreve" unicode="&#x11f;" 
d="M113 -343q18 -49 56 -74q36 -25 91 -25q80 0 122 52q44 56 44 162v288q-2 -4 -9 -13q-55 -69 -157 -69q-100 0 -156 69q-54 67 -54 189t54 189q56 70 156 70q101 0 157 -70q7 -8 9 -12v59q0 23 22 23q23 0 23 -23v-700q0 -121 -54 -189q-56 -70 -157 -70q-67 0 -116 33
q-48 32 -73 95q-9 22 13 29q20 8 29 -13zM382 398q-42 52 -122 52t-121 -52q-44 -57 -44 -162q0 -106 44 -161q41 -53 121 -53t122 53q44 55 44 161q0 105 -44 162zM189 720q38 -38 72 -38t70 37q16 16 33 1q16 -16 0 -32q-50 -51 -103 -51q-52 1 -104 51q-16 15 0 32
q16 15 32 0z" />
    <glyph glyph-name="gcircumflex" unicode="&#x11d;" 
d="M113 -343q18 -49 56 -74q36 -25 91 -25q80 0 122 52q44 56 44 162v288q-2 -4 -9 -13q-55 -69 -157 -69q-100 0 -156 69q-54 67 -54 189t54 189q56 70 156 70q101 0 157 -70q7 -8 9 -12v59q0 23 22 23q23 0 23 -23v-700q0 -121 -54 -189q-56 -70 -157 -70q-67 0 -116 33
q-48 32 -73 95q-9 22 13 29q20 8 29 -13zM382 398q-42 52 -122 52t-121 -52q-44 -57 -44 -162q0 -106 44 -161q41 -53 121 -53t122 53q44 55 44 161q0 105 -44 162zM147 705l114 88l112 -87q18 -14 5 -32q-15 -15 -30 -3l-87 67l-86 -68q-17 -12 -32 3q-13 18 4 32z" />
    <glyph glyph-name="gcommaaccent" unicode="&#x123;" 
d="M113 -343q18 -49 56 -74q36 -25 91 -25q80 0 122 52q44 56 44 162v288q-2 -4 -9 -13q-55 -69 -157 -69q-100 0 -156 69q-54 67 -54 189t54 189q56 70 156 70q101 0 157 -70q7 -8 9 -12v59q0 23 22 23q23 0 23 -23v-700q0 -121 -54 -189q-56 -70 -157 -70q-67 0 -116 33
q-48 32 -73 95q-9 22 13 29q20 8 29 -13zM382 398q-42 52 -122 52t-121 -52q-44 -57 -44 -162q0 -106 44 -161q41 -53 121 -53t122 53q44 55 44 161q0 105 -44 162zM289 606q11 -22 -25.5 -43.5t-53.5 3.5q-32 43 -3 119q21 60 85 155q13 19 32 6q18 -14 7 -32
q-62 -90 -81 -144q-18 -50 7 -48t32 -16z" />
    <glyph glyph-name="gdotaccent" unicode="&#x121;" 
d="M113 -343q18 -49 56 -74q36 -25 91 -25q80 0 122 52q44 56 44 162v288q-2 -4 -9 -13q-55 -69 -157 -69q-100 0 -156 69q-54 67 -54 189t54 189q56 70 156 70q101 0 157 -70q7 -8 9 -12v59q0 23 22 23q23 0 23 -23v-700q0 -121 -54 -189q-56 -70 -157 -70q-67 0 -116 33
q-48 32 -73 95q-9 22 13 29q20 8 29 -13zM382 398q-42 52 -122 52t-121 -52q-44 -57 -44 -162q0 -106 44 -161q41 -53 121 -53t122 53q44 55 44 161q0 105 -44 162zM210 746q0 25 14.5 42.5t35.5 17.5t36 -17.5t15 -42.5t-15 -42t-36 -17t-35.5 17t-14.5 42z" />
    <glyph glyph-name="hbar" unicode="&#x127;" 
d="M247 723l-152 1v-311q2 4 9 12q56 70 156 70q101 0 157 -70q54 -69 54 -189v-236q0 -22 -23 -22q-22 0 -22 22v236q0 105 -44 162q-42 52 -122 52t-121 -52q-44 -57 -44 -162v-236q0 -22 -23 -22q-22 0 -22 22v724h-34q-24 0 -23 24q0 22 23 22h34v209q0 22 22 22
q23 0 23 -22v-209h152q22 -1 22 -25q0 -23 -22 -22z" />
    <glyph glyph-name="hcircumflex" unicode="&#x125;" 
d="M426 236q0 105 -44 162q-42 52 -122 52t-121 -52q-44 -57 -44 -162v-236q0 -22 -23 -22q-22 0 -22 22v979q0 22 22 22q23 0 23 -22v-566q2 4 9 12q56 70 156 70q101 0 157 -70q54 -69 54 -189v-236q0 -22 -23 -22q-22 0 -22 22v236zM147 1105l114 88l112 -87
q18 -14 5 -32q-15 -15 -30 -3l-87 67l-86 -68q-17 -12 -32 3q-13 18 4 32z" />
    <glyph glyph-name="dotlessi" unicode="&#x131;" horiz-adv-x="170" 
d="M107 472v-472q0 -22 -23 -22q-22 0 -22 22v472q0 23 22 23q23 0 23 -23z" />
    <glyph glyph-name="itilde" unicode="&#x129;" horiz-adv-x="170" 
d="M107 472v-472q0 -22 -23 -22q-22 0 -22 22v472q0 23 22 23q23 0 23 -23zM-118 654q24 32 47 56t50 33q59 19 122 -65q22 -32 47 -38q13 -4 26 -1q12 4 27 14q37 27 52 74q6 22 28 17q22 -8 16 -29q-19 -63 -68 -99q-22 -17 -44 -21q-27 -7 -51 1q-39 12 -70 55
q-43 58 -71 48q-17 -5 -35.5 -25.5t-39.5 -47.5q-14 -20 -32 -5t-4 33z" />
    <glyph glyph-name="imacron" unicode="&#x12b;" horiz-adv-x="170" 
d="M107 472v-472q0 -22 -23 -22q-22 0 -22 22v472q0 23 22 23q23 0 23 -23zM176 723l-179 1q-24 0 -23 24q0 22 23 22h179q22 -1 22 -25q0 -23 -22 -22z" />
    <glyph glyph-name="ibreve" unicode="&#x12d;" horiz-adv-x="170" 
d="M107 472v-472q0 -22 -23 -22q-22 0 -22 22v472q0 23 22 23q23 0 23 -23zM14 720q38 -38 72 -38t70 37q16 16 33 1q16 -16 0 -32q-50 -51 -103 -51q-52 1 -104 51q-16 15 0 32q16 15 32 0z" />
    <glyph glyph-name="iogonek" unicode="&#x12f;" horiz-adv-x="170" 
d="M102 -22q-36 -23 -39 -60q0 -14 4.5 -23t16.5 -16t34 0q21 8 28 -13t-13 -28q-45 -15 -71.5 2.5t-35.5 38.5t-7 42q2 51 43 83v468q0 23 22 23q23 0 23 -23v-463l1 -1q13 -18 -6 -30zM36 746q0 25 14.5 42.5t35.5 17.5t36 -17.5t15 -42.5t-15 -42t-36 -17t-35.5 17
t-14.5 42z" />
    <glyph glyph-name="ij" unicode="&#x133;" horiz-adv-x="326" 
d="M107 472v-472q0 -22 -23 -22q-22 0 -22 22v472q0 23 22 23q23 0 23 -23zM36 746q0 25 14.5 42.5t35.5 17.5t36 -17.5t15 -42.5t-15 -42t-36 -17t-35.5 17t-14.5 42zM15 -375q13 -33 37 -51q25 -16 62 -16q55 0 82 34q30 39 30 112v768q0 23 22 23t22 -23v-768
q0 -87 -39 -139q-40 -52 -117 -52q-49 0 -87 25q-35 24 -54 71q-6 21 13 28q21 10 29 -12zM200 746q0 25 14.5 42.5t35.5 17.5t36 -17.5t15 -42.5t-15 -42t-36 -17t-35.5 17t-14.5 42z" />
    <glyph glyph-name="jcircumflex" unicode="&#x135;" horiz-adv-x="156" 
d="M-155 -375q13 -33 37 -51q25 -16 62 -16q55 0 82 34q30 39 30 112v768q0 23 22 23t22 -23v-768q0 -87 -39 -139q-40 -52 -117 -52q-49 0 -87 25q-35 24 -54 71q-6 21 13 28q21 10 29 -12zM-35 705l114 88l112 -87q18 -14 5 -32q-15 -15 -30 -3l-87 67l-86 -68
q-17 -12 -32 3q-13 18 4 32z" />
    <glyph glyph-name="dotlessj" unicode="&#x237;" horiz-adv-x="156" 
d="M-155 -375q13 -33 37 -51q25 -16 62 -16q55 0 82 34q30 39 30 112v768q0 23 22 23t22 -23v-768q0 -87 -39 -139q-40 -52 -117 -52q-49 0 -87 25q-35 24 -54 71q-6 21 13 28q21 10 29 -12z" />
    <glyph glyph-name="kcommaaccent" unicode="&#x137;" horiz-adv-x="489" 
d="M422 454l-311 -218l311 -218q16 -13 6 -30q-14 -18 -32 -5l-301 210v-193q0 -22 -23 -22q-22 0 -22 22v979q0 22 22 22q23 0 23 -22v-700l301 212q18 11 32 -6q11 -19 -6 -31zM150 27q-10 23 26 44t53 -4q33 -43 4 -119q-21 -60 -86 -155q-13 -18 -32 -5q-18 13 -6 32
q61 89 81 143q18 50 -7.5 48.5t-32.5 15.5z" />
    <glyph glyph-name="kgreenlandic" unicode="&#x138;" horiz-adv-x="489" 
d="M422 454l-311 -218l311 -218q16 -13 6 -30q-14 -18 -32 -5l-301 210v-193q0 -22 -23 -22q-22 0 -22 22v475q0 22 22 22q23 0 23 -22v-196l301 212q18 11 32 -6q11 -19 -6 -31z" />
    <glyph glyph-name="lacute" unicode="&#x13a;" horiz-adv-x="145" 
d="M95 979v-979q0 -22 -23 -22q-22 0 -22 22v979q0 22 22 22q23 0 23 -22zM250 1170l-166 -100q-19 -11 -31 9q-11 18 8 30l165 99q20 12 32 -7q11 -20 -8 -31z" />
    <glyph glyph-name="lcaron" unicode="&#x13e;" horiz-adv-x="314" 
d="M95 979v-979q0 -22 -23 -22q-22 0 -22 22v979q0 22 22 22q23 0 23 -22zM195 954q-11 22 25.5 43.5t53.5 -3.5q33 -43 4 -119q-21 -60 -86 -154q-13 -20 -32 -7q-18 14 -6 32q61 90 80 144q19 50 -6.5 48t-32.5 16z" />
    <glyph glyph-name="lcommaaccent" unicode="&#x13c;" horiz-adv-x="145" 
d="M95 979v-979q0 -22 -23 -22q-22 0 -22 22v979q0 22 22 22q23 0 23 -22zM43 -109q-10 23 26 44t53 -4q33 -43 4 -119q-21 -60 -86 -155q-13 -18 -32 -5q-18 13 -6 32q61 89 81 143q18 50 -7.5 48.5t-32.5 15.5z" />
    <glyph glyph-name="ldot" unicode="&#x140;" horiz-adv-x="283" 
d="M95 979v-979q0 -22 -23 -22q-22 0 -22 22v979q0 22 22 22q23 0 23 -22zM155 447q0 -25 14.5 -42t35.5 -17t36 17t15 42t-15 42.5t-36 17.5t-35.5 -17.5t-14.5 -42.5z" />
    <glyph glyph-name="lslash" unicode="&#x142;" horiz-adv-x="293" 
d="M164 979v-580l76 53q17 11 32 -8q13 -19 -6 -31l-102 -71v-342q0 -22 -23 -22q-22 0 -22 22v311l-65 -45q-20 -14 -33 6q-13 17 6 31l92 64v612q0 22 22 22q23 0 23 -22z" />
    <glyph glyph-name="nacute" unicode="&#x144;" 
d="M426 236q0 105 -44 162q-42 52 -122 52t-121 -52q-44 -57 -44 -162v-236q0 -22 -23 -22q-22 0 -22 22v472q0 23 22 23q23 0 23 -23v-59q2 4 9 12q56 70 156 70q101 0 157 -70q54 -69 54 -189v-236q0 -22 -23 -22q-22 0 -22 22v236zM355 777l-166 -100q-19 -11 -31 9
q-11 18 8 30l165 99q20 12 32 -7q11 -20 -8 -31z" />
    <glyph glyph-name="napostrophe" unicode="&#x149;" horiz-adv-x="576" 
d="M481 236q0 105 -44 162q-42 52 -122 52t-121 -52q-44 -57 -44 -162v-236q0 -22 -23 -22q-22 0 -22 22v472q0 23 22 23q23 0 23 -23v-59q2 4 9 12q56 70 156 70q101 0 157 -70q54 -69 54 -189v-236q0 -22 -23 -22q-22 0 -22 22v236zM65 952q-10 23 26 44t53 -4
q33 -43 4 -119q-21 -60 -86 -155q-13 -18 -32 -5q-18 13 -6 32q61 89 81 143q18 50 -7.5 48.5t-32.5 15.5z" />
    <glyph glyph-name="ncaron" unicode="&#x148;" 
d="M426 236q0 105 -44 162q-42 52 -122 52t-121 -52q-44 -57 -44 -162v-236q0 -22 -23 -22q-22 0 -22 22v472q0 23 22 23q23 0 23 -23v-59q2 4 9 12q56 70 156 70q101 0 157 -70q54 -69 54 -189v-236q0 -22 -23 -22q-22 0 -22 22v236zM374 746l-114 -88l-112 87
q-18 14 -5 32q15 15 30 3l87 -67l86 68q17 12 32 -3q13 -18 -4 -32z" />
    <glyph glyph-name="ncommaaccent" unicode="&#x146;" 
d="M426 236q0 105 -44 162q-42 52 -122 52t-121 -52q-44 -57 -44 -162v-236q0 -22 -23 -22q-22 0 -22 22v472q0 23 22 23q23 0 23 -23v-59q2 4 9 12q56 70 156 70q101 0 157 -70q54 -69 54 -189v-236q0 -22 -23 -22q-22 0 -22 22v236zM231 31q-10 23 26 44t53 -4
q33 -43 4 -119q-21 -60 -86 -155q-13 -18 -32 -5q-18 13 -6 32q61 89 81 143q18 50 -7.5 48.5t-32.5 15.5z" />
    <glyph glyph-name="obreve" unicode="&#x14f;" horiz-adv-x="522" 
d="M260 450q-80 0 -121 -52q-44 -57 -44 -162q0 -106 44 -161q41 -53 121 -53t122 53q44 55 44 161q0 105 -44 162q-42 52 -122 52zM104 425q56 70 156 70q101 0 157 -70q54 -69 54 -189q0 -121 -54 -189q-55 -69 -157 -69q-100 0 -156 69q-54 67 -54 189t54 189zM189 720
q38 -38 72 -38t70 37q16 16 33 1q16 -16 0 -32q-50 -51 -103 -51q-52 1 -104 51q-16 15 0 32q16 15 32 0z" />
    <glyph glyph-name="ohungarumlaut" unicode="&#x151;" horiz-adv-x="522" 
d="M260 450q-80 0 -121 -52q-44 -57 -44 -162q0 -106 44 -161q41 -53 121 -53t122 53q44 55 44 161q0 105 -44 162q-42 52 -122 52zM104 425q56 70 156 70q101 0 157 -70q54 -69 54 -189q0 -121 -54 -189q-55 -69 -157 -69q-100 0 -156 69q-54 67 -54 189t54 189zM456 813
l-99 -166q-12 -19 -32 -7q-18 11 -7 30l99 165q12 20 32 9q19 -12 7 -31zM305 818l-99 -166q-12 -19 -32 -7q-18 11 -7 30l99 165q12 20 32 9q19 -12 7 -31z" />
    <glyph glyph-name="omacron" unicode="&#x14d;" horiz-adv-x="522" 
d="M260 450q-80 0 -121 -52q-44 -57 -44 -162q0 -106 44 -161q41 -53 121 -53t122 53q44 55 44 161q0 105 -44 162q-42 52 -122 52zM104 425q56 70 156 70q101 0 157 -70q54 -69 54 -189q0 -121 -54 -189q-55 -69 -157 -69q-100 0 -156 69q-54 67 -54 189t54 189zM452 723
l-380 1q-24 0 -23 24q0 22 23 22h380q22 -1 22 -25q0 -23 -22 -22z" />
    <glyph glyph-name="oslashacute" unicode="&#x1ff;" horiz-adv-x="522" 
d="M463 468l-40 -52q48 -68 48 -180q0 -121 -54 -189q-55 -69 -157 -69q-83 0 -136 48l-30 -39q-13 -17 -32 -2q-17 12 -3 30l35 45q-44 65 -44 176q0 122 54 189q56 70 156 70q80 0 132 -45l36 47q13 17 31 2q17 -13 4 -31zM260 22q80 0 122 53q44 55 44 161q0 88 -32 143
l-243 -318q40 -39 109 -39zM260 450q-80 0 -121 -52q-44 -57 -44 -162q0 -85 28 -138l242 317q-40 35 -105 35zM355 777l-166 -100q-19 -11 -31 9q-11 18 8 30l165 99q20 12 32 -7q11 -20 -8 -31z" />
    <glyph glyph-name="racute" unicode="&#x155;" horiz-adv-x="508" 
d="M95 472v-59q2 4 9 12q56 70 156 70q67 0 117 -34q47 -31 73 -95q8 -22 -13 -29t-29 13q-19 49 -56 75q-37 25 -92 25q-80 0 -121 -52q-44 -57 -44 -162v-236q0 -22 -23 -22q-22 0 -22 22v472q0 23 22 23q23 0 23 -23zM348 777l-166 -100q-19 -11 -31 9q-11 18 8 30
l165 99q20 12 32 -7q11 -20 -8 -31z" />
    <glyph glyph-name="rcaron" unicode="&#x159;" horiz-adv-x="508" 
d="M95 472v-59q2 4 9 12q56 70 156 70q67 0 117 -34q47 -31 73 -95q8 -22 -13 -29t-29 13q-19 49 -56 75q-37 25 -92 25q-80 0 -121 -52q-44 -57 -44 -162v-236q0 -22 -23 -22q-22 0 -22 22v472q0 23 22 23q23 0 23 -23zM367 746l-114 -88l-112 87q-18 14 -5 32q15 15 30 3
l87 -67l86 68q17 12 32 -3q13 -18 -4 -32z" />
    <glyph glyph-name="rcommaaccent" unicode="&#x157;" horiz-adv-x="508" 
d="M95 472v-59q2 4 9 12q56 70 156 70q67 0 117 -34q47 -31 73 -95q8 -22 -13 -29t-29 13q-19 49 -56 75q-37 25 -92 25q-80 0 -121 -52q-44 -57 -44 -162v-236q0 -22 -23 -22q-22 0 -22 22v472q0 23 22 23q23 0 23 -23zM172 17q-10 23 26 44t53 -4q33 -43 4 -119
q-21 -60 -86 -155q-13 -18 -32 -5q-18 13 -6 32q61 89 81 143q18 50 -7.5 48.5t-32.5 15.5z" />
    <glyph glyph-name="sacute" unicode="&#x15b;" horiz-adv-x="524" 
d="M98 101q22 -39 61 -58q38 -21 96 -21q68 0 116 24q40 22 45 53q10 56 -46 82.5t-123 46.5q-76 23 -135.5 53t-47.5 102q10 52 69 83q57 29 134 29q66 0 116 -25q48 -26 78 -76q12 -20 -8 -30q-20 -11 -30 8q-22 38 -61 58t-95 20q-67 0 -114 -23q-40 -23 -45 -51
q-8 -43 40.5 -65.5t111.5 -39.5q80 -24 147 -59t53 -121q-10 -54 -69 -84q-57 -29 -136 -29q-67 0 -117 25t-79 77q-9 20 10 30t29 -9zM356 777l-166 -100q-19 -11 -31 9q-11 18 8 30l165 99q20 12 32 -7q11 -20 -8 -31z" />
    <glyph glyph-name="scedilla" unicode="&#x15f;" horiz-adv-x="524" 
d="M264 31q-1 -5 -3 -9q64 1 110 24q40 22 45 53q10 56 -46 82.5t-123 46.5q-76 23 -135.5 53t-47.5 102q10 52 69 83q57 29 134 29q66 0 116 -25q48 -26 78 -76q12 -20 -8 -30q-20 -11 -30 8q-22 38 -61 58t-95 20q-67 0 -114 -23q-40 -23 -45 -51q-8 -43 40.5 -65.5
t111.5 -39.5q80 -24 147 -59t53 -121q-10 -54 -69 -84q-57 -29 -136 -29h-5q-3 -11 -5 -22q5 5 13 9q36 21 53 -4q32 -42 4 -119q-21 -59 -85 -153q-14 -19 -33 -7q-17 14 -7 32q62 90 82 145q18 49 -5 57q-27 -11 -42.5 -12t-31.5 17q-8 15 1 40q3 10 7 22q-34 6 -63 20
q-50 25 -79 77q-9 20 10 30t29 -9q22 -39 61 -58q24 -14 56 -19q0 3 1 7h48z" />
    <glyph glyph-name="scircumflex" unicode="&#x15d;" horiz-adv-x="524" 
d="M98 101q22 -39 61 -58q38 -21 96 -21q68 0 116 24q40 22 45 53q10 56 -46 82.5t-123 46.5q-76 23 -135.5 53t-47.5 102q10 52 69 83q57 29 134 29q66 0 116 -25q48 -26 78 -76q12 -20 -8 -30q-20 -11 -30 8q-22 38 -61 58t-95 20q-67 0 -114 -23q-40 -23 -45 -51
q-8 -43 40.5 -65.5t111.5 -39.5q80 -24 147 -59t53 -121q-10 -54 -69 -84q-57 -29 -136 -29q-67 0 -117 25t-79 77q-9 20 10 30t29 -9zM148 705l114 88l112 -87q18 -14 5 -32q-15 -15 -30 -3l-87 67l-86 -68q-17 -12 -32 3q-13 18 4 32z" />
    <glyph glyph-name="scommaaccent" unicode="&#x219;" horiz-adv-x="524" 
d="M98 101q22 -39 61 -58q38 -21 96 -21q68 0 116 24q40 22 45 53q10 56 -46 82.5t-123 46.5q-76 23 -135.5 53t-47.5 102q10 52 69 83q57 29 134 29q66 0 116 -25q48 -26 78 -76q12 -20 -8 -30q-20 -11 -30 8q-22 38 -61 58t-95 20q-67 0 -114 -23q-40 -23 -45 -51
q-8 -43 40.5 -65.5t111.5 -39.5q80 -24 147 -59t53 -121q-10 -54 -69 -84q-57 -29 -136 -29q-67 0 -117 25t-79 77q-9 20 10 30t29 -9zM232 -108q-10 23 26 44t53 -4q33 -43 4 -119q-21 -60 -86 -155q-13 -18 -32 -5q-18 13 -6 32q61 89 81 143q18 50 -7.5 48.5t-32.5 15.5z
" />
    <glyph glyph-name="s_t" unicode="&#xfb06;" horiz-adv-x="925" 
d="M98 101q22 -39 61 -58q38 -21 96 -21q68 0 116 24q40 22 45 53q10 56 -46 82.5t-123 46.5q-76 23 -135.5 53t-47.5 102q10 52 69 83q57 29 134 29q66 0 116 -25q48 -26 78 -76q12 -20 -8 -30q-20 -11 -30 8q-22 38 -61 58t-95 20q-67 0 -114 -23q-40 -23 -45 -51
q-8 -43 40.5 -65.5t111.5 -39.5q80 -24 147 -59t53 -121q-10 -54 -69 -84q-57 -29 -136 -29q-67 0 -117 25t-79 77q-9 20 10 30t29 -9zM506 600h80v379q0 22 23 22q22 0 22 -22v-379h151q22 0 22 -21q0 -23 -22 -23h-151v-388q0 -73 31 -111q26 -35 81 -35q37 0 62 17
q23 16 38 51q7 20 29 12q20 -8 12 -28q-17 -47 -54 -72q-38 -24 -87 -24q-75 0 -116 52q-41 50 -41 138v388h-80q-22 0 -22 23q0 21 22 21z" />
    <glyph glyph-name="s_p" unicode="&#xe223;" horiz-adv-x="1045" 
d="M619 472v-59q2 4 9 12q56 70 156 70q101 0 157 -70q54 -69 54 -189q0 -121 -54 -189q-55 -69 -157 -69q-100 0 -156 69q-7 8 -9 12v-524q0 -22 -23 -22q-22 0 -22 22v937q0 23 22 23q23 0 23 -23zM784 450q-80 0 -121 -52q-44 -57 -44 -162q0 -106 44 -161
q41 -53 121 -53t122 53q44 55 44 161q0 105 -44 162q-42 52 -122 52zM98 101q22 -39 61 -58q38 -21 96 -21q68 0 116 24q40 22 45 53q10 56 -46 82.5t-123 46.5q-76 23 -135.5 53t-47.5 102q10 52 69 83q57 29 134 29q66 0 116 -25q48 -26 78 -76q12 -20 -8 -30
q-20 -11 -30 8q-22 38 -61 58t-95 20q-67 0 -114 -23q-40 -23 -45 -51q-8 -43 40.5 -65.5t111.5 -39.5q80 -24 147 -59t53 -121q-10 -54 -69 -84q-57 -29 -136 -29q-67 0 -117 25t-79 77q-9 20 10 30t29 -9z" />
    <glyph glyph-name="tbar" unicode="&#x167;" horiz-adv-x="401" 
d="M255 723h-148v-123h151q22 0 22 -21q0 -23 -22 -23h-151v-388q0 -73 31 -111q26 -35 81 -35q37 0 62 17q23 16 38 51q7 20 29 12q20 -8 12 -28q-17 -47 -54 -72q-38 -24 -87 -24q-75 0 -116 52q-41 50 -41 138v388h-80q-22 0 -22 23q0 21 22 21h80v123l-81 1
q-24 0 -23 24q0 22 23 22h81v209q0 22 23 22q22 0 22 -22v-209h148q22 -1 22 -25q0 -23 -22 -22z" />
    <glyph glyph-name="tcaron" unicode="&#x165;" horiz-adv-x="403" 
d="M-18 600h80v379q0 22 23 22q22 0 22 -22v-379h151q22 0 22 -21q0 -23 -22 -23h-151v-388q0 -73 31 -111q26 -35 81 -35q37 0 62 17q23 16 38 51q7 20 29 12q20 -8 12 -28q-17 -47 -54 -72q-38 -24 -87 -24q-75 0 -116 52q-41 50 -41 138v388h-80q-22 0 -22 23q0 21 22 21
zM235 954q-11 22 25.5 43.5t53.5 -3.5q33 -43 4 -119q-21 -60 -86 -154q-13 -20 -32 -7q-18 14 -6 32q61 90 80 144q19 50 -6.5 48t-32.5 16z" />
    <glyph glyph-name="tcommaaccent" unicode="&#x163;" horiz-adv-x="401" 
d="M-18 600h80v379q0 22 23 22q22 0 22 -22v-379h151q22 0 22 -21q0 -23 -22 -23h-151v-388q0 -73 31 -111q26 -35 81 -35q37 0 62 17q23 16 38 51q7 20 29 12q20 -8 12 -28q-17 -47 -54 -72q-38 -24 -87 -24q-75 0 -116 52q-41 50 -41 138v388h-80q-22 0 -22 23q0 21 22 21
zM182 -114q-10 23 26 44t53 -4q33 -43 4 -119q-21 -60 -86 -155q-13 -18 -32 -5q-18 13 -6 32q61 89 81 143q18 50 -7.5 48.5t-32.5 15.5z" />
    <glyph glyph-name="ubreve" unicode="&#x16d;" 
d="M95 236q0 -106 44 -161q41 -53 121 -53t122 53q44 55 44 161v236q0 23 22 23q23 0 23 -23v-472q0 -22 -23 -22q-22 0 -22 22v60q-2 -4 -9 -13q-55 -69 -157 -69q-100 0 -156 69q-54 67 -54 189v236q0 23 22 23q23 0 23 -23v-236zM189 720q38 -38 72 -38t70 37q16 16 33 1
q16 -16 0 -32q-50 -51 -103 -51q-52 1 -104 51q-16 15 0 32q16 15 32 0z" />
    <glyph glyph-name="uhungarumlaut" unicode="&#x171;" 
d="M95 236q0 -106 44 -161q41 -53 121 -53t122 53q44 55 44 161v236q0 23 22 23q23 0 23 -23v-472q0 -22 -23 -22q-22 0 -22 22v60q-2 -4 -9 -13q-55 -69 -157 -69q-100 0 -156 69q-54 67 -54 189v236q0 23 22 23q23 0 23 -23v-236zM253 818l-99 -166q-12 -19 -32 -7
q-18 11 -7 30l99 165q12 20 32 9q19 -12 7 -31zM404 813l-99 -166q-12 -19 -32 -7q-18 11 -7 30l99 165q12 20 32 9q19 -12 7 -31z" />
    <glyph glyph-name="umacron" unicode="&#x16b;" 
d="M95 236q0 -106 44 -161q41 -53 121 -53t122 53q44 55 44 161v236q0 23 22 23q23 0 23 -23v-472q0 -22 -23 -22q-22 0 -22 22v60q-2 -4 -9 -13q-55 -69 -157 -69q-100 0 -156 69q-54 67 -54 189v236q0 23 22 23q23 0 23 -23v-236zM452 723l-380 1q-24 0 -23 24q0 22 23 22
h380q22 -1 22 -25q0 -23 -22 -22z" />
    <glyph glyph-name="uogonek" unicode="&#x173;" 
d="M450 -22q-36 -23 -39 -60q0 -14 4.5 -23t16.5 -16t34 0q21 8 28 -13t-13 -28q-45 -15 -71.5 2.5t-35.5 38.5t-7 42q3 59 58 94h1v45q-2 -4 -9 -13q-55 -69 -157 -69q-100 0 -156 69q-54 67 -54 189v236q0 23 22 23q23 0 23 -23v-236q0 -106 44 -161q41 -53 121 -53
t122 53q44 55 44 161v236q0 23 22 23q23 0 23 -23v-472q0 -21 -21 -22z" />
    <glyph glyph-name="uring" unicode="&#x16f;" 
d="M95 236q0 -106 44 -161q41 -53 121 -53t122 53q44 55 44 161v236q0 23 22 23q23 0 23 -23v-472q0 -22 -23 -22q-22 0 -22 22v60q-2 -4 -9 -13q-55 -69 -157 -69q-100 0 -156 69q-54 67 -54 189v236q0 23 22 23q23 0 23 -23v-236zM164 716q0 20 7.5 38t20.5 31.5t30.5 21
t37.5 7.5t37.5 -7.5t30.5 -21t20.5 -31.5t7.5 -38q0 -41 -28 -69t-68 -28t-68 28t-28 69zM318 716q0 24 -17 40.5t-41 16.5q-23 0 -40 -16.5t-17 -40.5q0 -23 17 -39.5t40 -16.5q24 0 41 16.5t17 39.5z" />
    <glyph glyph-name="utilde" unicode="&#x169;" 
d="M95 236q0 -106 44 -161q41 -53 121 -53t122 53q44 55 44 161v236q0 23 22 23q23 0 23 -23v-472q0 -22 -23 -22q-22 0 -22 22v60q-2 -4 -9 -13q-55 -69 -157 -69q-100 0 -156 69q-54 67 -54 189v236q0 23 22 23q23 0 23 -23v-236zM57 654q24 32 47 56t50 33q59 19 122 -65
q22 -32 47 -38q13 -4 26 -1q12 4 27 14q37 27 52 74q6 22 28 17q22 -8 16 -29q-19 -63 -68 -99q-22 -17 -44 -21q-27 -7 -51 1q-39 12 -70 55q-43 58 -71 48q-17 -5 -35.5 -25.5t-39.5 -47.5q-14 -20 -32 -5t-4 33z" />
    <glyph glyph-name="wacute" unicode="&#x1e83;" horiz-adv-x="795" 
d="M417 479l140 -409l139 409q8 21 29 14q20 -8 14 -28l-161 -472v-1q-2 -4 -5 -7q-2 -2 -7 -5h-2l-1 -1h-2l-1 -1h-7v1h-3v1h-1l-8 5q-3 3 -4 7v1h-1l-139 410l-140 -410h-1v-1q-1 -4 -5 -7q-1 -2 -6 -5h-2l-1 -1h-2l-1 -1h-7v1h-3v1h-2l-7 5q-3 3 -4 7l-1 1l-161 472
q-4 21 14 28q22 7 28 -14l140 -409l139 409l1 1v1q1 3 5 7q2 3 6 4v1h2l1 1h5l1 1h1l1 -1h5v-1h2l1 -1q3 -1 6 -4q4 -6 5 -7v-2zM492 777l-166 -100q-19 -11 -31 9q-11 18 8 30l165 99q20 12 32 -7q11 -20 -8 -31z" />
    <glyph glyph-name="wcircumflex" unicode="&#x175;" horiz-adv-x="795" 
d="M417 479l140 -409l139 409q8 21 29 14q20 -8 14 -28l-161 -472v-1q-2 -4 -5 -7q-2 -2 -7 -5h-2l-1 -1h-2l-1 -1h-7v1h-3v1h-1l-8 5q-3 3 -4 7v1h-1l-139 410l-140 -410h-1v-1q-1 -4 -5 -7q-1 -2 -6 -5h-2l-1 -1h-2l-1 -1h-7v1h-3v1h-2l-7 5q-3 3 -4 7l-1 1l-161 472
q-4 21 14 28q22 7 28 -14l140 -409l139 409l1 1v1q1 3 5 7q2 3 6 4v1h2l1 1h5l1 1h1l1 -1h5v-1h2l1 -1q3 -1 6 -4q4 -6 5 -7v-2zM284 705l114 88l112 -87q18 -14 5 -32q-15 -15 -30 -3l-87 67l-86 -68q-17 -12 -32 3q-13 18 4 32z" />
    <glyph glyph-name="wdieresis" unicode="&#x1e85;" horiz-adv-x="795" 
d="M417 479l140 -409l139 409q8 21 29 14q20 -8 14 -28l-161 -472v-1q-2 -4 -5 -7q-2 -2 -7 -5h-2l-1 -1h-2l-1 -1h-7v1h-3v1h-1l-8 5q-3 3 -4 7v1h-1l-139 410l-140 -410h-1v-1q-1 -4 -5 -7q-1 -2 -6 -5h-2l-1 -1h-2l-1 -1h-7v1h-3v1h-2l-7 5q-3 3 -4 7l-1 1l-161 472
q-4 21 14 28q22 7 28 -14l140 -409l139 409l1 1v1q1 3 5 7q2 3 6 4v1h2l1 1h5l1 1h1l1 -1h5v-1h2l1 -1q3 -1 6 -4q4 -6 5 -7v-2zM269 746q0 25 14.5 42.5t35.5 17.5t36 -17.5t15 -42.5t-15 -42t-36 -17t-35.5 17t-14.5 42zM424 746q0 25 14.5 42.5t35.5 17.5t36 -17.5
t15 -42.5t-15 -42t-36 -17t-35.5 17t-14.5 42z" />
    <glyph glyph-name="wgrave" unicode="&#x1e81;" horiz-adv-x="795" 
d="M417 479l140 -409l139 409q8 21 29 14q20 -8 14 -28l-161 -472v-1q-2 -4 -5 -7q-2 -2 -7 -5h-2l-1 -1h-2l-1 -1h-7v1h-3v1h-1l-8 5q-3 3 -4 7v1h-1l-139 410l-140 -410h-1v-1q-1 -4 -5 -7q-1 -2 -6 -5h-2l-1 -1h-2l-1 -1h-7v1h-3v1h-2l-7 5q-3 3 -4 7l-1 1l-161 472
q-4 21 14 28q22 7 28 -14l140 -409l139 409l1 1v1q1 3 5 7q2 3 6 4v1h2l1 1h5l1 1h1l1 -1h5v-1h2l1 -1q3 -1 6 -4q4 -6 5 -7v-2zM303 777q-19 11 -8 31q12 19 32 7l165 -99q19 -12 8 -30q-12 -20 -31 -9z" />
    <glyph glyph-name="ycircumflex" unicode="&#x177;" horiz-adv-x="586" 
d="M527 463l-425 -937q-9 -19 -30 -11q-20 10 -11 29l207 456l-210 463q-8 20 11 29t29 -11l195 -427l193 427q8 19 30 11q20 -10 11 -29zM179 705l114 88l112 -87q18 -14 5 -32q-15 -15 -30 -3l-87 67l-86 -68q-17 -12 -32 3q-13 18 4 32z" />
    <glyph glyph-name="ygrave" unicode="&#x1ef3;" horiz-adv-x="586" 
d="M527 463l-425 -937q-9 -19 -30 -11q-20 10 -11 29l207 456l-210 463q-8 20 11 29t29 -11l195 -427l193 427q8 19 30 11q20 -10 11 -29zM198 777q-19 11 -8 31q12 19 32 7l165 -99q19 -12 8 -30q-12 -20 -31 -9z" />
    <glyph glyph-name="zacute" unicode="&#x17a;" horiz-adv-x="509" 
d="M56 15l336 435h-320q-22 0 -22 22q0 23 22 23h365q22 0 22 -23q0 -11 -6 -15l-335 -435h319q22 0 22 -22t-22 -22h-365q-22 0 -22 22q0 7 6 15zM349 777l-166 -100q-19 -11 -31 9q-11 18 8 30l165 99q20 12 32 -7q11 -20 -8 -31z" />
    <glyph glyph-name="zdotaccent" unicode="&#x17c;" horiz-adv-x="509" 
d="M56 15l336 435h-320q-22 0 -22 22q0 23 22 23h365q22 0 22 -23q0 -11 -6 -15l-335 -435h319q22 0 22 -22t-22 -22h-365q-22 0 -22 22q0 7 6 15zM204 746q0 25 14.5 42.5t35.5 17.5t36 -17.5t15 -42.5t-15 -42t-36 -17t-35.5 17t-14.5 42z" />
    <glyph glyph-name="Eng" unicode="&#x14a;" horiz-adv-x="643" 
d="M593 979v-1210q0 -121 -54 -189q-55 -69 -157 -69q-100 0 -156 69q-54 67 -54 189q0 22 22 22q23 0 23 -22q0 -106 44 -161q41 -53 121 -53t122 53q44 55 44 161v227l-453 890v-886q0 -22 -23 -22q-22 0 -22 22v980q0 13 12 18q20 10 30 -9l456 -896v886q0 22 22 22
q23 0 23 -22z" />
    <glyph glyph-name="eng" unicode="&#x14b;" 
d="M212 -375q13 -33 37 -51q25 -16 62 -16q55 0 82 34q30 39 30 112l3 532q0 105 -44 162q-42 52 -122 52t-121 -52q-44 -57 -44 -162v-236q0 -22 -23 -22q-22 0 -22 22v472q0 23 22 23q23 0 23 -23v-59q2 4 9 12q56 70 156 70q101 0 157 -70q54 -69 54 -189l-4 -532
q0 -87 -39 -139q-40 -52 -117 -52q-49 0 -87 25q-35 24 -54 71q-6 21 13 28q21 10 29 -12z" />
    <glyph glyph-name="fraction" unicode="&#x2044;" horiz-adv-x="540" 
d="M520 968l-462 -954q-9 -20 -30 -10q-20 9 -10 29l461 955q10 20 30 10t11 -30z" />
    </font>
</defs>
</svg>
